<svg width="310" height="279" viewBox="0 0 310 279" fill="none" xmlns="http://www.w3.org/2000/svg">
<path d="M39.8434 205.564L39.3132 205.444C45.2245 179.156 60.0801 155.284 81.1433 138.225C97.0679 125.349 116.008 116.737 136.179 113.2C156.351 109.664 177.091 111.319 196.446 118.011C215.801 124.703 233.135 136.21 246.815 151.45C260.495 166.69 270.072 185.161 274.643 205.123L274.113 205.244C261.6 150.302 213.447 111.929 157.014 111.929C101.321 111.929 52.0435 151.308 39.8434 205.564Z" fill="#3F3D56"/>
<path d="M239.443 185.578H238.899V207.043H239.443V185.578Z" fill="#3F3D56"/>
<path d="M244.458 188.313C244.492 195.819 239.212 201.928 239.212 201.928C239.212 201.928 233.875 195.868 233.84 188.362C233.806 180.856 239.086 174.747 239.086 174.747C239.086 174.747 244.423 180.807 244.458 188.313Z" fill="#336B68"/>
<path opacity="0.1" d="M244.458 188.313C244.492 195.819 239.212 201.928 239.212 201.928C239.212 201.928 233.875 195.868 233.84 188.362C233.806 180.856 239.086 174.747 239.086 174.747C239.086 174.747 244.423 180.807 244.458 188.313Z" fill="black"/>
<path opacity="0.4" d="M136.814 142.901C141.503 142.901 145.304 139.1 145.304 134.411C145.304 129.722 141.503 125.92 136.814 125.92C132.125 125.92 128.324 129.722 128.324 134.411C128.324 139.1 132.125 142.901 136.814 142.901Z" fill="#336B68"/>
<path opacity="0.4" d="M121.101 144.422C124.39 144.422 127.057 141.755 127.057 138.466C127.057 135.176 124.39 132.51 121.101 132.51C117.811 132.51 115.145 135.176 115.145 138.466C115.145 141.755 117.811 144.422 121.101 144.422Z" fill="#336B68"/>
<path opacity="0.4" d="M57.2128 161.539C60.5021 161.539 63.1687 158.872 63.1687 155.583C63.1687 152.294 60.5021 149.627 57.2128 149.627C53.9234 149.627 51.2568 152.294 51.2568 155.583C51.2568 158.872 53.9234 161.539 57.2128 161.539Z" fill="#336B68"/>
<path opacity="0.4" d="M233.278 142.203C237.967 142.203 241.769 138.402 241.769 133.712C241.769 129.023 237.967 125.222 233.278 125.222C228.589 125.222 224.788 129.023 224.788 133.712C224.788 138.402 228.589 142.203 233.278 142.203Z" fill="#336B68"/>
<path d="M16.0502 204.656C16.5105 206.357 18.087 207.411 18.087 207.411C18.087 207.411 18.9173 205.706 18.457 204.005C17.9968 202.303 16.4203 201.25 16.4203 201.25C16.4203 201.25 15.59 202.955 16.0502 204.656Z" fill="#3F3D56"/>
<path d="M16.7267 204.291C17.9897 205.52 18.1439 207.41 18.1439 207.41C18.1439 207.41 16.2505 207.307 14.9876 206.077C13.7246 204.848 13.5703 202.958 13.5703 202.958C13.5703 202.958 15.4637 203.061 16.7267 204.291Z" fill="#336B68"/>
<path d="M182.355 204.656C182.815 206.357 184.392 207.411 184.392 207.411C184.392 207.411 185.222 205.706 184.762 204.005C184.302 202.303 182.725 201.25 182.725 201.25C182.725 201.25 181.895 202.955 182.355 204.656Z" fill="#3F3D56"/>
<path d="M183.031 204.291C184.294 205.52 184.449 207.41 184.449 207.41C184.449 207.41 182.555 207.307 181.292 206.077C180.029 204.848 179.875 202.958 179.875 202.958C179.875 202.958 181.769 203.061 183.031 204.291Z" fill="#336B68"/>
<path d="M19.1773 191.867L18.0532 189.994L28.545 181.001H55.5242V183.623L45.7818 194.116L34.5403 196.364L19.1773 191.867Z" fill="#3F3D56"/>
<path d="M60.1499 186.277V180.415H56.6176V182.263L55.5058 181L46.5127 189.993L45.0137 191.492L43.1403 198.986L46.5127 207.229H63.7492V190.368L60.1499 186.277Z" fill="#CCCCCC"/>
<path d="M46.5311 189.993H18.0532V207.23H46.5311V189.993Z" fill="#F2F2F2"/>
<path d="M42.5788 195.426H36.5835V200.672H42.5788V195.426Z" fill="#3F3D56"/>
<path d="M34.1657 195.239H28.9198V207.23H34.1657V195.239Z" fill="#CCCCCC"/>
<path d="M22.9242 197.112V195.239H20.676V197.112H22.7367H22.9242Z" fill="#3F3D56"/>
<path d="M22.7367 198.611H20.676V200.485H22.9242V198.611H22.7367Z" fill="#3F3D56"/>
<path d="M26.6713 195.239H24.4231V197.112H26.6713V195.239Z" fill="#3F3D56"/>
<path d="M26.6713 198.611H24.4231V200.485H26.6713V198.611Z" fill="#3F3D56"/>
<path d="M54.569 197.3V195.426H52.3206V197.3H54.3815H54.569Z" fill="#3F3D56"/>
<path d="M54.3815 198.799H52.3206V200.672H54.569V198.799H54.3815Z" fill="#3F3D56"/>
<path d="M58.316 195.426H56.0677V197.3H58.316V195.426Z" fill="#3F3D56"/>
<path d="M58.316 198.799H56.0677V200.672H58.316V198.799Z" fill="#3F3D56"/>
<path d="M127.607 191.867L126.483 189.994L136.975 181.001H163.954V183.623L154.212 194.116L142.97 196.364L127.607 191.867Z" fill="#3F3D56"/>
<path d="M168.599 186.277V180.415H165.066V182.263L163.955 181L154.961 189.993L153.462 191.492L151.589 198.986L154.961 207.229H172.198V190.368L168.599 186.277Z" fill="#CCCCCC"/>
<path d="M154.961 189.993H126.483V207.23H154.961V189.993Z" fill="#F2F2F2"/>
<path d="M151.027 195.426H145.031V200.672H151.027V195.426Z" fill="#3F3D56"/>
<path d="M142.596 195.239H137.35V207.23H142.596V195.239Z" fill="#CCCCCC"/>
<path d="M131.355 197.112V195.239H129.106V197.112H131.167H131.355Z" fill="#3F3D56"/>
<path d="M131.167 198.611H129.106V200.485H131.355V198.611H131.167Z" fill="#3F3D56"/>
<path d="M135.102 195.239H132.853V197.112H135.102V195.239Z" fill="#3F3D56"/>
<path d="M135.102 198.611H132.853V200.485H135.102V198.611Z" fill="#3F3D56"/>
<path d="M163.017 197.3V195.426H160.769V197.3H162.83H163.017Z" fill="#3F3D56"/>
<path d="M162.83 198.799H160.769V200.672H163.017V198.799H162.83Z" fill="#3F3D56"/>
<path d="M166.764 195.426H164.516V197.3H166.764V195.426Z" fill="#3F3D56"/>
<path d="M166.764 198.799H164.516V200.672H166.764V198.799Z" fill="#3F3D56"/>
<path d="M76.8644 160.391L74.991 158.892L85.4828 149.524H112.087V157.768L94.8505 169.384L76.8644 160.391Z" fill="#3F3D56"/>
<path d="M116.974 154.779V149.711H113.441V150.952L112.123 149.524L103.505 158.892L100.132 161.14L94.9033 199.343L102.789 207.229H121.116V159.267L116.974 154.779Z" fill="#CCCCCC"/>
<path d="M103.469 158.892H74.9907V207.23H103.469V158.892Z" fill="#F2F2F2"/>
<path d="M91.3266 195.426H86.0807V207.23H91.3266V195.426Z" fill="#CCCCCC"/>
<path d="M80.4239 198.798V196.925H78.1758V198.798H80.2367H80.4239Z" fill="#3F3D56"/>
<path d="M80.2367 200.297H78.1758V202.171H80.4239V200.297H80.2367Z" fill="#3F3D56"/>
<path d="M84.1713 196.925H81.9231V198.799H84.1713V196.925Z" fill="#3F3D56"/>
<path d="M84.1713 200.298H81.9231V202.172H84.1713V200.298Z" fill="#3F3D56"/>
<path d="M95.823 198.798V196.925H93.5748V198.798H95.6357H95.823Z" fill="#3F3D56"/>
<path d="M95.6357 200.297H93.5748V202.171H95.823V200.297H95.6357Z" fill="#3F3D56"/>
<path d="M99.5703 196.925H97.322V198.799H99.5703V196.925Z" fill="#3F3D56"/>
<path d="M99.5703 200.298H97.322V202.172H99.5703V200.298Z" fill="#3F3D56"/>
<path d="M111.561 161.328V159.454H109.312V161.328H111.373H111.561Z" fill="#3F3D56"/>
<path d="M111.373 162.827H109.312V164.7H111.561V162.827H111.373Z" fill="#3F3D56"/>
<path d="M115.308 159.454H113.059V161.328H115.308V159.454Z" fill="#3F3D56"/>
<path d="M115.308 162.827H113.059V164.7H115.308V162.827Z" fill="#3F3D56"/>
<path d="M111.561 171.82V169.946H109.312V171.82H111.373H111.561Z" fill="#3F3D56"/>
<path d="M111.373 173.319H109.312V175.192H111.561V173.319H111.373Z" fill="#3F3D56"/>
<path d="M115.308 169.946H113.059V171.82H115.308V169.946Z" fill="#3F3D56"/>
<path d="M115.308 173.319H113.059V175.192H115.308V173.319Z" fill="#3F3D56"/>
<path d="M111.561 182.312V180.438H109.312V182.312H111.373H111.561Z" fill="#3F3D56"/>
<path d="M111.373 183.811H109.312V185.684H111.561V183.811H111.373Z" fill="#3F3D56"/>
<path d="M115.308 180.438H113.059V182.312H115.308V180.438Z" fill="#3F3D56"/>
<path d="M115.308 183.811H113.059V185.684H115.308V183.811Z" fill="#3F3D56"/>
<path d="M111.561 192.804V190.93H109.312V192.804H111.373H111.561Z" fill="#3F3D56"/>
<path d="M111.373 194.302H109.312V196.176H111.561V194.302H111.373Z" fill="#3F3D56"/>
<path d="M115.308 190.93H113.059V192.804H115.308V190.93Z" fill="#3F3D56"/>
<path d="M115.308 194.302H113.059V196.176H115.308V194.302Z" fill="#3F3D56"/>
<path d="M99.9089 161.328H78.1758V165.825H99.9089V161.328Z" fill="#3F3D56"/>
<path d="M99.9089 170.321H78.1758V174.818H99.9089V170.321Z" fill="#3F3D56"/>
<path d="M99.9089 179.314H78.1758V183.81H99.9089V179.314Z" fill="#3F3D56"/>
<path d="M99.9089 188.307H78.1758V192.803H99.9089V188.307Z" fill="#3F3D56"/>
<path d="M186.399 160.391L184.526 158.892L195.018 149.524H221.622V157.768L204.385 169.384L186.399 160.391Z" fill="#3F3D56"/>
<path d="M226.401 154.779V149.711H222.868V150.952L221.55 149.524L212.932 158.892L209.56 161.14L204.33 199.343L212.216 207.229H230.543V159.267L226.401 154.779Z" fill="#CCCCCC"/>
<path d="M213.004 158.892H184.526V207.23H213.004V158.892Z" fill="#F2F2F2"/>
<path d="M200.754 195.426H195.508V207.23H200.754V195.426Z" fill="#CCCCCC"/>
<path d="M189.887 198.798V196.925H187.639V198.798H189.7H189.887Z" fill="#3F3D56"/>
<path d="M189.7 200.297H187.639V202.171H189.887V200.297H189.7Z" fill="#3F3D56"/>
<path d="M193.634 196.925H191.386V198.799H193.634V196.925Z" fill="#3F3D56"/>
<path d="M193.634 200.298H191.386V202.172H193.634V200.298Z" fill="#3F3D56"/>
<path d="M205.25 198.798V196.925H203.002V198.798H205.063H205.25Z" fill="#3F3D56"/>
<path d="M205.063 200.297H203.002V202.171H205.25V200.297H205.063Z" fill="#3F3D56"/>
<path d="M208.998 196.925H206.749V198.799H208.998V196.925Z" fill="#3F3D56"/>
<path d="M208.998 200.298H206.749V202.172H208.998V200.298Z" fill="#3F3D56"/>
<path d="M220.988 161.328V159.454H218.74V161.328H220.801H220.988Z" fill="#3F3D56"/>
<path d="M220.801 162.827H218.74V164.7H220.988V162.827H220.801Z" fill="#3F3D56"/>
<path d="M224.735 159.454H222.487V161.328H224.735V159.454Z" fill="#3F3D56"/>
<path d="M224.735 162.827H222.487V164.7H224.735V162.827Z" fill="#3F3D56"/>
<path d="M220.988 171.82V169.946H218.74V171.82H220.801H220.988Z" fill="#3F3D56"/>
<path d="M220.801 173.319H218.74V175.192H220.988V173.319H220.801Z" fill="#3F3D56"/>
<path d="M224.735 169.946H222.487V171.82H224.735V169.946Z" fill="#3F3D56"/>
<path d="M224.735 173.319H222.487V175.192H224.735V173.319Z" fill="#3F3D56"/>
<path d="M220.988 182.312V180.438H218.74V182.312H220.801H220.988Z" fill="#3F3D56"/>
<path d="M220.801 183.811H218.74V185.684H220.988V183.811H220.801Z" fill="#3F3D56"/>
<path d="M224.735 180.438H222.487V182.312H224.735V180.438Z" fill="#3F3D56"/>
<path d="M224.735 183.811H222.487V185.684H224.735V183.811Z" fill="#3F3D56"/>
<path d="M220.988 192.804V190.93H218.74V192.804H220.801H220.988Z" fill="#3F3D56"/>
<path d="M220.801 194.302H218.74V196.176H220.988V194.302H220.801Z" fill="#3F3D56"/>
<path d="M224.735 190.93H222.487V192.804H224.735V190.93Z" fill="#3F3D56"/>
<path d="M224.735 194.302H222.487V196.176H224.735V194.302Z" fill="#3F3D56"/>
<path d="M209.372 161.328H187.639V165.825H209.372V161.328Z" fill="#3F3D56"/>
<path d="M209.372 170.321H187.639V174.818H209.372V170.321Z" fill="#3F3D56"/>
<path d="M209.372 179.314H187.639V183.81H209.372V179.314Z" fill="#3F3D56"/>
<path d="M209.372 188.307H187.639V192.803H209.372V188.307Z" fill="#3F3D56"/>
<path d="M246.376 160.391L244.502 158.892L254.994 149.524H281.598V157.768L264.362 169.384L246.376 160.391Z" fill="#3F3D56"/>
<path d="M286.449 154.779V149.711H282.917V150.952L281.598 149.524L272.98 158.892L269.608 161.14L264.379 199.343L272.265 207.229H290.591V159.267L286.449 154.779Z" fill="#CCCCCC"/>
<path d="M272.98 158.892H244.502V207.23H272.98V158.892Z" fill="#F2F2F2"/>
<path d="M260.802 195.426H255.556V207.23H260.802V195.426Z" fill="#CCCCCC"/>
<path d="M249.935 198.798V196.925H247.687V198.798H249.748H249.935Z" fill="#3F3D56"/>
<path d="M249.748 200.297H247.687V202.171H249.935V200.297H249.748Z" fill="#3F3D56"/>
<path d="M253.683 196.925H251.434V198.799H253.683V196.925Z" fill="#3F3D56"/>
<path d="M253.683 200.298H251.434V202.172H253.683V200.298Z" fill="#3F3D56"/>
<path d="M265.298 198.798V196.925H263.05V198.798H265.111H265.298Z" fill="#3F3D56"/>
<path d="M265.111 200.297H263.05V202.171H265.298V200.297H265.111Z" fill="#3F3D56"/>
<path d="M269.045 196.925H266.797V198.799H269.045V196.925Z" fill="#3F3D56"/>
<path d="M269.045 200.298H266.797V202.172H269.045V200.298Z" fill="#3F3D56"/>
<path d="M281.036 161.328V159.454H278.788V161.328H280.849H281.036Z" fill="#3F3D56"/>
<path d="M280.849 162.827H278.788V164.7H281.036V162.827H280.849Z" fill="#3F3D56"/>
<path d="M284.783 159.454H282.535V161.328H284.783V159.454Z" fill="#3F3D56"/>
<path d="M284.783 162.827H282.535V164.7H284.783V162.827Z" fill="#3F3D56"/>
<path d="M281.036 171.82V169.946H278.788V171.82H280.849H281.036Z" fill="#3F3D56"/>
<path d="M280.849 173.319H278.788V175.192H281.036V173.319H280.849Z" fill="#3F3D56"/>
<path d="M284.783 169.946H282.535V171.82H284.783V169.946Z" fill="#3F3D56"/>
<path d="M284.783 173.319H282.535V175.192H284.783V173.319Z" fill="#3F3D56"/>
<path d="M281.036 182.312V180.438H278.788V182.312H280.849H281.036Z" fill="#3F3D56"/>
<path d="M280.849 183.811H278.788V185.684H281.036V183.811H280.849Z" fill="#3F3D56"/>
<path d="M284.783 180.438H282.535V182.312H284.783V180.438Z" fill="#3F3D56"/>
<path d="M284.783 183.811H282.535V185.684H284.783V183.811Z" fill="#3F3D56"/>
<path d="M281.036 192.804V190.93H278.788V192.804H280.849H281.036Z" fill="#3F3D56"/>
<path d="M280.849 194.302H278.788V196.176H281.036V194.302H280.849Z" fill="#3F3D56"/>
<path d="M284.783 190.93H282.535V192.804H284.783V190.93Z" fill="#3F3D56"/>
<path d="M284.783 194.302H282.535V196.176H284.783V194.302Z" fill="#3F3D56"/>
<path d="M269.42 161.328H247.687V165.825H269.42V161.328Z" fill="#3F3D56"/>
<path d="M269.42 170.321H247.687V174.818H269.42V170.321Z" fill="#3F3D56"/>
<path d="M269.42 179.314H247.687V183.81H269.42V179.314Z" fill="#3F3D56"/>
<path d="M269.42 188.307H247.687V192.803H269.42V188.307Z" fill="#3F3D56"/>
<path d="M309.588 207.043H0.654053V207.586H309.588V207.043Z" fill="#3F3D56"/>
<path d="M69.6601 185.578H69.1167V207.043H69.6601V185.578Z" fill="#3F3D56"/>
<path d="M74.6751 188.313C74.7097 195.819 69.429 201.928 69.429 201.928C69.429 201.928 64.0921 195.868 64.0575 188.362C64.0229 180.856 69.3037 174.747 69.3037 174.747C69.3037 174.747 74.6405 180.807 74.6751 188.313Z" fill="#336B68"/>
<path d="M124.038 185.578H123.495V207.043H124.038V185.578Z" fill="#3F3D56"/>
<path d="M129.053 188.313C129.087 195.819 123.807 201.928 123.807 201.928C123.807 201.928 118.47 195.868 118.435 188.362C118.401 180.856 123.681 174.747 123.681 174.747C123.681 174.747 129.018 180.807 129.053 188.313Z" fill="#336B68"/>
<path d="M232.378 185.578H231.835V207.043H232.378V185.578Z" fill="#3F3D56"/>
<path d="M237.393 188.313C237.428 195.819 232.147 201.928 232.147 201.928C232.147 201.928 226.81 195.868 226.776 188.362C226.741 180.856 232.022 174.747 232.022 174.747C232.022 174.747 237.359 180.807 237.393 188.313Z" fill="#336B68"/>
<path d="M160.311 113.572C166.014 113.572 170.636 112.532 170.636 111.249C170.636 109.966 166.014 108.926 160.311 108.926C154.609 108.926 149.986 109.966 149.986 111.249C149.986 112.532 154.609 113.572 160.311 113.572Z" fill="#336B68"/>
<path d="M171.995 78.8159C171.995 85.4186 160.039 104.085 160.039 104.085C160.039 104.085 148.084 85.4186 148.084 78.8159C148.084 75.6452 149.344 72.6043 151.586 70.3623C153.828 68.1202 156.869 66.8607 160.039 66.8607C163.21 66.8607 166.251 68.1202 168.493 70.3623C170.735 72.6043 171.995 75.6452 171.995 78.8159Z" fill="#FF5252"/>
<path d="M160.039 85.6085C163.791 85.6085 166.832 82.5673 166.832 78.8158C166.832 75.0642 163.791 72.023 160.039 72.023C156.288 72.023 153.247 75.0642 153.247 78.8158C153.247 82.5673 156.288 85.6085 160.039 85.6085Z" fill="#F2F2F2"/>
<path opacity="0.05" d="M297.674 164.324C292.639 183.901 280.585 202.255 262.797 211.867C246.808 220.505 226.785 222.067 213.706 234.697C206.533 241.626 202.391 251.095 195.935 258.694C184.781 271.819 167.053 278.422 149.889 278.015C132.724 277.607 116.103 270.654 102.247 260.502C96.7476 256.476 91.5869 251.916 85.5693 248.714C77.689 244.523 68.7434 242.866 60.3218 239.894C37.3392 231.784 17.2789 210.653 17.9314 186.258C18.4344 167.504 30.6681 150.091 29.1059 131.401C28.1947 120.558 22.718 110.713 17.3138 101.281C13.7142 94.9635 9.96594 88.2945 10.0155 81.03C10.0472 75.8098 12.0615 70.7778 14.7594 66.307C23.0399 52.5639 38.3229 43.2913 54.3061 42.3059C66.426 41.5707 78.2994 45.2426 90.3376 46.6971C102.376 48.1517 115.909 46.8365 124.391 38.1426C133.777 28.5103 134.687 12.1455 145.636 4.33083C152.403 -0.501775 161.661 -0.717743 169.524 1.96427C177.388 4.64627 184.07 9.9376 190.231 15.4788C209.193 32.5242 225.29 53.4845 247.87 65.3249C265.183 74.4079 290.202 80.8267 297.254 101.666C303.473 120.104 302.422 145.827 297.674 164.324Z" fill="#336B68"/>
</svg>
