<svg width="68" height="100" viewBox="0 0 68 100" fill="none" xmlns="http://www.w3.org/2000/svg">
<path d="M57.5313 33.1897C56.9461 32.5877 55.9833 32.5732 55.3813 33.1584L35.371 52.5989V14.3748C35.371 13.5425 34.7293 12.8161 33.897 12.7917C33.0364 12.7658 32.3299 13.4562 32.3299 14.3115V67.5838L12.8436 47.5284C12.2585 46.9264 11.2956 46.9127 10.6937 47.4978C10.091 48.083 10.0772 49.0451 10.6624 49.6478L32.3299 71.9478V86.0477C32.3299 86.88 32.9715 87.6056 33.8039 87.6308C34.6645 87.6567 35.371 86.9662 35.371 86.111V56.8385L57.5 35.3396C58.102 34.7545 58.1157 33.7916 57.5313 33.1897V33.1897Z" fill="#8A8A8A"/>
<path d="M26.0263 22.0558C25.638 20.5345 25.4053 18.9331 25.4053 17.2798C25.4053 9.70612 30.2904 3.22418 32.6295 0.553894C33.2765 -0.184631 34.4232 -0.184631 35.0702 0.553894C37.4094 3.22418 42.2952 9.70688 42.2952 17.2798C42.2952 27.2362 33.8503 35.3081 33.8503 35.3081C33.8503 35.3081 31.8796 33.1482 29.5854 29.9622C26.9571 26.313 26.0263 22.0558 26.0263 22.0558Z" fill="#4F4F4F"/>
<path d="M35.07 0.553894C34.4231 -0.184631 33.2764 -0.184631 32.6294 0.553894C32.0427 1.22375 31.295 2.13394 30.5054 3.24097C32.8644 6.54602 35.6049 11.6066 35.6049 17.2798C35.6049 22.921 32.8949 27.9564 30.5443 31.2622C32.4028 33.7212 33.8501 35.3081 33.8501 35.3081C33.8501 35.3081 42.2951 27.2362 42.2951 17.2791C42.2943 9.70688 37.4092 3.22418 35.07 0.553894V0.553894Z" fill="#383838"/>
<path d="M62.8373 23.5531C63.9138 23.3937 64.8575 23.3044 65.6029 23.2556C66.5826 23.1907 67.392 24.0017 67.3279 24.9814C67.0937 28.5237 65.9638 36.5613 60.6087 41.9163C53.5676 48.9567 41.8885 48.6935 41.8885 48.6935C41.8885 48.6935 41.6245 37.0152 48.6657 29.974C50.245 28.3955 52.0386 27.1466 53.9178 26.2547C58.2764 24.1849 62.8373 23.5531 62.8373 23.5531V23.5531Z" fill="#4F4F4F"/>
<path d="M65.6031 23.2556C64.8577 23.3044 63.9139 23.3937 62.8374 23.5524C62.8374 23.5524 60.9186 23.8194 58.3819 24.5701C58.407 24.7029 58.4177 24.8402 58.4086 24.9814C58.1743 28.5229 57.0444 36.5613 51.6894 41.9163C48.8329 44.7728 45.2128 46.4261 41.9192 47.3836C41.8772 48.2113 41.8886 48.6928 41.8886 48.6928C41.8886 48.6928 53.5677 48.9567 60.6089 41.9163C65.9639 36.5613 67.0939 28.5229 67.3281 24.9814C67.3922 24.0017 66.5827 23.1907 65.6031 23.2556V23.2556Z" fill="#383838"/>
<path d="M19.4205 44.4175C26.4617 51.4579 26.1985 63.1362 26.1985 63.1362C26.1985 63.1362 14.5186 63.4002 7.47745 56.359C2.12238 51.0047 0.992468 42.9664 0.759009 39.4248C0.694159 38.4444 1.50516 37.6334 2.48478 37.699C6.0271 37.9325 14.0654 39.0624 19.4205 44.4175V44.4175Z" fill="#4F4F4F"/>
<path d="M19.4206 44.4175C14.0655 39.0624 6.02716 37.9325 2.48483 37.699C1.66238 37.6441 0.961243 38.2071 0.794922 38.9685C4.07098 39.9283 7.6629 41.5793 10.501 44.4175C16.1117 50.0274 17.0844 58.5822 17.2477 61.827C22.0725 63.2293 26.1978 63.137 26.1978 63.137C26.1978 63.137 26.4617 51.4579 19.4206 44.4175V44.4175Z" fill="#383838"/>
<path d="M0.0173519 99.9997C0.0173519 99.9997 -0.8318 92.5763 9.35039 91.5158C15.4249 90.8826 13.5923 82.8191 19.7439 80.9102C26.2831 78.8808 28.1881 85.1079 33.3189 84.5159C38.8342 83.8796 40.7438 80.6981 45.41 81.7586C50.0769 82.8191 49.8854 89.9617 57.2882 90.6667C66.197 91.5151 67.4704 95.5449 67.6825 99.9997H0.0173519Z" fill="#989898"/>
<path d="M57.2884 90.6683C49.8856 89.9626 50.0771 82.8199 45.4102 81.7594C42.6469 81.1315 40.8509 81.9914 38.7002 82.929C41.356 85.2911 42.3654 90.0961 48.3689 90.6683C57.2778 91.5167 58.5511 95.5465 58.7632 100.001H67.6827C67.4706 95.5465 66.1973 91.5167 57.2884 90.6683V90.6683Z" fill="#6F6F6F"/>
<path d="M21.1229 91.4459C23.079 91.4459 23.0829 88.4055 21.1229 88.4055C19.1667 88.4055 19.1629 91.4459 21.1229 91.4459Z" fill="#515151"/>
<path d="M36.8196 95.9006C38.7765 95.9006 38.7796 92.8595 36.8196 92.8595C34.8627 92.8595 34.8596 95.9006 36.8196 95.9006Z" fill="#515151"/>
<path d="M45.0922 90.386C47.0484 90.386 47.0522 87.3457 45.0922 87.3457C43.136 87.3457 43.1322 90.386 45.0922 90.386V90.386Z" fill="#515151"/>
</svg>
