<svg xmlns="http://www.w3.org/2000/svg" width="112" height="165" fill="none"><path fill="#336B68" d="M95.3 54.8c-1-1-2.6-1-3.6 0L58.7 87V23.6c0-1.4-1.2-2.6-2.5-2.6a2.5 2.5 0 00-2.6 2.5v88.3L21.3 78.6a2.5 2.5 0 10-3.6 3.5l35.9 37v23.3c0 1.4 1 2.6 2.4 2.6s2.6-1.1 2.6-2.5V94l36.6-35.6c1-1 1-2.6 0-3.6z"/><path fill="#6E9694" d="M43 36.2c-.6-2.5-1-5.1-1-7.8C42 15.9 50.1 5.3 54 .9c1-1.2 3-1.2 4 0C62 5.3 70 16 70 28.4 70 44.7 56 58 56 58s-3.3-3.5-7-8.8c-4.4-6-6-13-6-13z"/><path fill="#336B68" d="M57.7 1a2.8 2.8 0 00-4.1 0c-1 1-2.3 2.5-3.6 4.3 4 5.5 8.7 13.8 8.7 23 0 9.4-4.6 17.6-8.6 23 3.1 4 5.6 6.7 5.6 6.7S70 44.7 70 28.4C70 15.9 61.7 5.3 57.7.9z"/><path fill="#6E9694" d="M103.6 38.5l4.5-.5c1.7-.1 3 1.3 2.9 3-.4 6-2.3 19.5-11.1 28.5C88.3 81.5 69 81 69 81s-.4-19.7 11.2-31.6c2.6-2.7 5.6-4.8 8.7-6.3 7.2-3.5 14.7-4.6 14.7-4.6z"/><path fill="#336B68" d="M108.1 38c-1.2 0-2.7.2-4.5.5 0 0-3.2.5-7.4 1.7v.7c-.3 6-2.2 19.6-11 28.6A37.2 37.2 0 0169 78.8L69 81s19.3.4 30.9-11.5c8.8-9 10.7-22.6 11-28.6.2-1.6-1.1-3-2.8-2.9z"/><path fill="#6E9694" d="M31.8 73.1C43.4 84.7 43 104 43 104s-19.3.4-30.9-11.2a45 45 0 01-11-28C.8 63.3 2.1 62 3.8 62a45 45 0 0128 11.1z"/><path fill="#336B68" d="M31.8 73.1a45.1 45.1 0 00-28-11c-1.4-.2-2.5.7-2.8 2a37.4 37.4 0 0116 9 45.5 45.5 0 0111.2 28.7c8 2.4 14.8 2.2 14.8 2.2s.4-19.3-11.2-30.9z"/><path fill="#865B19" d="M0 165s-1.4-12.2 15.5-14c10-1 7-14.2 17.2-17.3 10.8-3.4 14 6.9 22.4 5.9 9.2-1 12.3-6.3 20-4.5 7.8 1.7 7.4 13.4 19.7 14.6 14.7 1.4 16.8 8 17.2 15.3H0z"/><path fill="#5A4930" d="M94.8 149.8c-12.3-1.1-12-12.7-19.7-14.5-4.6-1-7.5.4-11.1 2 4.4 3.8 6 11.6 16 12.5 14.8 1.4 16.9 8 17.2 15.2H112c-.4-7.2-2.5-13.8-17.2-15.2z"/><path fill="#C2AB87" d="M35 151.3c3.2 0 3.2-5 0-5-3.3 0-3.3 5 0 5zM61 158.7c3.2 0 3.2-5 0-5-3.3 0-3.3 5 0 5zM74.6 149.6c3.3 0 3.3-5 0-5-3.2 0-3.2 5 0 5z"/></svg>