<svg width="19" height="21" viewBox="0 0 19 21" fill="none" xmlns="http://www.w3.org/2000/svg">
<path d="M18.8481 14.773C18.6657 14.5485 18.3595 14.4654 18.09 14.5621C17.3346 14.8329 16.5152 14.9718 15.6523 14.9718C11.5242 14.9718 8.16641 11.6126 8.16641 7.48588C8.16641 5.00193 9.39274 2.68947 11.4466 1.29846C11.6793 1.14058 11.7909 0.856112 11.7283 0.582537C11.6657 0.308963 11.4411 0.10208 11.1621 0.0612481C10.8436 0.0149718 10.5265 0 10.208 0C4.57864 0 0 4.57863 0 10.208C0 15.8374 4.57864 20.416 10.208 20.416C13.7808 20.416 17.0311 18.6004 18.8998 15.5597C19.0509 15.3134 19.0291 14.999 18.8481 14.773Z" fill="black"/>
</svg>
