<svg width="18" height="20" viewBox="0 0 18 20" fill="none" xmlns="http://www.w3.org/2000/svg">
<path d="M11.4583 12.7695H6.54477C6.14171 12.7695 5.81506 13.0987 5.81506 13.5048V19.9993H7.27452V14.24H10.7283V19.9993H12.1878H12.188V13.5048C12.188 13.0987 11.8613 12.7695 11.4583 12.7695Z" fill="#404040"/>
<path d="M9.48356 0.184817L17.7538 7.56157C17.9104 7.70105 18 7.9015 18 8.11203V19.263C18 19.6691 17.6733 19.9982 17.2703 19.9982H12.3252C11.513 19.9982 10.8547 19.3399 10.8547 18.5278H16.5405V8.44314L8.99998 1.71726L1.45949 8.44314V18.5278H7.28816V19.9982H0.729746C0.326688 19.9982 0 19.6691 0 19.263V8.11203C0 7.9015 0.0895125 7.70101 0.245936 7.56157L8.51617 0.184817C8.79227 -0.0617229 9.20746 -0.0614886 9.48356 0.184817Z" fill="#404040"/>
</svg>
