<svg width="44" height="44" viewBox="0 0 44 44" fill="none" xmlns="http://www.w3.org/2000/svg">
<circle cx="22" cy="22" r="22" fill="white"/>
<path d="M24.852 25.3252H18.9119C18.4247 25.3252 18.0298 25.7201 18.0298 26.2074V34H19.7942V27.0896H23.9695V34H25.7339H25.7342V26.2074C25.7341 25.7201 25.3392 25.3252 24.852 25.3252Z" fill="#336b68"/>
<path d="M22.4649 10.2218L32.463 19.073C32.6523 19.2403 32.7606 19.4808 32.7606 19.7335V33.1132C32.7606 33.6005 32.3657 33.9954 31.8784 33.9954H25.8869C24.9124 33.9954 24.1225 33.2055 24.1225 32.2311H30.9962V20.1307L21.8803 12.0605L12.7644 20.1307V32.2311H19.8108V33.9954H11.8822C11.3949 33.9954 11 33.6005 11 33.1132V19.7335C11 19.4808 11.1082 19.2403 11.2973 19.073L21.2954 10.2218C21.6292 9.92594 22.1311 9.92622 22.4649 10.2218Z" fill="#336b68"/>
</svg>
