<svg width="70" height="92" viewBox="0 0 70 92" fill="none" xmlns="http://www.w3.org/2000/svg">
<path opacity="0.8" d="M4.5543 32.7198L9.62436 82.8966C9.90527 85.0172 20.1559 91.9908 34.9977 92C49.8487 91.9908 60.0993 85.0172 60.3756 82.8966L65.4503 32.7198C57.6955 37.053 46.1049 39.1 34.9977 39.1C23.8997 39.1 12.3045 37.053 4.5543 32.7198ZM49.5862 6.946L45.6306 2.5714C44.1017 0.3956 42.4439 0 39.2158 0H30.7842C27.5607 0 25.8983 0.3956 24.3741 2.5714L20.4184 6.946C8.58365 9.0114 0 14.49 0 18.5334V19.3154C0 26.4316 15.6707 32.2 34.9977 32.2C54.3293 32.2 70 26.4316 70 19.3154V18.5334C70 14.49 61.421 9.0114 49.5862 6.946ZM44.53 19.964L39.6027 13.8H30.3927L25.4746 19.964H17.6462C17.6462 19.964 26.2206 9.7474 27.3673 8.3628C28.2422 7.3048 29.1356 6.9 30.296 6.9H39.704C40.869 6.9 41.7624 7.3048 42.6373 8.3628C43.7794 9.7474 52.3584 19.964 52.3584 19.964H44.53Z" fill="black"/>
</svg>
