<svg xmlns="http://www.w3.org/2000/svg" width="117" height="154" fill="none"><path fill="#404040" d="M7.6 54.7l8.5 83.8c.5 3.6 17.6 15.2 42.4 15.3 24.8 0 42-11.7 42.4-15.3l8.5-83.8c-13 7.2-32.3 10.6-51 10.6C40 65.3 20.7 62 7.7 54.7zm75.3-43l-6.6-7.4C73.7.7 70.9 0 65.5 0h-14C46 0 43.2.7 40.6 4.3l-6.6 7.3C14.3 15.1 0 24.2 0 31v1.3c0 11.9 26.2 21.5 58.5 21.5S117 44.2 117 32.3V31c0-6.8-14.4-16-34.1-19.4zm-8.5 21.7L66.2 23H50.8l-8.2 10.3H29.5L45.7 14c1.5-1.8 3-2.5 5-2.5h15.7c1.9 0 3.4.7 4.9 2.5l16.2 19.4h-13z"/></svg>