<svg width="24" height="24" viewBox="0 0 24 24" fill="none" xmlns="http://www.w3.org/2000/svg">
<path d="M23.4611 20.305L17.7208 14.5641C18.6156 13.0952 19.0877 11.4077 19.0848 9.68765C19.0848 4.4967 14.5871 1.22841e-07 9.3966 1.22841e-07C8.16256 -0.000199433 6.94057 0.242738 5.80044 0.714935C4.6603 1.18713 3.62435 1.87934 2.75175 2.75202C1.87916 3.62469 1.18702 4.66075 0.714867 5.80099C0.242715 6.94124 -0.000199414 8.16334 1.22829e-07 9.39749C1.22829e-07 14.5869 4.49779 19.0851 9.68673 19.0851C11.35 19.0866 12.9835 18.644 14.4184 17.803L20.1892 23.5773C20.4605 23.848 20.8282 24 21.2115 24C21.5947 24 21.9624 23.848 22.2337 23.5773L23.6662 22.1447C24.2297 21.5811 24.0247 20.8686 23.4611 20.305ZM2.89219 9.39749C2.892 8.54311 3.06009 7.69706 3.38688 6.90766C3.71366 6.11826 4.19274 5.40097 4.79675 4.79677C5.40076 4.19256 6.11787 3.71327 6.90712 3.38626C7.69637 3.05926 8.5423 2.89095 9.3966 2.89095C12.9906 2.89095 16.1926 6.09181 16.1926 9.68765C16.1922 11.4132 15.5067 13.0679 14.2867 14.288C13.0667 15.5082 11.4121 16.1938 9.68673 16.1942C6.09275 16.1927 2.89219 12.9903 2.89219 9.39749Z" fill="#686B6F"/>
</svg>
