<svg xmlns="http://www.w3.org/2000/svg" width="24" height="24" fill="none"><path fill="#fff" d="M16.3 7.7A6 6 0 0012 6a6 6 0 00-6 6 6 6 0 0010.3 4.3A6 6 0 0018 12a6 6 0 00-1.7-4.3zM15 15.1a4.4 4.4 0 01-6.2 0A4.4 4.4 0 017.6 12 4.4 4.4 0 0112 7.6a4.4 4.4 0 014.4 4.4c0 1.2-.5 2.3-1.3 3.1zM23.2 11.2h-2.5c-.4 0-.8.4-.8.8s.4.8.8.8h2.5c.4 0 .8-.4.8-.8s-.4-.8-.8-.8zM12 19.9c-.4 0-.8.4-.8.8v2.5c0 .4.4.8.8.8s.8-.4.8-.8v-2.5c0-.4-.4-.8-.8-.8zM20.5 19.3l-1.8-1.7c-.3-.3-.8-.3-1.1 0-.3.3-.3.8 0 1.1l1.7 1.8c.4.3.9.3 1.2 0 .3-.3.3-.8 0-1.2zM12 0c-.4 0-.8.4-.8.8v2.5c0 .4.4.8.8.8s.8-.4.8-.8V.8c0-.4-.4-.8-.8-.8zM20.5 3.5a.8.8 0 00-1.1 0l-1.8 1.8c-.3.3-.3.8 0 1.1.3.3.8.3 1.2 0l1.7-1.7c.3-.4.3-.9 0-1.2zM3.3 11.2H.8c-.4 0-.8.4-.8.8s.3.8.8.8h2.5c.4 0 .8-.4.8-.8s-.4-.8-.8-.8zM6.4 17.6c-.3-.3-.8-.3-1.2 0l-1.7 1.7c-.3.4-.3.9 0 1.2.3.3.8.3 1.1 0l1.8-1.8c.3-.3.3-.8 0-1.1zM6.4 5.3L4.6 3.5a.8.8 0 00-1.1 0c-.3.3-.3.8 0 1.2l1.7 1.7c.4.3.9.3 1.2 0 .3-.3.3-.8 0-1.1z"/></svg>