<svg width="24" height="24" viewBox="0 0 24 24" fill="none" xmlns="http://www.w3.org/2000/svg">
<path d="M16.254 7.74616C15.1746 6.6668 13.6508 5.96838 12 5.96838C10.3492 5.96838 8.82541 6.63505 7.74604 7.74616C6.66667 8.82553 5.96826 10.3493 5.96826 12.0001C5.96826 13.6509 6.66667 15.1747 7.74604 16.2541C8.82541 17.3335 10.3492 18.0319 12 18.0319C13.6508 18.0319 15.1746 17.3652 16.254 16.2541C17.3333 15.1747 18.0318 13.6509 18.0318 12.0001C18.0318 10.3493 17.3651 8.82553 16.254 7.74616ZM15.1111 15.1112C14.3175 15.9049 13.2064 16.3811 12 16.3811C10.7937 16.3811 9.68255 15.9049 8.8889 15.1112C8.09525 14.3176 7.61906 13.2065 7.61906 12.0001C7.61906 10.7938 8.09525 9.68267 8.8889 8.88902C9.68255 8.09537 10.7937 7.61918 12 7.61918C13.2064 7.61918 14.3175 8.09537 15.1111 8.88902C15.9048 9.68267 16.381 10.7938 16.381 12.0001C16.381 13.2065 15.9048 14.3176 15.1111 15.1112Z" fill="white"/>
<path d="M23.1746 11.1747H20.7302C20.2857 11.1747 19.9048 11.5556 19.9048 12.0001C19.9048 12.4445 20.2857 12.8255 20.7302 12.8255H23.1746C23.6191 12.8255 24 12.4445 24 12.0001C24 11.5556 23.6191 11.1747 23.1746 11.1747Z" fill="white"/>
<path d="M12.0002 19.9049C11.5558 19.9049 11.1748 20.2859 11.1748 20.7303V23.1748C11.1748 23.6192 11.5558 24.0001 12.0002 24.0001C12.4446 24.0001 12.8256 23.6192 12.8256 23.1748V20.7303C12.8256 20.2859 12.4446 19.9049 12.0002 19.9049Z" fill="white"/>
<path d="M20.4764 19.3335L18.7303 17.5875C18.4446 17.27 17.9049 17.27 17.5875 17.5875C17.27 17.9049 17.27 18.4129 17.5875 18.7303L19.3335 20.4764C19.651 20.7938 20.1589 20.7938 20.4764 20.4764C20.7938 20.1589 20.7938 19.651 20.4764 19.3335Z" fill="white"/>
<path d="M12.0002 0C11.5558 0 11.1748 0.380953 11.1748 0.825397V3.26984C11.1748 3.71429 11.5558 4.09524 12.0002 4.09524C12.4446 4.09524 12.8256 3.71429 12.8256 3.26984V0.825397C12.8256 0.380953 12.4446 0 12.0002 0Z" fill="white"/>
<path d="M20.5081 3.52398C20.1906 3.20652 19.6827 3.20652 19.3652 3.52398L17.6192 5.27002C17.3017 5.58748 17.3017 6.09541 17.6192 6.41288C17.9049 6.73034 18.4446 6.73034 18.7621 6.41288L20.5081 4.66684C20.8256 4.34938 20.8256 3.84144 20.5081 3.52398Z" fill="white"/>
<path d="M3.26984 11.1747H0.825397C0.380953 11.1747 0 11.5556 0 12.0001C0 12.4445 0.349207 12.8255 0.825397 12.8255H3.26984C3.71429 12.8255 4.09524 12.4445 4.09524 12.0001C4.09524 11.5556 3.71429 11.1747 3.26984 11.1747Z" fill="white"/>
<path d="M6.38114 17.5875C6.09542 17.27 5.55574 17.27 5.23828 17.5875L3.49225 19.3335C3.17479 19.651 3.17479 20.1589 3.49225 20.4764C3.80971 20.7938 4.31764 20.7938 4.6351 20.4764L6.38114 18.7303C6.6986 18.4129 6.6986 17.9049 6.38114 17.5875Z" fill="white"/>
<path d="M6.38114 5.27002L4.6351 3.52398C4.31764 3.20652 3.80971 3.20652 3.49225 3.52398C3.17479 3.84144 3.17479 4.34938 3.49225 4.66684L5.23828 6.41288C5.55574 6.73034 6.06368 6.73034 6.38114 6.41288C6.6986 6.09541 6.6986 5.58748 6.38114 5.27002Z" fill="white"/>
</svg>
