<svg width="333" height="255" viewBox="0 0 333 255" fill="none" xmlns="http://www.w3.org/2000/svg">
<path opacity="0.1" d="M299.325 150.45C294.724 168.343 283.707 185.117 267.449 193.902C252.836 201.797 234.536 203.224 222.583 214.768C216.027 221.1 212.241 229.755 206.341 236.7C196.147 248.695 179.945 254.73 164.257 254.357C148.57 253.985 133.379 247.631 120.715 238.352C115.689 234.673 110.973 230.505 105.473 227.578C98.2707 223.748 90.0949 222.233 82.398 219.517C61.3931 212.105 43.059 192.793 43.6554 170.497C44.1152 153.357 55.2961 137.442 53.8683 120.361C53.0355 110.45 48.0301 101.453 43.0909 92.8323C39.8011 87.0586 36.3754 80.9635 36.4207 74.3241C36.4497 69.5532 38.2907 64.9542 40.7564 60.8681C48.3243 48.3076 62.2922 39.833 76.9 38.9324C87.9769 38.2604 98.8285 41.6164 109.831 42.9457C120.833 44.2751 133.201 43.0731 140.954 35.1274C149.532 26.3239 150.364 11.3674 160.37 4.22523C166.555 -0.191519 175.017 -0.388903 182.203 2.06231C189.39 4.51352 195.497 9.34951 201.128 14.4139C218.458 29.9925 233.17 49.149 253.807 59.9705C269.63 68.2719 292.496 74.1383 298.941 93.1841C304.625 110.036 303.664 133.545 299.325 150.45Z" fill="#D9D9D9"/>
<path d="M42.9384 167.528L42.3695 167.4C48.7131 139.189 64.6551 113.571 87.2588 95.2652C104.348 81.4467 124.673 72.2048 146.32 68.4097C167.967 64.6147 190.223 66.3913 210.994 73.5723C231.765 80.7533 250.366 93.1024 265.047 109.457C279.728 125.811 290.005 145.633 294.91 167.056L294.342 167.185C280.913 108.225 229.239 67.0459 168.679 67.0459C108.912 67.0459 56.0308 109.305 42.9384 167.528Z" fill="#3F3D56"/>
<path d="M257.121 146.081H256.538V169.116H257.121V146.081Z" fill="#3F3D56"/>
<path d="M262.504 149.016C262.541 157.071 256.874 163.627 256.874 163.627C256.874 163.627 251.147 157.124 251.11 149.069C251.072 141.014 256.739 134.458 256.739 134.458C256.739 134.458 262.466 140.962 262.504 149.016Z" fill="#336B68"/>
<path opacity="0.1" d="M262.504 149.016C262.541 157.071 256.874 163.627 256.874 163.627C256.874 163.627 251.147 157.124 251.11 149.069C251.072 141.014 256.739 134.458 256.739 134.458C256.739 134.458 262.466 140.962 262.504 149.016Z" fill="black"/>
<path opacity="0.4" d="M147.015 100.283C152.047 100.283 156.126 96.2039 156.126 91.1719C156.126 86.1398 152.047 82.0605 147.015 82.0605C141.983 82.0605 137.904 86.1398 137.904 91.1719C137.904 96.2039 141.983 100.283 147.015 100.283Z" fill="#336B68"/>
<path opacity="0.4" d="M130.152 101.915C133.682 101.915 136.544 99.0535 136.544 95.5236C136.544 91.9937 133.682 89.1321 130.152 89.1321C126.622 89.1321 123.761 91.9937 123.761 95.5236C123.761 99.0535 126.622 101.915 130.152 101.915Z" fill="#336B68"/>
<path opacity="0.4" d="M61.5783 120.285C65.1082 120.285 67.9698 117.423 67.9698 113.893C67.9698 110.364 65.1082 107.502 61.5783 107.502C58.0483 107.502 55.1868 110.364 55.1868 113.893C55.1868 117.423 58.0483 120.285 61.5783 120.285Z" fill="#336B68"/>
<path opacity="0.4" d="M250.506 99.5339C255.538 99.5339 259.618 95.4546 259.618 90.4226C259.618 85.3905 255.538 81.3113 250.506 81.3113C245.474 81.3113 241.395 85.3905 241.395 90.4226C241.395 95.4546 245.474 99.5339 250.506 99.5339Z" fill="#336B68"/>
<path d="M17.4122 166.554C17.9062 168.38 19.5979 169.511 19.5979 169.511C19.5979 169.511 20.4889 167.682 19.995 165.856C19.5011 164.03 17.8093 162.899 17.8093 162.899C17.8093 162.899 16.9183 164.729 17.4122 166.554Z" fill="#3F3D56"/>
<path d="M18.138 166.162C19.4933 167.481 19.6589 169.51 19.6589 169.51C19.6589 169.51 17.627 169.399 16.2717 168.079C14.9163 166.76 14.7508 164.732 14.7508 164.732C14.7508 164.732 16.7827 164.843 18.138 166.162Z" fill="#336B68"/>
<path d="M195.886 166.554C196.38 168.38 198.072 169.511 198.072 169.511C198.072 169.511 198.963 167.682 198.469 165.856C197.975 164.03 196.284 162.899 196.284 162.899C196.284 162.899 195.393 164.729 195.886 166.554Z" fill="#3F3D56"/>
<path d="M196.612 166.162C197.968 167.481 198.133 169.51 198.133 169.51C198.133 169.51 196.101 169.399 194.746 168.079C193.391 166.76 193.225 164.732 193.225 164.732C193.225 164.732 195.257 164.843 196.612 166.162Z" fill="#336B68"/>
<path d="M20.768 152.83L19.5617 150.82L30.8208 141.169H59.7731V143.983L49.3182 155.243L37.2546 157.655L20.768 152.83Z" fill="#3F3D56"/>
<path d="M64.73 146.832V140.541H60.9395V142.525L59.7463 141.169L50.0956 150.82L48.4869 152.428L46.4764 160.47L50.0956 169.317H68.5926V151.222L64.73 146.832Z" fill="#CCCCCC"/>
<path d="M50.1223 150.82H19.5617V169.317H50.1223V150.82Z" fill="#F2F2F2"/>
<path d="M45.8738 156.65H39.4399V162.28H45.8738V156.65Z" fill="#3F3D56"/>
<path d="M36.8525 156.449H31.223V169.316H36.8525V156.449Z" fill="#CCCCCC"/>
<path d="M24.7888 158.459V156.449H22.3763V158.459H24.5876H24.7888Z" fill="#3F3D56"/>
<path d="M24.5876 160.068H22.3763V162.079H24.7888V160.068H24.5876Z" fill="#3F3D56"/>
<path d="M28.81 156.449H26.3973V158.459H28.81V156.449Z" fill="#3F3D56"/>
<path d="M28.81 160.068H26.3973V162.079H28.81V160.068Z" fill="#3F3D56"/>
<path d="M58.741 158.661V156.65H56.3281V158.661H58.5398H58.741Z" fill="#3F3D56"/>
<path d="M58.5398 160.269H56.3281V162.28H58.741V160.269H58.5398Z" fill="#3F3D56"/>
<path d="M62.762 156.65H60.3494V158.661H62.762V156.65Z" fill="#3F3D56"/>
<path d="M62.762 160.269H60.3494V162.28H62.762V160.269Z" fill="#3F3D56"/>
<path d="M137.135 152.83L135.929 150.82L147.188 141.169H176.14V143.983L165.685 155.243L153.622 157.655L137.135 152.83Z" fill="#3F3D56"/>
<path d="M181.124 146.832V140.541H177.334V142.525L176.14 141.169L166.49 150.82L164.881 152.428L162.87 160.47L166.49 169.317H184.987V151.222L181.124 146.832Z" fill="#CCCCCC"/>
<path d="M166.489 150.82H135.929V169.317H166.489V150.82Z" fill="#F2F2F2"/>
<path d="M162.267 156.65H155.833V162.28H162.267V156.65Z" fill="#3F3D56"/>
<path d="M153.219 156.449H147.59V169.316H153.219V156.449Z" fill="#CCCCCC"/>
<path d="M141.156 158.459V156.449H138.744V158.459H140.955H141.156Z" fill="#3F3D56"/>
<path d="M140.955 160.068H138.744V162.079H141.156V160.068H140.955Z" fill="#3F3D56"/>
<path d="M145.177 156.449H142.765V158.459H145.177V156.449Z" fill="#3F3D56"/>
<path d="M145.177 160.068H142.765V162.079H145.177V160.068Z" fill="#3F3D56"/>
<path d="M175.135 158.661V156.65H172.722V158.661H174.934H175.135Z" fill="#3F3D56"/>
<path d="M174.934 160.269H172.722V162.28H175.135V160.269H174.934Z" fill="#3F3D56"/>
<path d="M179.156 156.65H176.743V158.661H179.156V156.65Z" fill="#3F3D56"/>
<path d="M179.156 160.269H176.743V162.28H179.156V160.269Z" fill="#3F3D56"/>
<path d="M82.6669 119.052L80.6564 117.444L91.9156 107.391H120.465V116.237L101.968 128.703L82.6669 119.052Z" fill="#3F3D56"/>
<path d="M125.723 113.03V107.592H121.933V108.924L120.518 107.391L111.269 117.444L107.651 119.856L102.039 160.854L110.502 169.316H130.169V117.846L125.723 113.03Z" fill="#CCCCCC"/>
<path d="M111.217 117.444H80.6561V169.317H111.217V117.444Z" fill="#F2F2F2"/>
<path d="M98.2008 156.65H92.5712V169.317H98.2008V156.65Z" fill="#CCCCCC"/>
<path d="M86.4868 160.269V158.258H84.0743V160.269H86.2859H86.4868Z" fill="#3F3D56"/>
<path d="M86.2859 161.878H84.0743V163.888H86.4868V161.878H86.2859Z" fill="#3F3D56"/>
<path d="M90.5083 158.258H88.0956V160.269H90.5083V158.258Z" fill="#3F3D56"/>
<path d="M90.5083 161.878H88.0956V163.888H90.5083V161.878Z" fill="#3F3D56"/>
<path d="M103.026 160.269V158.258H100.613V160.269H102.825H103.026Z" fill="#3F3D56"/>
<path d="M102.825 161.878H100.613V163.888H103.026V161.878H102.825Z" fill="#3F3D56"/>
<path d="M107.047 158.258H104.635V160.269H107.047V158.258Z" fill="#3F3D56"/>
<path d="M107.047 161.878H104.635V163.888H107.047V161.878Z" fill="#3F3D56"/>
<path d="M119.915 120.058V118.047H117.502V120.058H119.714H119.915Z" fill="#3F3D56"/>
<path d="M119.714 121.666H117.502V123.676H119.915V121.666H119.714Z" fill="#3F3D56"/>
<path d="M123.936 118.047H121.523V120.058H123.936V118.047Z" fill="#3F3D56"/>
<path d="M123.936 121.666H121.523V123.676H123.936V121.666Z" fill="#3F3D56"/>
<path d="M119.915 131.317V129.306H117.502V131.317H119.714H119.915Z" fill="#3F3D56"/>
<path d="M119.714 132.925H117.502V134.936H119.915V132.925H119.714Z" fill="#3F3D56"/>
<path d="M123.936 129.306H121.523V131.317H123.936V129.306Z" fill="#3F3D56"/>
<path d="M123.936 132.925H121.523V134.935H123.936V132.925Z" fill="#3F3D56"/>
<path d="M119.915 142.576V140.566H117.502V142.576H119.714H119.915Z" fill="#3F3D56"/>
<path d="M119.714 144.185H117.502V146.195H119.915V144.185H119.714Z" fill="#3F3D56"/>
<path d="M123.936 140.566H121.523V142.576H123.936V140.566Z" fill="#3F3D56"/>
<path d="M123.936 144.185H121.523V146.195H123.936V144.185Z" fill="#3F3D56"/>
<path d="M119.915 153.835V151.824H117.502V153.835H119.714H119.915Z" fill="#3F3D56"/>
<path d="M119.714 155.444H117.502V157.454H119.915V155.444H119.714Z" fill="#3F3D56"/>
<path d="M123.936 151.825H121.523V153.836H123.936V151.825Z" fill="#3F3D56"/>
<path d="M123.936 155.444H121.523V157.454H123.936V155.444Z" fill="#3F3D56"/>
<path d="M107.397 120.057H84.0743V124.883H107.397V120.057Z" fill="#3F3D56"/>
<path d="M107.397 129.709H84.0743V134.534H107.397V129.709Z" fill="#3F3D56"/>
<path d="M107.397 139.359H84.0743V144.184H107.397V139.359Z" fill="#3F3D56"/>
<path d="M107.397 149.01H84.0743V153.835H107.397V149.01Z" fill="#3F3D56"/>
<path d="M200.227 119.052L198.216 117.444L209.476 107.391H238.025V116.237L219.528 128.703L200.227 119.052Z" fill="#3F3D56"/>
<path d="M243.126 113.03V107.592H239.335V108.924L237.92 107.391L228.672 117.444L225.053 119.856L219.441 160.854L227.904 169.316H247.571V117.846L243.126 113.03Z" fill="#CCCCCC"/>
<path d="M228.777 117.444H198.216V169.317H228.777V117.444Z" fill="#F2F2F2"/>
<path d="M215.603 156.65H209.974V169.317H215.603V156.65Z" fill="#CCCCCC"/>
<path d="M203.942 160.269V158.258H201.53V160.269H203.741H203.942Z" fill="#3F3D56"/>
<path d="M203.741 161.878H201.53V163.888H203.942V161.878H203.741Z" fill="#3F3D56"/>
<path d="M207.963 158.258H205.55V160.269H207.963V158.258Z" fill="#3F3D56"/>
<path d="M207.963 161.878H205.55V163.888H207.963V161.878Z" fill="#3F3D56"/>
<path d="M220.428 160.269V158.258H218.016V160.269H220.227H220.428Z" fill="#3F3D56"/>
<path d="M220.227 161.878H218.016V163.888H220.428V161.878H220.227Z" fill="#3F3D56"/>
<path d="M224.45 158.258H222.037V160.269H224.45V158.258Z" fill="#3F3D56"/>
<path d="M224.45 161.878H222.037V163.888H224.45V161.878Z" fill="#3F3D56"/>
<path d="M237.317 120.058V118.047H234.905V120.058H237.116H237.317Z" fill="#3F3D56"/>
<path d="M237.116 121.666H234.905V123.676H237.317V121.666H237.116Z" fill="#3F3D56"/>
<path d="M241.338 118.047H238.925V120.058H241.338V118.047Z" fill="#3F3D56"/>
<path d="M241.338 121.666H238.925V123.676H241.338V121.666Z" fill="#3F3D56"/>
<path d="M237.317 131.317V129.306H234.905V131.317H237.116H237.317Z" fill="#3F3D56"/>
<path d="M237.116 132.925H234.905V134.936H237.317V132.925H237.116Z" fill="#3F3D56"/>
<path d="M241.338 129.306H238.925V131.317H241.338V129.306Z" fill="#3F3D56"/>
<path d="M241.338 132.925H238.925V134.935H241.338V132.925Z" fill="#3F3D56"/>
<path d="M237.317 142.576V140.566H234.905V142.576H237.116H237.317Z" fill="#3F3D56"/>
<path d="M237.116 144.185H234.905V146.195H237.317V144.185H237.116Z" fill="#3F3D56"/>
<path d="M241.338 140.566H238.925V142.576H241.338V140.566Z" fill="#3F3D56"/>
<path d="M241.338 144.185H238.925V146.195H241.338V144.185Z" fill="#3F3D56"/>
<path d="M237.317 153.835V151.824H234.905V153.835H237.116H237.317Z" fill="#3F3D56"/>
<path d="M237.116 155.444H234.905V157.454H237.317V155.444H237.116Z" fill="#3F3D56"/>
<path d="M241.338 151.825H238.925V153.836H241.338V151.825Z" fill="#3F3D56"/>
<path d="M241.338 155.444H238.925V157.454H241.338V155.444Z" fill="#3F3D56"/>
<path d="M224.852 120.057H201.53V124.883H224.852V120.057Z" fill="#3F3D56"/>
<path d="M224.852 129.709H201.53V134.534H224.852V129.709Z" fill="#3F3D56"/>
<path d="M224.852 139.359H201.53V144.184H224.852V139.359Z" fill="#3F3D56"/>
<path d="M224.852 149.01H201.53V153.835H224.852V149.01Z" fill="#3F3D56"/>
<path d="M264.561 119.052L262.551 117.444L273.81 107.391H302.36V116.237L283.863 128.703L264.561 119.052Z" fill="#3F3D56"/>
<path d="M307.565 113.03V107.592H303.775V108.924L302.36 107.391L293.111 117.444L289.493 119.856L283.881 160.854L292.344 169.316H312.011V117.846L307.565 113.03Z" fill="#CCCCCC"/>
<path d="M293.111 117.444H262.551V169.317H293.111V117.444Z" fill="#F2F2F2"/>
<path d="M280.043 156.65H274.413V169.317H280.043V156.65Z" fill="#CCCCCC"/>
<path d="M268.381 160.269V158.258H265.969V160.269H268.18H268.381Z" fill="#3F3D56"/>
<path d="M268.18 161.878H265.969V163.888H268.381V161.878H268.18Z" fill="#3F3D56"/>
<path d="M272.403 158.258H269.99V160.269H272.403V158.258Z" fill="#3F3D56"/>
<path d="M272.403 161.878H269.99V163.888H272.403V161.878Z" fill="#3F3D56"/>
<path d="M284.868 160.269V158.258H282.455V160.269H284.667H284.868Z" fill="#3F3D56"/>
<path d="M284.667 161.878H282.455V163.888H284.868V161.878H284.667Z" fill="#3F3D56"/>
<path d="M288.889 158.258H286.477V160.269H288.889V158.258Z" fill="#3F3D56"/>
<path d="M288.889 161.878H286.477V163.888H288.889V161.878Z" fill="#3F3D56"/>
<path d="M301.757 120.058V118.047H299.344V120.058H301.556H301.757Z" fill="#3F3D56"/>
<path d="M301.556 121.666H299.344V123.676H301.757V121.666H301.556Z" fill="#3F3D56"/>
<path d="M305.778 118.047H303.365V120.058H305.778V118.047Z" fill="#3F3D56"/>
<path d="M305.778 121.666H303.365V123.676H305.778V121.666Z" fill="#3F3D56"/>
<path d="M301.757 131.317V129.306H299.344V131.317H301.556H301.757Z" fill="#3F3D56"/>
<path d="M301.556 132.925H299.344V134.936H301.757V132.925H301.556Z" fill="#3F3D56"/>
<path d="M305.778 129.306H303.365V131.317H305.778V129.306Z" fill="#3F3D56"/>
<path d="M305.778 132.925H303.365V134.935H305.778V132.925Z" fill="#3F3D56"/>
<path d="M301.757 142.576V140.566H299.344V142.576H301.556H301.757Z" fill="#3F3D56"/>
<path d="M301.556 144.185H299.344V146.195H301.757V144.185H301.556Z" fill="#3F3D56"/>
<path d="M305.778 140.566H303.365V142.576H305.778V140.566Z" fill="#3F3D56"/>
<path d="M305.778 144.185H303.365V146.195H305.778V144.185Z" fill="#3F3D56"/>
<path d="M301.757 153.835V151.824H299.344V153.835H301.556H301.757Z" fill="#3F3D56"/>
<path d="M301.556 155.444H299.344V157.454H301.757V155.444H301.556Z" fill="#3F3D56"/>
<path d="M305.778 151.825H303.365V153.836H305.778V151.825Z" fill="#3F3D56"/>
<path d="M305.778 155.444H303.365V157.454H305.778V155.444Z" fill="#3F3D56"/>
<path d="M289.291 120.057H265.969V124.883H289.291V120.057Z" fill="#3F3D56"/>
<path d="M289.291 129.709H265.969V134.534H289.291V129.709Z" fill="#3F3D56"/>
<path d="M289.291 139.359H265.969V144.184H289.291V139.359Z" fill="#3F3D56"/>
<path d="M289.291 149.01H265.969V153.835H289.291V149.01Z" fill="#3F3D56"/>
<path d="M332.415 169.115H0.886475V169.699H332.415V169.115Z" fill="#3F3D56"/>
<path d="M74.9359 146.081H74.3527V169.116H74.9359V146.081Z" fill="#3F3D56"/>
<path d="M80.3173 149.016C80.3545 157.071 74.6875 163.627 74.6875 163.627C74.6875 163.627 68.9604 157.124 68.9233 149.069C68.8862 141.014 74.5531 134.458 74.5531 134.458C74.5531 134.458 80.2802 140.962 80.3173 149.016Z" fill="#336B68"/>
<path d="M133.305 146.081H132.721V169.116H133.305V146.081Z" fill="#3F3D56"/>
<path d="M138.686 149.016C138.723 157.071 133.056 163.627 133.056 163.627C133.056 163.627 127.329 157.124 127.292 149.069C127.255 141.014 132.922 134.458 132.922 134.458C132.922 134.458 138.649 140.962 138.686 149.016Z" fill="#336B68"/>
<path d="M249.54 146.081H248.957V169.116H249.54V146.081Z" fill="#3F3D56"/>
<path d="M254.922 149.016C254.959 157.071 249.293 163.627 249.293 163.627C249.293 163.627 243.565 157.124 243.528 149.069C243.491 141.014 249.158 134.458 249.158 134.458C249.158 134.458 254.885 140.962 254.922 149.016Z" fill="#336B68"/>
<path d="M172.23 68.8103C178.35 68.8103 183.311 67.6941 183.311 66.3172C183.311 64.9404 178.35 63.8242 172.23 63.8242C166.111 63.8242 161.15 64.9404 161.15 66.3172C161.15 67.6941 166.111 68.8103 172.23 68.8103Z" fill="#336B68"/>
<path d="M184.769 31.5251C184.769 38.6107 171.939 58.6422 171.939 58.6422C171.939 58.6422 159.109 38.6107 159.109 31.5251C159.109 28.1225 160.461 24.8593 162.867 22.4533C165.273 20.0472 168.536 18.6956 171.939 18.6956C175.342 18.6956 178.605 20.0472 181.011 22.4533C183.417 24.8593 184.769 28.1225 184.769 31.5251Z" fill="#FF5252"/>
<path d="M171.939 38.8143C175.965 38.8143 179.228 35.5507 179.228 31.5248C179.228 27.4989 175.965 24.2352 171.939 24.2352C167.913 24.2352 164.649 27.4989 164.649 31.5248C164.649 35.5507 167.913 38.8143 171.939 38.8143Z" fill="#2E2E2E"/>
</svg>
