<svg width="370" height="389" viewBox="0 0 370 389" fill="none" xmlns="http://www.w3.org/2000/svg">
<path d="M71.8434 260.564L71.3132 260.445C77.2245 234.156 92.0801 210.284 113.143 193.226C129.068 180.349 148.008 171.737 168.179 168.2C188.351 164.664 209.091 166.32 228.446 173.011C247.801 179.703 265.135 191.21 278.815 206.45C292.495 221.69 302.072 240.161 306.643 260.124L306.113 260.244C293.6 205.302 245.447 166.93 189.014 166.93C133.321 166.93 84.0435 206.308 71.8434 260.564Z" fill="#3F3D56"/>
<path d="M271.443 240.578H270.899V262.043H271.443V240.578Z" fill="#3F3D56"/>
<path d="M276.458 243.313C276.492 250.819 271.212 256.928 271.212 256.928C271.212 256.928 265.875 250.868 265.84 243.362C265.806 235.856 271.086 229.747 271.086 229.747C271.086 229.747 276.423 235.807 276.458 243.313Z" fill="#336B68"/>
<path opacity="0.1" d="M276.458 243.313C276.492 250.819 271.212 256.928 271.212 256.928C271.212 256.928 265.875 250.868 265.84 243.362C265.806 235.856 271.086 229.747 271.086 229.747C271.086 229.747 276.423 235.807 276.458 243.313Z" fill="black"/>
<path opacity="0.4" d="M168.814 197.901C173.503 197.901 177.304 194.099 177.304 189.41C177.304 184.721 173.503 180.92 168.814 180.92C164.125 180.92 160.324 184.721 160.324 189.41C160.324 194.099 164.125 197.901 168.814 197.901Z" fill="#336B68"/>
<path opacity="0.4" d="M153.101 199.422C156.39 199.422 159.057 196.755 159.057 193.466C159.057 190.176 156.39 187.51 153.101 187.51C149.811 187.51 147.145 190.176 147.145 193.466C147.145 196.755 149.811 199.422 153.101 199.422Z" fill="#336B68"/>
<path opacity="0.4" d="M89.2128 216.539C92.5021 216.539 95.1687 213.872 95.1687 210.583C95.1687 207.294 92.5021 204.627 89.2128 204.627C85.9234 204.627 83.2568 207.294 83.2568 210.583C83.2568 213.872 85.9234 216.539 89.2128 216.539Z" fill="#336B68"/>
<path opacity="0.4" d="M265.278 197.202C269.967 197.202 273.769 193.401 273.769 188.712C273.769 184.023 269.967 180.222 265.278 180.222C260.589 180.222 256.788 184.023 256.788 188.712C256.788 193.401 260.589 197.202 265.278 197.202Z" fill="#336B68"/>
<path d="M48.0502 259.656C48.5105 261.358 50.087 262.411 50.087 262.411C50.087 262.411 50.9173 260.707 50.457 259.005C49.9968 257.304 48.4203 256.25 48.4203 256.25C48.4203 256.25 47.59 257.955 48.0502 259.656Z" fill="#3F3D56"/>
<path d="M48.7267 259.291C49.9897 260.52 50.1439 262.41 50.1439 262.41C50.1439 262.41 48.2505 262.307 46.9876 261.077C45.7246 259.848 45.5703 257.958 45.5703 257.958C45.5703 257.958 47.4637 258.061 48.7267 259.291Z" fill="#336B68"/>
<path d="M214.355 259.656C214.815 261.358 216.392 262.411 216.392 262.411C216.392 262.411 217.222 260.707 216.762 259.005C216.302 257.304 214.725 256.25 214.725 256.25C214.725 256.25 213.895 257.955 214.355 259.656Z" fill="#3F3D56"/>
<path d="M215.031 259.291C216.294 260.52 216.449 262.41 216.449 262.41C216.449 262.41 214.555 262.307 213.292 261.077C212.029 259.848 211.875 257.958 211.875 257.958C211.875 257.958 213.769 258.061 215.031 259.291Z" fill="#336B68"/>
<path d="M51.1773 246.867L50.0532 244.994L60.545 236.001H87.5242V238.624L77.7818 249.116L66.5403 251.364L51.1773 246.867Z" fill="#3F3D56"/>
<path d="M92.1499 241.278V235.415H88.6176V237.264L87.5058 236L78.5127 244.993L77.0137 246.492L75.1403 253.986L78.5127 262.23H95.7492V245.368L92.1499 241.278Z" fill="#CCCCCC"/>
<path d="M78.5311 244.993H50.0532V262.23H78.5311V244.993Z" fill="#F2F2F2"/>
<path d="M74.5788 250.427H68.5835V255.673H74.5788V250.427Z" fill="#3F3D56"/>
<path d="M66.1657 250.239H60.9198V262.23H66.1657V250.239Z" fill="#CCCCCC"/>
<path d="M54.9242 252.113V250.239H52.676V252.113H54.7367H54.9242Z" fill="#3F3D56"/>
<path d="M54.7367 253.611H52.676V255.485H54.9242V253.611H54.7367Z" fill="#3F3D56"/>
<path d="M58.6713 250.239H56.4231V252.113H58.6713V250.239Z" fill="#3F3D56"/>
<path d="M58.6713 253.611H56.4231V255.485H58.6713V253.611Z" fill="#3F3D56"/>
<path d="M86.569 252.3V250.427H84.3206V252.3H86.3815H86.569Z" fill="#3F3D56"/>
<path d="M86.3815 253.799H84.3206V255.672H86.569V253.799H86.3815Z" fill="#3F3D56"/>
<path d="M90.316 250.427H88.0677V252.3H90.316V250.427Z" fill="#3F3D56"/>
<path d="M90.316 253.799H88.0677V255.672H90.316V253.799Z" fill="#3F3D56"/>
<path d="M159.607 246.867L158.483 244.994L168.975 236.001H195.954V238.624L186.212 249.116L174.97 251.364L159.607 246.867Z" fill="#3F3D56"/>
<path d="M200.599 241.278V235.415H197.066V237.264L195.955 236L186.961 244.993L185.462 246.492L183.589 253.986L186.961 262.23H204.198V245.368L200.599 241.278Z" fill="#CCCCCC"/>
<path d="M186.961 244.993H158.483V262.23H186.961V244.993Z" fill="#F2F2F2"/>
<path d="M183.027 250.427H177.031V255.673H183.027V250.427Z" fill="#3F3D56"/>
<path d="M174.596 250.239H169.35V262.23H174.596V250.239Z" fill="#CCCCCC"/>
<path d="M163.355 252.113V250.239H161.106V252.113H163.167H163.355Z" fill="#3F3D56"/>
<path d="M163.167 253.611H161.106V255.485H163.355V253.611H163.167Z" fill="#3F3D56"/>
<path d="M167.102 250.239H164.853V252.113H167.102V250.239Z" fill="#3F3D56"/>
<path d="M167.102 253.611H164.853V255.485H167.102V253.611Z" fill="#3F3D56"/>
<path d="M195.017 252.3V250.427H192.769V252.3H194.83H195.017Z" fill="#3F3D56"/>
<path d="M194.83 253.799H192.769V255.672H195.017V253.799H194.83Z" fill="#3F3D56"/>
<path d="M198.764 250.427H196.516V252.3H198.764V250.427Z" fill="#3F3D56"/>
<path d="M198.764 253.799H196.516V255.672H198.764V253.799Z" fill="#3F3D56"/>
<path d="M108.864 215.391L106.991 213.892L117.483 204.524H144.087V212.768L126.851 224.384L108.864 215.391Z" fill="#3F3D56"/>
<path d="M148.974 209.779V204.712H145.441V205.953L144.123 204.524L135.505 213.892L132.132 216.141L126.903 254.344L134.789 262.23H153.116V214.267L148.974 209.779Z" fill="#CCCCCC"/>
<path d="M135.469 213.893H106.991V262.23H135.469V213.893Z" fill="#F2F2F2"/>
<path d="M123.327 250.427H118.081V262.23H123.327V250.427Z" fill="#CCCCCC"/>
<path d="M112.424 253.798V251.925H110.176V253.798H112.237H112.424Z" fill="#3F3D56"/>
<path d="M112.237 255.297H110.176V257.171H112.424V255.297H112.237Z" fill="#3F3D56"/>
<path d="M116.171 251.925H113.923V253.798H116.171V251.925Z" fill="#3F3D56"/>
<path d="M116.171 255.298H113.923V257.171H116.171V255.298Z" fill="#3F3D56"/>
<path d="M127.823 253.798V251.925H125.575V253.798H127.636H127.823Z" fill="#3F3D56"/>
<path d="M127.636 255.297H125.575V257.171H127.823V255.297H127.636Z" fill="#3F3D56"/>
<path d="M131.57 251.925H129.322V253.798H131.57V251.925Z" fill="#3F3D56"/>
<path d="M131.57 255.298H129.322V257.171H131.57V255.298Z" fill="#3F3D56"/>
<path d="M143.561 216.328V214.454H141.312V216.328H143.373H143.561Z" fill="#3F3D56"/>
<path d="M143.373 217.827H141.312V219.701H143.561V217.827H143.373Z" fill="#3F3D56"/>
<path d="M147.308 214.454H145.059V216.328H147.308V214.454Z" fill="#3F3D56"/>
<path d="M147.308 217.827H145.059V219.701H147.308V217.827Z" fill="#3F3D56"/>
<path d="M143.561 226.82V224.946H141.312V226.82H143.373H143.561Z" fill="#3F3D56"/>
<path d="M143.373 228.318H141.312V230.192H143.561V228.318H143.373Z" fill="#3F3D56"/>
<path d="M147.308 224.946H145.059V226.82H147.308V224.946Z" fill="#3F3D56"/>
<path d="M147.308 228.318H145.059V230.192H147.308V228.318Z" fill="#3F3D56"/>
<path d="M143.561 237.312V235.438H141.312V237.312H143.373H143.561Z" fill="#3F3D56"/>
<path d="M143.373 238.811H141.312V240.684H143.561V238.811H143.373Z" fill="#3F3D56"/>
<path d="M147.308 235.438H145.059V237.312H147.308V235.438Z" fill="#3F3D56"/>
<path d="M147.308 238.811H145.059V240.684H147.308V238.811Z" fill="#3F3D56"/>
<path d="M143.561 247.803V245.93H141.312V247.803H143.373H143.561Z" fill="#3F3D56"/>
<path d="M143.373 249.303H141.312V251.176H143.561V249.303H143.373Z" fill="#3F3D56"/>
<path d="M147.308 245.93H145.059V247.803H147.308V245.93Z" fill="#3F3D56"/>
<path d="M147.308 249.303H145.059V251.176H147.308V249.303Z" fill="#3F3D56"/>
<path d="M131.909 216.328H110.176V220.825H131.909V216.328Z" fill="#3F3D56"/>
<path d="M131.909 225.321H110.176V229.818H131.909V225.321Z" fill="#3F3D56"/>
<path d="M131.909 234.313H110.176V238.81H131.909V234.313Z" fill="#3F3D56"/>
<path d="M131.909 243.307H110.176V247.803H131.909V243.307Z" fill="#3F3D56"/>
<path d="M218.399 215.391L216.526 213.892L227.018 204.524H253.622V212.768L236.385 224.384L218.399 215.391Z" fill="#3F3D56"/>
<path d="M258.401 209.779V204.712H254.868V205.953L253.55 204.524L244.932 213.892L241.56 216.141L236.33 254.344L244.216 262.23H262.543V214.267L258.401 209.779Z" fill="#CCCCCC"/>
<path d="M245.004 213.893H216.526V262.23H245.004V213.893Z" fill="#F2F2F2"/>
<path d="M232.754 250.427H227.508V262.23H232.754V250.427Z" fill="#CCCCCC"/>
<path d="M221.887 253.798V251.925H219.639V253.798H221.7H221.887Z" fill="#3F3D56"/>
<path d="M221.7 255.297H219.639V257.171H221.887V255.297H221.7Z" fill="#3F3D56"/>
<path d="M225.634 251.925H223.386V253.798H225.634V251.925Z" fill="#3F3D56"/>
<path d="M225.634 255.298H223.386V257.171H225.634V255.298Z" fill="#3F3D56"/>
<path d="M237.25 253.798V251.925H235.002V253.798H237.063H237.25Z" fill="#3F3D56"/>
<path d="M237.063 255.297H235.002V257.171H237.25V255.297H237.063Z" fill="#3F3D56"/>
<path d="M240.998 251.925H238.749V253.798H240.998V251.925Z" fill="#3F3D56"/>
<path d="M240.998 255.298H238.749V257.171H240.998V255.298Z" fill="#3F3D56"/>
<path d="M252.988 216.328V214.454H250.74V216.328H252.801H252.988Z" fill="#3F3D56"/>
<path d="M252.801 217.827H250.74V219.701H252.988V217.827H252.801Z" fill="#3F3D56"/>
<path d="M256.735 214.454H254.487V216.328H256.735V214.454Z" fill="#3F3D56"/>
<path d="M256.735 217.827H254.487V219.701H256.735V217.827Z" fill="#3F3D56"/>
<path d="M252.988 226.82V224.946H250.74V226.82H252.801H252.988Z" fill="#3F3D56"/>
<path d="M252.801 228.318H250.74V230.192H252.988V228.318H252.801Z" fill="#3F3D56"/>
<path d="M256.735 224.946H254.487V226.82H256.735V224.946Z" fill="#3F3D56"/>
<path d="M256.735 228.318H254.487V230.192H256.735V228.318Z" fill="#3F3D56"/>
<path d="M252.988 237.312V235.438H250.74V237.312H252.801H252.988Z" fill="#3F3D56"/>
<path d="M252.801 238.811H250.74V240.684H252.988V238.811H252.801Z" fill="#3F3D56"/>
<path d="M256.735 235.438H254.487V237.312H256.735V235.438Z" fill="#3F3D56"/>
<path d="M256.735 238.811H254.487V240.684H256.735V238.811Z" fill="#3F3D56"/>
<path d="M252.988 247.803V245.93H250.74V247.803H252.801H252.988Z" fill="#3F3D56"/>
<path d="M252.801 249.303H250.74V251.176H252.988V249.303H252.801Z" fill="#3F3D56"/>
<path d="M256.735 245.93H254.487V247.803H256.735V245.93Z" fill="#3F3D56"/>
<path d="M256.735 249.303H254.487V251.176H256.735V249.303Z" fill="#3F3D56"/>
<path d="M241.372 216.328H219.639V220.825H241.372V216.328Z" fill="#3F3D56"/>
<path d="M241.372 225.321H219.639V229.818H241.372V225.321Z" fill="#3F3D56"/>
<path d="M241.372 234.313H219.639V238.81H241.372V234.313Z" fill="#3F3D56"/>
<path d="M241.372 243.307H219.639V247.803H241.372V243.307Z" fill="#3F3D56"/>
<path d="M278.376 215.391L276.502 213.892L286.994 204.524H313.598V212.768L296.362 224.384L278.376 215.391Z" fill="#3F3D56"/>
<path d="M318.449 209.779V204.712H314.916V205.953L313.598 204.524L304.98 213.892L301.608 216.141L296.379 254.344L304.264 262.23H322.591V214.267L318.449 209.779Z" fill="#CCCCCC"/>
<path d="M304.98 213.893H276.502V262.23H304.98V213.893Z" fill="#F2F2F2"/>
<path d="M292.802 250.427H287.556V262.23H292.802V250.427Z" fill="#CCCCCC"/>
<path d="M281.935 253.798V251.925H279.687V253.798H281.748H281.935Z" fill="#3F3D56"/>
<path d="M281.748 255.297H279.687V257.171H281.935V255.297H281.748Z" fill="#3F3D56"/>
<path d="M285.683 251.925H283.434V253.798H285.683V251.925Z" fill="#3F3D56"/>
<path d="M285.683 255.298H283.434V257.171H285.683V255.298Z" fill="#3F3D56"/>
<path d="M297.298 253.798V251.925H295.05V253.798H297.111H297.298Z" fill="#3F3D56"/>
<path d="M297.111 255.297H295.05V257.171H297.298V255.297H297.111Z" fill="#3F3D56"/>
<path d="M301.045 251.925H298.797V253.798H301.045V251.925Z" fill="#3F3D56"/>
<path d="M301.045 255.298H298.797V257.171H301.045V255.298Z" fill="#3F3D56"/>
<path d="M313.036 216.328V214.454H310.788V216.328H312.849H313.036Z" fill="#3F3D56"/>
<path d="M312.849 217.827H310.788V219.701H313.036V217.827H312.849Z" fill="#3F3D56"/>
<path d="M316.783 214.454H314.535V216.328H316.783V214.454Z" fill="#3F3D56"/>
<path d="M316.783 217.827H314.535V219.701H316.783V217.827Z" fill="#3F3D56"/>
<path d="M313.036 226.82V224.946H310.788V226.82H312.849H313.036Z" fill="#3F3D56"/>
<path d="M312.849 228.318H310.788V230.192H313.036V228.318H312.849Z" fill="#3F3D56"/>
<path d="M316.783 224.946H314.535V226.82H316.783V224.946Z" fill="#3F3D56"/>
<path d="M316.783 228.318H314.535V230.192H316.783V228.318Z" fill="#3F3D56"/>
<path d="M313.036 237.312V235.438H310.788V237.312H312.849H313.036Z" fill="#3F3D56"/>
<path d="M312.849 238.811H310.788V240.684H313.036V238.811H312.849Z" fill="#3F3D56"/>
<path d="M316.783 235.438H314.535V237.312H316.783V235.438Z" fill="#3F3D56"/>
<path d="M316.783 238.811H314.535V240.684H316.783V238.811Z" fill="#3F3D56"/>
<path d="M313.036 247.803V245.93H310.788V247.803H312.849H313.036Z" fill="#3F3D56"/>
<path d="M312.849 249.303H310.788V251.176H313.036V249.303H312.849Z" fill="#3F3D56"/>
<path d="M316.783 245.93H314.535V247.803H316.783V245.93Z" fill="#3F3D56"/>
<path d="M316.783 249.303H314.535V251.176H316.783V249.303Z" fill="#3F3D56"/>
<path d="M301.42 216.328H279.687V220.825H301.42V216.328Z" fill="#3F3D56"/>
<path d="M301.42 225.321H279.687V229.818H301.42V225.321Z" fill="#3F3D56"/>
<path d="M301.42 234.313H279.687V238.81H301.42V234.313Z" fill="#3F3D56"/>
<path d="M301.42 243.307H279.687V247.803H301.42V243.307Z" fill="#3F3D56"/>
<path d="M341.588 262.043H32.6541V262.586H341.588V262.043Z" fill="#3F3D56"/>
<path d="M101.66 240.578H101.117V262.043H101.66V240.578Z" fill="#3F3D56"/>
<path d="M106.675 243.313C106.71 250.819 101.429 256.928 101.429 256.928C101.429 256.928 96.0921 250.868 96.0575 243.362C96.0229 235.856 101.304 229.747 101.304 229.747C101.304 229.747 106.641 235.807 106.675 243.313Z" fill="#336B68"/>
<path d="M156.038 240.578H155.495V262.043H156.038V240.578Z" fill="#3F3D56"/>
<path d="M161.053 243.313C161.087 250.819 155.807 256.928 155.807 256.928C155.807 256.928 150.47 250.868 150.435 243.362C150.401 235.856 155.681 229.747 155.681 229.747C155.681 229.747 161.018 235.807 161.053 243.313Z" fill="#336B68"/>
<path d="M264.378 240.578H263.835V262.043H264.378V240.578Z" fill="#3F3D56"/>
<path d="M269.393 243.313C269.428 250.819 264.147 256.928 264.147 256.928C264.147 256.928 258.81 250.868 258.776 243.362C258.741 235.856 264.022 229.747 264.022 229.747C264.022 229.747 269.359 235.807 269.393 243.313Z" fill="#336B68"/>
<path d="M192.311 168.572C198.014 168.572 202.636 167.532 202.636 166.249C202.636 164.966 198.014 163.926 192.311 163.926C186.609 163.926 181.986 164.966 181.986 166.249C181.986 167.532 186.609 168.572 192.311 168.572Z" fill="#336B68"/>
<path d="M203.995 133.816C203.995 140.418 192.039 159.085 192.039 159.085C192.039 159.085 180.084 140.418 180.084 133.816C180.084 130.645 181.344 127.604 183.586 125.362C185.828 123.12 188.869 121.86 192.039 121.86C195.21 121.86 198.251 123.12 200.493 125.362C202.735 127.604 203.995 130.645 203.995 133.816Z" fill="#FF5252"/>
<path d="M192.039 140.609C195.791 140.609 198.832 137.568 198.832 133.816C198.832 130.065 195.791 127.023 192.039 127.023C188.288 127.023 185.247 130.065 185.247 133.816C185.247 137.568 188.288 140.609 192.039 140.609Z" fill="#F2F2F2"/>
<path opacity="0.05" d="M329.674 219.324C324.639 238.901 312.585 257.255 294.797 266.866C278.808 275.505 258.785 277.067 245.706 289.697C238.533 296.626 234.391 306.095 227.935 313.694C216.781 326.819 199.053 333.422 181.889 333.015C164.724 332.607 148.103 325.654 134.247 315.502C128.748 311.476 123.587 306.916 117.569 303.714C109.689 299.523 100.743 297.866 92.3219 294.894C69.3393 286.784 49.2789 265.653 49.9314 241.258C50.4345 222.504 62.6681 205.091 61.1059 186.401C60.1947 175.558 54.718 165.713 49.3138 156.281C45.7142 149.963 41.966 143.294 42.0155 136.03C42.0472 130.81 44.0615 125.778 46.7594 121.307C55.04 107.564 70.3229 98.2913 86.3062 97.3059C98.4261 96.5707 110.299 100.243 122.338 101.697C134.376 103.152 147.909 101.836 156.391 93.1427C165.777 83.5103 166.687 67.1455 177.636 59.3308C184.403 54.4982 193.661 54.2822 201.525 56.9643C209.388 59.6463 216.07 64.9376 222.231 70.4788C241.193 87.5242 257.29 108.485 279.87 120.325C297.183 129.408 322.202 135.827 329.254 156.666C335.473 175.104 334.422 200.827 329.674 219.324Z" fill="#336B68"/>
</svg>
