<svg xmlns="http://www.w3.org/2000/svg" width="274" height="178" fill="none"><g clip-path="url(#clip0)"><path fill="#336B68" d="M92.3 177.6H12s-1.7-23.9 8-24.1c9.6-.3 8.5 10.5 20.6-4.4 12-15 26.7-14.1 28.6-5.3 2 8.8-3.6 15.9 6.5 13.7 10.2-2.1 24.9 3.6 16.6 20.1z"/><path fill="#F2F2F2" d="M50.8 177.6h-.3c.6-15.7 4-25.8 6.6-31.5 2.9-6.2 5.6-8.7 5.7-8.8l.1.2s-2.7 2.5-5.6 8.7c-2.6 5.7-5.9 15.7-6.5 31.4zM79.9 177.6h-.3a42 42 0 0110.6-17.7l.2.2c-.1.1-7.4 6.9-10.5 17.5zM24.6 177.6h-.3c1.1-7.7-.8-13.6-2.6-17.3-2-4-4.2-6-4.2-6.1l.2-.2s2.3 2.2 4.2 6.2c1.8 3.7 3.8 9.7 2.7 17.4z"/><path fill="#336B68" fill-opacity=".2" d="M103.2 178H3.2v-.4c0-.8-1.3-20.7 5.2-27.8a7 7 0 015.1-2.4c4.2-.1 6.9 1.4 9 2.7 4 2.4 6.6 4 16.3-8 10.4-12.8 21.6-15.6 28.1-14 4.2 1 7 3.7 8 7.6.7 3.8.4 7.2.2 10-.2 3-.3 5.4.9 6.5 1 .9 3 1 6.4.2 6.9-1.4 16.5-.2 21.3 6 2.5 3.3 4.6 9.4-.4 19.4l-.1.2zM4 177.2h98.8c3.7-7.5 3.8-13.8.3-18.3-4.4-5.7-13.7-7.2-20.5-5.8-3.7.8-5.9.7-7-.4-1.6-1.3-1.4-3.8-1.2-7 .2-2.8.5-6.2-.3-9.8a9.3 9.3 0 00-7.4-7.2c-6.2-1.5-17.2 1.3-27.4 13.9-10 12.4-13 10.6-17.2 8.1a14.6 14.6 0 00-8.6-2.6c-1.7 0-3.3.8-4.6 2.2-5.8 6.4-5 24.3-5 27z"/><path fill="#F2F2F2" d="M202 126.8l-29.1-5a50.6 50.6 0 005.5-32l29 5.1c-4.5 10-6.4 21-5.5 31.9z"/><path fill="#3F3D56" d="M199.5 99.5l-15.1-2.6-.1.7 15 2.6.2-.7zM199 102.3l-15-2.6-.2.7 15 2.6.2-.7zM198.5 105l-15-2.5-.2.7 15 2.6.2-.7zM198 107.9l-15-2.6-.2.7 15 2.6.2-.7zM197.5 110.7l-15-2.6-.2.7 15 2.6.2-.7zM197 113.5l-15-2.6-.2.7 15.1 2.6.1-.7zM196.5 116.3l-15-2.6-.1.7 15 2.6.1-.7zM196 119.1l-15-2.6-.1.7 15 2.6.1-.7z"/><path fill="#F2F2F2" d="M214.9 137l-29.1-5a50.6 50.6 0 005.5-31.9l29.1 5c-4.5 10-6.4 21-5.5 32z"/><path fill="#3F3D56" d="M212.4 109.7l-15-2.6-.2.7 15 2.6.2-.7zM212 112.5l-15.1-2.6-.2.7 15 2.6.2-.7zM211.4 115.3l-15-2.6-.2.7 15.1 2.6.1-.7zM211 118.1l-15.1-2.6-.1.7 15 2.6.1-.7zM210.5 121l-15.1-2.7-.1.7 15 2.6.2-.7zM210 123.7l-15-2.6-.2.7 15 2.6.2-.7zM209.5 126.5l-15-2.6-.2.7 15 2.6.2-.7zM209 129.3l-15-2.6-.2.7 15 2.6.2-.7z"/><path fill="#3F3D56" d="M222.8 177.6h-51.9v-.3l-2.4-70.8h56.8l-2.5 71zm-51.3-.6h50.7l2.5-70H169l2.4 70z"/><path fill="#404040" d="M220 173.8h-46.2l-2.2-63.5h50.6l-2.2 63.5z"/><g fill="#fff" opacity=".2"><path d="M183.3 119.6h-4v48.8h4v-48.8zM198.8 119.6H195v48.8h4v-48.8zM214.4 119.6h-4v48.8h4v-48.8z" opacity=".2"/></g><path fill="#404040" d="M197.7 78.9l-5.2 8.3 64.1 40.6 5.3-8.3-64.2-40.6z"/><path fill="#404040" d="M236.4 88.9a11.6 11.6 0 00-17.7 11.4l3 2a9.1 9.1 0 118.8 5.5l3 2a11.6 11.6 0 002.9-21z"/><path fill="#3F3D56" d="M273.7 177.2H0v.6h273.7v-.6z"/><path fill="#FFB8B8" d="M144.5 74.8s11.7 8.7 7 10.2c-4.9 1.6-11-5-10.6-6.9.3-1.8 3.6-3.3 3.6-3.3z"/><path fill="#336B68" d="M134.3 63.7l12 11.1-4.8 5.1-8.1-6 .9-10.2zM161.2 109.4l-24.8-16c9-7.8 15.3-16.7 17.5-27.1l24.8 15.9c-8 7.4-14 16.8-17.5 27.2z"/><path fill="#D9D9D9" d="M169.5 83.3L156.7 75l-.4.6 12.9 8.3.3-.6zM168 85.7l-12.9-8.3-.3.6 12.8 8.3.4-.6zM166.5 88l-12.9-8.2-.4.6 12.9 8.3.4-.6zM165 90.5l-13-8.3-.3.6 12.8 8.3.4-.6zM163.4 92.9l-12.9-8.3-.4.6 13 8.3.3-.6zM161.9 95.3l-13-8.3-.3.6 12.9 8.3.4-.6zM160.3 97.6l-12.8-8.2-.4.6 12.8 8.2.4-.6zM158.8 100l-12.9-8.2-.4.6 12.9 8.2.4-.6z"/><path fill="#FFB8B8" d="M91.3 147.6l-4.6 9.7 12.8 3-.4-9.3-7.8-3.4zM137 160.6l1.5 10.5 12.3-4.5-5.4-7.5-8.4 1.5z"/><path fill="#404040" d="M109.6 61.4s-1.9 12.1-1.3 17.9c.5 5.7-1.6 30-1.6 30s-9 9.9-11 21.2c-1.4 7-3.6 14-6.6 20.6l10.7 3.5 21.2-40.1s15.2-33.3 13.7-36.5a122 122 0 01-3.9-16l-21.2-.6z"/><path fill="#404040" d="M89.4 154.7s0-5.4-1.9-3c-1.9 2.3-8.1 6.8-4.5 10 3.7 3.1 25.2 20.3 26.4 15.3.6-2.8-10.1-21.6-10.1-21.6s-3.6.2-3.8 1.2c-.3.9-6-1.9-6-1.9z"/><path fill="#FFB8B8" d="M127.6 12.2l-8 9.3 8 8.5 7.6-11.5-7.6-6.3z"/><path fill="#FFB8B8" d="M141.5 12.8a8.1 8.1 0 11-16.3 0 8.1 8.1 0 0116.3 0z"/><path fill="#2F2E41" d="M128 6.6c2.8-1.3 6.2-1.1 9.1-.2 1.7.5 3.4 1.3 4.6 2.6 1.1 1.3 1.8 3.2 1.1 4.9l-2.4-1.9-.2 1.7c-1.7-2.6-4.8-3.7-7.6-4.6-1-.3-2.1-.5-2.6.3l-.5 1.1c-.4.6-1.3.5-2 .9-.6.3-1 1-1.3 1.5-.4.7-.2 1.5-.8 1.9-2.4 1.3-1-4-.6-4.9a5.3 5.3 0 013.2-3.3z"/><path fill="#404040" d="M104.6 78.6s5.1 11.1 8.7 15.6a368 368 0 0115.4 26s-2.1 13.2 2.4 23.7a94.1 94.1 0 016 20.8l10.9-3-4.6-45.2s-5.7-36.1-8.7-38c-3-1.7-12-11-12-11l-18 11z"/><path fill="#336B68" d="M129.8 29.4s-5.2-13.6-12-9.4c-7 4.2-12.4 41.9-12.4 41.9s-6.4 17.1 0 19c6.3 1.7 11.4 4.1 12.3.8 1-3.3.3-9 1.8-6s1 6.6 4 6.6 14.7-1.5 14.4-3.6l-8.1-49.3z"/><path fill="#FFB8B8" d="M104.8 82.6s-4 11.8 1.5 11.8c5.4 0 4.6-11.9 4.6-11.9l-6.1.1z"/><path fill="#404040" d="M139.4 167.5s-3-4.5-3.3-1.5c-.3 3-3 10.3 1.8 10.9 4.8.6 32.2 3 30.4-1.8-1-2.7-20.3-12.4-20.3-12.4s-2.9 2.1-2.6 3c.3 1-6 1.8-6 1.8z"/><path fill="#336B68" d="M146.8 14.8s-1.5 1.2-3.3-1.2c-.5-.7-1-1.4-1.3-2.2a8.3 8.3 0 00-6-2.4c-3.9 0-4.8-2.7-4.8-2.7l-6.3 2.1S126 0 134.7 0s9 7.2 9 7.2 7 2.7 3 7.6z"/><path fill="#000" d="M143.5 13.6c-.5-.7-1-1.4-1.3-2.2a8.3 8.3 0 00-5.5-2.4c2.2-.6 6-1.4 7.7.6 1.5 2 .2 3.3-1 4z" opacity=".2"/><path fill="#336B68" d="M118 22.4s-8.1-1.5-10.2 5.7c-2.1 7.3-6.6 28.6-6.6 28.6l2.7 22-.3 5.4h8.7v-5.7l1.2-24 10-22.6s2-7.3-5.5-9.4z"/><path fill="#000" d="M123.6 35l-10 19.5-1.2 28 3.4-28.3 7.8-19.3zM135.6 65l2.3 11.5-1.1-10.5-1.2-1zM110 92l13 18.3-1.4 2.7L110 92z" opacity=".2"/></g><defs><clipPath id="clip0"><path fill="#fff" d="M0 0h273.7v178H0z"/></clipPath></defs></svg>