<svg xmlns="http://www.w3.org/2000/svg" width="165" height="180" fill="none"><ellipse cx="83.5" cy="155.5" fill="#fff" rx="46.5" ry="7.5"/><ellipse cx="82" cy="46.5" fill="#fff" rx="25" ry="25.5"/><ellipse cx="83.5" cy="155.5" fill="#fff" rx="46.5" ry="7.5"/><path fill="#336B68" d="M140.6 82H24.2v91.2h116.4V82z"/><path fill="#000" d="M140.6 82H24.2v91.2h116.4V82z" opacity=".1"/><path fill="#464353" d="M164.6 94.5H0v79.3h164.6V94.5z"/><path fill="#336B68" d="M130.5 72.5H34.3V180h96.2V72.5z"/><path fill="#fff" d="M27 105.2H6.7v13H27v-13zM27 127.3H6.7v13H27v-13zM27 149.5H6.7v13H27v-13zM67 83H46.6v13.1H67v-13zM67 105.2H46.6v13H67v-13zM67 127.3H46.6v13H67v-13zM97.8 96.1h20.3v-13H97.8v13zM97.8 118.2h20.3v-13H97.8v13zM97.8 140.4h20.3v-13H97.8v13zM156.4 105.2h-20.3v13h20.3v-13zM156.4 127.3h-20.3v13h20.3v-13zM156.4 149.5h-20.3v13h20.3v-13z"/><path fill="#464353" d="M91.3 145.1H73.5v34.8h17.8v-34.8z"/><path fill="#000" d="M67 83H46.6v4H67v-4zM118.1 83H97.8v4h20.3v-4zM118.1 105.2H97.8v4h20.3v-4zM118.1 127.3H97.8v4h20.3v-4zM67 105.2H46.6v4H67v-4zM67 127.3H46.6v4H67v-4zM27 105.2H6.7v3H27v-3zM27 127.3H6.7v3.1H27v-3zM27 149.5H6.7v3H27v-3zM156.4 105.2h-20.3v3h20.3v-3zM156.4 127.3h-20.3v3.1h20.3v-3zM156.4 149.5h-20.3v3h20.3v-3z" opacity=".1"/><path fill="#FF5252" d="M82 0a16 16 0 00-11.3 4.7c-3 3-4.7 7.2-4.7 11.5C66 25 82.8 58 82.8 58S98 25 98 16.2a16.3 16.3 0 00-9.9-15C86.1.4 84.1 0 82 0zm0 27a8.3 8.3 0 01-7.7-5.3 8.5 8.5 0 011.8-9.2 8.4 8.4 0 0114.3 6 8.5 8.5 0 01-5.2 7.8c-1 .4-2.1.6-3.2.6z"/></svg>