<svg width="165" height="180" viewBox="0 0 165 180" fill="none" xmlns="http://www.w3.org/2000/svg">
<path d="M140.561 81.947H24.2285V173.235H140.561V81.947Z" fill="#336B68"/>
<path opacity="0.1" d="M140.561 81.947H24.2285V173.235H140.561V81.947Z" fill="black"/>
<path d="M164.608 94.4696H0V173.779H164.608V94.4696Z" fill="#464353"/>
<path d="M130.489 72.5098H34.301V179.95H130.489V72.5098Z" fill="#336B68"/>
<path d="M27.0415 105.177H6.71503V118.244H27.0415V105.177Z" fill="white"/>
<path d="M27.0415 127.319H6.71503V140.386H27.0415V127.319Z" fill="white"/>
<path d="M27.0415 149.46H6.71503V162.527H27.0415V149.46Z" fill="white"/>
<path d="M66.9686 83.036H46.6421V96.1031H66.9686V83.036Z" fill="white"/>
<path d="M66.9686 105.177H46.6421V118.244H66.9686V105.177Z" fill="white"/>
<path d="M66.9686 127.319H46.6421V140.386H66.9686V127.319Z" fill="white"/>
<path d="M97.8213 96.103H118.148V83.036H97.8213V96.103Z" fill="white"/>
<path d="M97.8213 118.244H118.148V105.177H97.8213V118.244Z" fill="white"/>
<path d="M97.8213 140.386H118.148V127.319H97.8213V140.386Z" fill="white"/>
<path d="M156.441 105.177H136.115V118.244H156.441V105.177Z" fill="white"/>
<path d="M156.441 127.319H136.115V140.386H156.441V127.319Z" fill="white"/>
<path d="M156.441 149.46H136.115V162.527H156.441V149.46Z" fill="white"/>
<path d="M91.2878 145.104H73.5021V179.95H91.2878V145.104Z" fill="#464353"/>
<path opacity="0.1" d="M66.9686 83.036H46.6421V87.0287H66.9686V83.036Z" fill="black"/>
<path opacity="0.1" d="M118.148 83.036H97.8213V87.0287H118.148V83.036Z" fill="black"/>
<path opacity="0.1" d="M118.148 105.177H97.8213V109.17H118.148V105.177Z" fill="black"/>
<path opacity="0.1" d="M118.148 127.319H97.8213V131.311H118.148V127.319Z" fill="black"/>
<path opacity="0.1" d="M66.9686 105.177H46.6421V109.17H66.9686V105.177Z" fill="black"/>
<path opacity="0.1" d="M66.9686 127.319H46.6421V131.311H66.9686V127.319Z" fill="black"/>
<path opacity="0.1" d="M27.0415 105.177H6.71503V108.263H27.0415V105.177Z" fill="black"/>
<path opacity="0.1" d="M27.0415 127.319H6.71503V130.404H27.0415V127.319Z" fill="black"/>
<path opacity="0.1" d="M27.0415 149.46H6.71503V152.545H27.0415V149.46Z" fill="black"/>
<path opacity="0.1" d="M156.441 105.177H136.115V108.263H156.441V105.177Z" fill="black"/>
<path opacity="0.1" d="M156.441 127.319H136.115V130.404H156.441V127.319Z" fill="black"/>
<path opacity="0.1" d="M156.441 149.46H136.115V152.545H156.441V149.46Z" fill="black"/>
<path d="M82 0C77.7565 0 73.6869 1.70236 70.6863 4.73257C67.6857 7.76278 66 11.8726 66 16.158C66 25.0811 82.7642 58 82.7642 58C82.7642 58 98 25.0859 98 16.1604C98.0003 14.0383 97.5867 11.9369 96.7828 9.97628C95.9788 8.01562 94.8003 6.23409 93.3146 4.73342C91.8288 3.23276 90.0648 2.04235 88.1235 1.23019C86.1821 0.418019 84.1014 -2.36367e-08 82 0ZM82 26.9332C80.3422 26.9332 78.7216 26.4368 77.3432 25.5066C75.9647 24.5765 74.8904 23.2545 74.256 21.7077C73.6215 20.161 73.4556 18.459 73.779 16.8169C74.1024 15.1749 74.9007 13.6666 76.073 12.4828C77.2452 11.299 78.7388 10.4928 80.3647 10.1661C81.9907 9.83952 83.6761 10.0072 85.2077 10.6478C86.7393 11.2885 88.0484 12.3735 88.9694 13.7655C89.8905 15.1576 90.3821 16.7942 90.3821 18.4684C90.3821 19.58 90.1653 20.6807 89.744 21.7077C89.3228 22.7347 88.7054 23.6679 87.927 24.4539C87.1487 25.24 86.2246 25.8635 85.2077 26.2889C84.1907 26.7143 83.1008 26.9332 82 26.9332Z" fill="#FF5252"/>
</svg>
