<svg width="258" height="237" viewBox="0 0 258 237" fill="none" xmlns="http://www.w3.org/2000/svg">
<path opacity="0.24" d="M6.81354 189.133C-0.69117 172.761 -2.65178 153.295 4.26194 136.66C10.4768 121.708 23.4552 109.389 25.4159 93.3087C26.49 84.488 24.0415 75.6108 24.2432 66.7289C24.595 51.3866 33.1551 36.8672 45.2611 27.5151C57.3672 18.163 72.7706 13.6445 88.0568 12.8922C94.1215 12.5913 100.252 12.8499 106.213 11.6885C114.018 10.1651 121.138 6.29075 128.634 3.62007C149.089 -3.66786 174.83 -0.306008 188.071 16.9405C198.249 30.1999 199.558 49.1156 211.129 61.1713C217.846 68.163 227.161 71.901 236.195 75.3945C242.232 77.7454 248.569 80.2563 252.612 85.3108C255.52 88.9407 256.95 93.5532 257.593 98.1611C259.577 112.318 254.206 127.313 243.7 136.966C235.726 144.277 225.449 148.401 216.303 154.151C207.157 159.902 198.531 168.407 197.541 179.184C196.453 191.118 205.008 202.952 201.819 214.505C199.849 221.647 193.564 226.993 186.617 229.551C179.671 232.109 172.077 232.198 164.703 231.822C142.016 230.67 119.112 225.202 96.842 229.682C79.7641 233.115 58.8494 242.716 42.2733 232.254C27.6204 222.987 13.9102 204.598 6.81354 189.133Z" fill="#336B68" fill-opacity="0.5"/>
<path d="M112.33 50.5591C111.892 50.2709 111.376 50.1232 110.852 50.1359C106.79 49.8444 102.714 49.8256 98.6572 49.8068C98.3391 49.7838 98.0197 49.827 97.7191 49.9337C97.4945 50.0541 97.2928 50.2132 97.1234 50.4039C96.5559 50.954 95.9649 51.6687 96.115 52.4445C96.2034 52.7424 96.3559 53.0171 96.5618 53.2495C96.7676 53.4818 97.0218 53.6661 97.3063 53.7893C99.0746 54.7626 101.176 54.8378 103.188 54.8942L109.91 55.0776C111.551 55.1246 112.611 55.0259 112.855 53.1968C112.958 52.3364 113.066 51.1656 112.33 50.5591Z" fill="#336B68"/>
<path d="M112.33 50.5591C111.892 50.2709 111.376 50.1232 110.852 50.1359C106.79 49.8444 102.714 49.8256 98.6572 49.8068C98.3391 49.7838 98.0197 49.827 97.7191 49.9337C97.4945 50.0541 97.2928 50.2132 97.1234 50.4039C96.5559 50.954 95.9649 51.6687 96.115 52.4445C96.2034 52.7424 96.3559 53.0171 96.5618 53.2495C96.7676 53.4818 97.0218 53.6661 97.3063 53.7893C99.0746 54.7626 101.176 54.8378 103.188 54.8942L109.91 55.0776C111.551 55.1246 112.611 55.0259 112.855 53.1968C112.958 52.3364 113.066 51.1656 112.33 50.5591Z" fill="url(#paint0_linear)"/>
<path d="M116.34 47.6396C116.348 47.5487 116.378 47.4612 116.429 47.3857C116.484 47.333 116.549 47.2923 116.62 47.2664C116.691 47.2405 116.767 47.2299 116.842 47.2352C118.717 47.1312 120.596 47.1312 122.471 47.2352C122.621 47.2245 122.769 47.2735 122.883 47.3716C122.957 47.4754 122.994 47.6015 122.987 47.7289C123.105 49.6473 123.152 51.5672 123.127 53.4887C123.127 53.6016 118.062 53.6345 117.597 53.6298C116.992 53.6298 116.251 53.8037 116.078 53.0796C115.984 52.313 115.984 51.5377 116.078 50.771C116.104 49.723 116.192 48.6774 116.34 47.6396Z" fill="#336B68"/>
<path d="M116.34 47.6396C116.348 47.5487 116.378 47.4612 116.429 47.3857C116.484 47.333 116.549 47.2923 116.62 47.2664C116.691 47.2405 116.767 47.2299 116.842 47.2352C118.717 47.1312 120.596 47.1312 122.471 47.2352C122.621 47.2245 122.769 47.2735 122.883 47.3716C122.957 47.4754 122.994 47.6015 122.987 47.7289C123.105 49.6473 123.152 51.5672 123.127 53.4887C123.127 53.6016 118.062 53.6345 117.597 53.6298C116.992 53.6298 116.251 53.8037 116.078 53.0796C115.984 52.313 115.984 51.5377 116.078 50.771C116.104 49.723 116.192 48.6774 116.34 47.6396Z" fill="url(#paint1_linear)"/>
<path d="M48.338 179.071C47.611 181.61 48.3896 184.309 48.3849 186.952C48.3849 193.83 43.1363 199.844 42.944 206.723C42.9835 207.781 42.938 208.841 42.808 209.892C42.5177 211.046 42.0677 212.154 41.4712 213.183C39.5119 217.027 37.9693 221.07 36.8699 225.244C36.6588 226.043 36.5134 227.031 37.1232 227.595C37.5594 227.994 43.99 234.224 44.5716 234.361C62.3953 238.564 84.7593 235.409 92.2594 226.716C89.2012 211.999 96.5652 196.496 93.052 181.878C92.9869 181.454 92.8104 181.055 92.5408 180.722C92.1434 180.385 91.6519 180.18 91.1337 180.134C83.0192 178.559 74.7452 177.995 66.612 176.528C61.157 175.517 50.7255 170.721 48.338 179.071Z" fill="#336B68"/>
<path d="M63.038 186.754C69.1356 189.575 76.0868 189.951 82.7379 189.302C85.0831 189.077 87.4658 188.705 89.464 187.483C91.4621 186.26 92.9865 183.984 92.6816 181.657C92.6497 181.266 92.5064 180.892 92.2689 180.58C91.9283 180.252 91.5052 180.023 91.0446 179.917L86.0728 178.314C84.4499 177.792 82.8223 177.265 81.1525 176.903C78.9439 176.47 76.7097 176.179 74.4639 176.034C67.6956 175.46 60.9226 174.947 54.1402 174.571C53.3616 174.529 52.4939 174.515 51.9076 175.041C49.4826 177.19 53.8213 179.743 54.9798 180.956C57.2775 183.381 60.0116 185.348 63.038 186.754Z" fill="url(#paint2_linear)"/>
<path d="M95.8242 142.994C89.8955 154.96 88.9855 168.695 87.7285 182.02C87.5409 184.037 87.2595 186.251 85.7304 187.606C84.403 188.795 82.4799 188.988 80.7022 188.983C75.2937 188.969 69.9642 187.681 65.144 185.222C63.8072 184.54 62.4282 183.665 61.8607 182.269C61.4245 181.145 61.6074 179.885 61.795 178.696C64.1246 163.941 66.4589 149.185 68.7979 134.427C69.3842 130.722 70.205 126.613 73.2538 124.431C75.6318 122.729 78.7698 122.668 81.6966 122.668C85.1863 122.668 102.499 120.542 104.272 123.481C106.669 127.403 97.5315 139.552 95.8242 142.994Z" fill="#F1B475"/>
<path d="M81.7621 126.763C81.6871 128.94 80.7959 130.994 79.9235 132.979C80.4253 133.919 81.5979 134.342 82.6627 134.267C83.7229 134.124 84.7428 133.766 85.6599 133.214C88.4335 131.781 91.1352 130.214 93.765 128.512C94.9083 127.821 95.9758 127.011 96.9498 126.095C98.5445 124.505 99.5941 122.449 99.947 120.222C99.8579 120.805 86.6636 119.282 85.4066 119.338C80.2846 119.583 81.8981 122.935 81.7621 126.763Z" fill="url(#paint3_linear)"/>
<path d="M182.632 58.0751L83.992 54.0864C81.0516 53.9675 78.5718 56.2606 78.4532 59.2081L76.1146 117.323C75.996 120.271 78.2835 122.757 81.2239 122.876L179.863 126.864C182.804 126.983 185.284 124.69 185.402 121.743L187.741 63.6274C187.859 60.6799 185.572 58.194 182.632 58.0751Z" fill="#336B68"/>
<path d="M183.465 61.0636L135.834 59.5547L135.407 73.0988L183.038 74.6077L183.465 61.0636Z" fill="url(#paint4_linear)"/>
<path d="M156.976 61.5568L140.392 60.8252L139.935 71.2392L156.518 71.9708L156.976 61.5568Z" fill="#336B68"/>
<path d="M182.025 62.5035L160.9 61.5752L160.426 72.4262L181.55 73.3544L182.025 62.5035Z" fill="url(#paint5_linear)"/>
<path d="M162.94 69.7386C167.212 68.8396 171.653 69.2122 175.717 70.8106C176.466 71.0679 177.162 71.4599 177.771 71.9673C178.433 72.6414 178.954 73.4405 179.305 74.3182C182.002 80.1204 183.212 86.5432 185.871 92.35C186.313 91.3927 186.579 90.364 186.659 89.3126C187.606 81.7381 187.908 74.0965 187.56 66.4708C187.532 65.6809 187.433 64.7734 186.791 64.322C186.423 64.1061 186.007 63.9879 185.581 63.9788C178.45 63.3166 171.329 65.3379 165.604 69.6493" fill="url(#paint6_linear)"/>
<path d="M186.958 77.9531L73.4553 73.5225L72.2077 105.64L185.71 110.071L186.958 77.9531Z" fill="url(#paint7_linear)"/>
<path d="M102.677 67.7073C98.9275 66.4218 95.4638 64.4159 92.48 61.8017C89.5247 65.1915 86.0164 68.0534 82.1047 70.2651C83.4415 73.2602 87.1564 74.1207 90.0128 75.7146C94.7033 78.3289 97.4566 83.4163 99.2483 88.4803C101.04 93.5442 102.156 98.8997 104.76 103.597C103.504 103.923 102.198 103.997 100.914 103.816C99.6299 103.634 98.3945 103.2 97.2783 102.539C97.9022 102.812 97.4331 103.823 96.8093 104.058C96.1855 104.293 95.3505 104.307 94.9847 104.885C94.6188 105.464 94.9143 106.131 94.7971 106.766C94.6282 107.673 93.6479 108.247 92.7286 108.266C91.8051 108.212 90.9057 107.95 90.0973 107.499C88.798 109.122 88.5353 111.331 88.4556 113.414C88.3759 115.497 88.4228 117.646 87.5785 119.555C86.7342 121.464 84.6657 123.02 82.6535 122.503C80.6413 121.986 79.6563 119.833 79.1122 117.867C76.8796 109.766 78.4227 101.175 78.601 92.7684C78.7792 84.4931 77.616 76.2318 77.6629 67.9518C77.6629 66.5083 77.7285 65.0131 78.3664 63.7201C79.0043 62.4271 80.0972 61.5149 81.1807 60.6357C83.232 58.99 85.3411 57.4227 87.5081 55.9338C88.9153 54.9934 90.3928 54.0201 92.0766 53.8273C95.6414 53.4088 98.6151 56.4134 100.754 59.3003C102.203 61.2469 105.731 63.6261 106.64 65.6291C108.034 68.7041 104.75 68.4126 102.677 67.7073Z" fill="url(#paint8_linear)"/>
<path d="M83.6571 39.1053C84.4801 38.1408 85.4525 37.3153 86.5371 36.6603C87.8504 35.9644 89.3513 35.7905 90.8429 35.6682C101.992 34.7278 113.77 36.1854 123.085 42.3966C123.929 42.9608 124.863 43.9247 124.426 44.8463C124.21 45.2163 123.881 45.5077 123.488 45.6785C118.624 48.4244 112.494 47.4935 107.297 45.4434C106.087 44.9733 100.707 45.4434 99.4123 45.3071C96.448 44.9827 93.7134 46.7553 91.204 48.368C85.8945 51.7722 84.5061 53.7705 78.7603 56.3612C76.8044 57.2405 74.2903 57.9975 72.78 55.9757C72.2574 55.2517 71.9543 54.392 71.9068 53.4997C71.8594 52.6073 72.0697 51.7202 72.5126 50.9447C73.6665 48.9887 75.8334 47.3195 77.386 45.6832L83.6571 39.1053Z" fill="#F1B475"/>
<path d="M83.6571 39.1053C84.4801 38.1408 85.4525 37.3153 86.5371 36.6603C87.8504 35.9644 89.3513 35.7905 90.8429 35.6682C101.992 34.7278 113.77 36.1854 123.085 42.3966C123.929 42.9608 124.863 43.9247 124.426 44.8463C124.21 45.2163 123.881 45.5077 123.488 45.6785C118.624 48.4244 112.494 47.4935 107.297 45.4434C106.087 44.9733 100.707 45.4434 99.4123 45.3071C96.448 44.9827 93.7134 46.7553 91.204 48.368C85.8945 51.7722 84.5061 53.7705 78.7603 56.3612C76.8044 57.2405 74.2903 57.9975 72.78 55.9757C72.2574 55.2517 71.9543 54.392 71.9068 53.4997C71.8594 52.6073 72.0697 51.7202 72.5126 50.9447C73.6665 48.9887 75.8334 47.3195 77.386 45.6832L83.6571 39.1053Z" fill="url(#paint9_linear)"/>
<path d="M53.3474 125.136C49.2339 109.337 43.1692 92.5514 48.7461 77.2091C53.1317 65.1488 63.84 56.7277 74.0464 48.9742C76.4291 47.164 78.9432 45.2927 81.8982 44.8225C84.4873 44.4134 87.114 45.1328 89.614 45.9368C94.6234 47.5496 99.6093 49.5855 103.629 52.9897C107.649 56.3938 112.269 61.486 112.198 66.7615C104.506 72.7141 97.2453 56.7042 89.4639 58.1147C84.9079 63.0266 80.158 67.7442 75.2143 72.2674C81.4009 71.7017 87.6221 71.6199 93.8213 72.0229C99.2832 81.6814 103.717 91.889 107.048 102.477C103.493 104.132 99.356 101.405 97.1374 98.1608C94.9189 94.9165 93.6009 90.981 90.6693 88.3714L96.6074 105.679C96.8748 106.464 97.1281 107.381 96.6825 108.077C96.1384 108.919 94.9142 108.919 93.9292 108.726C91.7495 108.289 89.6815 107.411 87.851 106.147C86.0205 104.883 84.4659 103.258 83.2819 101.372C78.6618 105.51 79.7875 112.84 80.5286 119.004C83.0427 139.932 78.1365 167.904 68.8588 186.712C63.0942 184.083 56.279 180.496 56.4197 175.78C56.5416 171.821 58.4835 168.181 58.9525 164.255C60.4347 151.786 56.4807 137.168 53.3474 125.136Z" fill="#F1B475"/>
<path d="M138.761 107.574C150.534 107.574 160.079 98.0065 160.079 86.2041C160.079 74.4017 150.534 64.834 138.761 64.834C126.987 64.834 117.442 74.4017 117.442 86.2041C117.442 98.0065 126.987 107.574 138.761 107.574Z" fill="#336B68"/>
<path d="M138.761 107.574C150.534 107.574 160.079 98.0065 160.079 86.2041C160.079 74.4017 150.534 64.834 138.761 64.834C126.987 64.834 117.442 74.4017 117.442 86.2041C117.442 98.0065 126.987 107.574 138.761 107.574Z" fill="url(#paint10_linear)"/>
<path d="M138.779 101.264C147.089 101.264 153.826 94.5108 153.826 86.1804C153.826 77.8499 147.089 71.0967 138.779 71.0967C130.469 71.0967 123.732 77.8499 123.732 86.1804C123.732 94.5108 130.469 101.264 138.779 101.264Z" fill="url(#paint11_linear)"/>
<path d="M127.053 65.4643C129.043 65.4643 130.656 63.8476 130.656 61.8532C130.656 59.8589 129.043 58.2422 127.053 58.2422C125.064 58.2422 123.451 59.8589 123.451 61.8532C123.451 63.8476 125.064 65.4643 127.053 65.4643Z" fill="url(#paint12_linear)"/>
<path d="M124.173 52.7123C124.455 52.7175 124.734 52.7765 124.994 52.8863C125.218 53.018 125.407 53.2008 125.546 53.4198C125.685 53.6388 125.771 53.8878 125.796 54.1464C125.845 54.6718 125.812 55.2017 125.698 55.7168C125.692 55.8336 125.644 55.9443 125.562 56.0272C125.487 56.0665 125.402 56.0828 125.318 56.0742L119.952 56.046C118.432 56.046 116.275 56.4456 114.821 55.9848C113.676 55.6228 113.831 54.358 113.981 53.3377C114.169 52.0776 114.628 52.2703 115.735 52.2703C116.626 52.2703 117.522 52.2986 118.413 52.3362C120.322 52.4161 122.25 52.7123 124.173 52.7123Z" fill="#336B68"/>
<path d="M124.173 52.7123C124.455 52.7175 124.734 52.7765 124.994 52.8863C125.218 53.018 125.407 53.2008 125.546 53.4198C125.685 53.6388 125.771 53.8878 125.796 54.1464C125.845 54.6718 125.812 55.2017 125.698 55.7168C125.692 55.8336 125.644 55.9443 125.562 56.0272C125.487 56.0665 125.402 56.0828 125.318 56.0742L119.952 56.046C118.432 56.046 116.275 56.4456 114.821 55.9848C113.676 55.6228 113.831 54.358 113.981 53.3377C114.169 52.0776 114.628 52.2703 115.735 52.2703C116.626 52.2703 117.522 52.2986 118.413 52.3362C120.322 52.4161 122.25 52.7123 124.173 52.7123Z" fill="url(#paint13_linear)"/>
<path d="M164.797 38.4045C164.797 38.4045 184.966 45.2364 200.445 24.4775C200.445 24.4775 198.611 55.2185 231.116 36.5614C231.116 36.5614 209.357 57.5836 231.378 72.5638C231.378 72.5638 194.68 54.9552 194.943 92.0061C194.943 92.0061 189.962 59.6853 163.048 69.6721C163.048 69.6721 190.745 60.2119 164.797 38.4045Z" fill="#336B68"/>
<path d="M230.571 36.6868C230.237 37.0865 229.875 37.5345 229.497 38.0261C227.784 40.2537 225.722 43.3931 224.355 47.0189C222.987 50.6454 222.306 54.7863 223.397 58.9929C224.275 62.3813 226.292 65.7704 229.951 68.9428C229.258 68.6915 228.479 68.4253 227.631 68.1609C224.169 67.0814 219.531 66.0224 214.883 66.1395C210.233 66.2567 205.523 67.5542 201.997 71.242C198.99 74.3881 196.901 79.2139 196.394 86.3654C196.292 86.0005 196.179 85.6161 196.056 85.2153C195.16 82.3137 193.678 78.5356 191.336 75.0647C188.994 71.5931 185.775 68.4046 181.398 66.7305C178.226 65.5173 174.48 65.1118 170.068 65.9374C172.061 64.7096 174.275 62.9951 175.894 60.757C177.807 58.1108 178.887 54.7315 177.79 50.6096C176.792 46.8613 174.008 42.5529 168.537 37.6427C168.953 37.7262 169.426 37.8106 169.951 37.8884C172.119 38.2097 175.171 38.4181 178.713 37.9677C185.538 37.1002 194.156 33.7907 201.767 24.2081C201.786 25.0101 201.846 26.0825 202.004 27.3004C202.344 29.926 203.145 33.2741 205.01 36.0436C206.889 38.8354 209.843 41.0246 214.415 41.2935C218.452 41.531 223.711 40.2684 230.571 36.6868Z" fill="url(#paint14_linear)" stroke="#336B68"/>
<defs>
<linearGradient id="paint0_linear" x1="96.0821" y1="52.4398" x2="112.926" y2="52.4398" gradientUnits="userSpaceOnUse">
<stop stop-color="#010101" stop-opacity="0"/>
<stop offset="0.95" stop-color="#010101"/>
</linearGradient>
<linearGradient id="paint1_linear" x1="2550.83" y1="734.735" x2="2559.94" y2="909.826" gradientUnits="userSpaceOnUse">
<stop stop-color="#010101" stop-opacity="0"/>
<stop offset="0.95" stop-color="#010101"/>
</linearGradient>
<linearGradient id="paint2_linear" x1="9856.24" y1="6532.76" x2="9985.59" y2="3756.47" gradientUnits="userSpaceOnUse">
<stop stop-color="#010101" stop-opacity="0"/>
<stop offset="0.95" stop-color="#010101"/>
</linearGradient>
<linearGradient id="paint3_linear" x1="5704.73" y1="4551.91" x2="5548.52" y2="2131.21" gradientUnits="userSpaceOnUse">
<stop stop-color="#010101" stop-opacity="0"/>
<stop offset="0.95" stop-color="#010101"/>
</linearGradient>
<linearGradient id="paint4_linear" x1="18051.5" y1="2066.64" x2="22934.2" y2="2066.64" gradientUnits="userSpaceOnUse">
<stop stop-color="#010101" stop-opacity="0"/>
<stop offset="0.95" stop-color="#010101"/>
</linearGradient>
<linearGradient id="paint5_linear" x1="172.051" y1="43.5321" x2="170.006" y2="102.392" gradientUnits="userSpaceOnUse">
<stop stop-color="white" stop-opacity="0"/>
<stop offset="0.95" stop-color="white"/>
</linearGradient>
<linearGradient id="paint6_linear" x1="11516.6" y1="5143.57" x2="13073.9" y2="3781.33" gradientUnits="userSpaceOnUse">
<stop stop-color="#010101" stop-opacity="0"/>
<stop offset="0.95" stop-color="#010101"/>
</linearGradient>
<linearGradient id="paint7_linear" x1="27472.6" y1="6524.08" x2="55260.9" y2="6524.08" gradientUnits="userSpaceOnUse">
<stop stop-color="#010101" stop-opacity="0"/>
<stop offset="0.95" stop-color="#010101"/>
</linearGradient>
<linearGradient id="paint8_linear" x1="5586.76" y1="12558.9" x2="23087.3" y2="13520.8" gradientUnits="userSpaceOnUse">
<stop stop-color="#010101" stop-opacity="0"/>
<stop offset="0.95" stop-color="#010101"/>
</linearGradient>
<linearGradient id="paint9_linear" x1="15812" y1="1957.21" x2="15695.9" y2="4473.92" gradientUnits="userSpaceOnUse">
<stop stop-color="#010101" stop-opacity="0"/>
<stop offset="0.95" stop-color="#010101"/>
</linearGradient>
<linearGradient id="paint10_linear" x1="10793.1" y1="7900.83" x2="14668.7" y2="7900.83" gradientUnits="userSpaceOnUse">
<stop stop-color="white" stop-opacity="0"/>
<stop offset="0.95" stop-color="white"/>
</linearGradient>
<linearGradient id="paint11_linear" x1="8062.5" y1="5600.47" x2="9993.62" y2="5600.47" gradientUnits="userSpaceOnUse">
<stop stop-color="#010101" stop-opacity="0"/>
<stop offset="0.95" stop-color="#010101"/>
</linearGradient>
<linearGradient id="paint12_linear" x1="2019.69" y1="1008.31" x2="2130.35" y2="1008.31" gradientUnits="userSpaceOnUse">
<stop stop-color="#010101" stop-opacity="0"/>
<stop offset="0.95" stop-color="#010101"/>
</linearGradient>
<linearGradient id="paint13_linear" x1="4202.63" y1="519.783" x2="4204.48" y2="566.707" gradientUnits="userSpaceOnUse">
<stop stop-color="#010101" stop-opacity="0"/>
<stop offset="0.95" stop-color="#010101"/>
</linearGradient>
<linearGradient id="paint14_linear" x1="37299" y1="2781.46" x2="34456" y2="10351.8" gradientUnits="userSpaceOnUse">
<stop stop-color="white" stop-opacity="0"/>
<stop offset="0.95" stop-color="white"/>
</linearGradient>
</defs>
</svg>
