<svg width="76" height="61" viewBox="0 0 76 61" fill="none" xmlns="http://www.w3.org/2000/svg">
<path d="M24.9549 18.7711C26.0576 17.5962 25.9988 15.7422 24.8235 14.639L16.2978 6.63796C15.7538 6.12733 15.0438 5.84619 14.2987 5.84619C13.482 5.84619 12.7245 6.17394 12.1659 6.76888C11.471 7.50943 11.2118 8.53885 11.4724 9.52314C11.6825 10.3162 14.3968 20.2708 15.5328 24.4358C18.1846 23.7393 23.3541 20.4768 24.9549 18.7711Z" fill="#404040"/>
<path d="M28.8245 10.3762L20.2989 2.375C18.6669 0.84357 16.5363 0 14.299 0C11.8857 0 9.55465 1.00908 7.90358 2.76821C5.81981 4.98898 5.04156 8.07366 5.8216 11.0198C6.09175 12.0408 10.2125 27.1451 10.3877 27.7875L10.6051 28.5843L11.2075 29.1494C11.8228 29.7268 12.9242 30.4151 14.6775 30.4151C16.785 30.4151 19.5763 29.4015 22.973 27.4022C25.5102 25.9089 28.0197 24.0481 29.2176 22.7716C32.5267 19.2458 32.3501 13.6853 28.8245 10.3762ZM12.1664 6.76905C12.725 6.17396 13.4823 5.84636 14.2992 5.84636C15.0443 5.84636 15.7543 6.12735 16.2983 6.63812L24.8238 14.6392C25.9992 15.7424 26.0579 17.5964 24.9552 18.7713C23.3543 20.477 18.1851 23.7395 15.5336 24.4362C14.3977 20.2712 11.6831 10.3168 11.4732 9.5236C11.2124 8.53901 11.4716 7.50945 12.1664 6.76905Z" fill="#737373"/>
<path d="M63.8337 6.76918C63.2751 6.17379 62.5178 5.84619 61.7009 5.84619C60.9558 5.84619 60.2458 6.12718 59.7019 6.63796L51.1761 14.6392C50.0011 15.7422 49.9421 17.5962 51.0452 18.7712C52.6459 20.4768 57.815 23.7393 60.4668 24.4359C61.6031 20.2703 64.3173 10.3167 64.5272 9.52358C64.7877 8.539 64.5285 7.50943 63.8337 6.76918Z" fill="#404040"/>
<path d="M68.0964 2.7686C66.4452 1.00932 64.1143 0.000244141 61.701 0.000244141C59.4639 0.000244141 57.3331 0.843666 55.7013 2.37539L47.1755 10.3768C43.6501 13.6857 43.4735 19.2464 46.7823 22.7722C47.9802 24.0485 50.4897 25.9093 53.0269 27.4024C56.4239 29.4016 59.2147 30.4154 61.3222 30.4155C61.3223 30.4155 61.3223 30.4155 61.3226 30.4155C63.0758 30.4155 64.1775 29.7272 64.7925 29.1498L65.3949 28.5847L65.6123 27.7879C65.7878 27.1455 69.9083 12.0413 70.1786 11.0204C70.9586 8.07361 70.1804 4.98893 68.0964 2.7686ZM51.0451 18.7712C49.9421 17.5962 50.001 15.7422 51.176 14.6391L59.7019 6.63792C60.2459 6.1273 60.9559 5.84616 61.7009 5.84616C62.5176 5.84616 63.275 6.17391 63.8336 6.76914C64.5286 7.5094 64.7878 8.53896 64.527 9.5234C64.3171 10.3165 61.6029 20.2704 60.4666 24.4357C57.8149 23.7393 52.6457 20.4767 51.0451 18.7712Z" fill="#737373"/>
<path d="M38 60.4614L0 45.6835V43.6839C0 39.457 1.32139 34.9242 3.92766 30.2114C6.21834 26.0694 9.46467 21.9148 13.3157 18.1965C21.3094 10.4786 30.768 5.68408 38 5.68408C45.232 5.68408 54.6906 10.4788 62.6843 18.1966C66.5353 21.915 69.7816 26.0696 72.0723 30.2116C74.6786 34.9242 76 39.4569 76 43.6841V45.6837L38 60.4614Z" fill="#D9D9D9"/>
<path d="M38 5.68408C45.232 5.68408 54.6906 10.4788 62.6843 18.1966C66.5353 21.915 69.7817 26.0696 72.0723 30.2116C74.6786 34.9242 76 39.4569 76 43.6841V45.6837L38 60.4615" fill="#CDCDD0"/>
<path d="M33.1281 33.9403C33.1281 26.9559 27.4458 21.2737 20.4615 21.2737H10.3568C7.79401 24.1428 5.60381 27.1803 3.92736 30.2115C1.32139 34.924 0 39.4568 0 43.6839V45.6835L2.3747 46.6069H20.4615C27.4459 46.6071 33.1281 40.9246 33.1281 33.9403Z" fill="#737373"/>
<path d="M76 43.6838C76 39.4569 74.6786 34.924 72.0723 30.2113C70.3959 27.1799 68.2057 24.1424 65.6429 21.2734H55.5384C48.554 21.2734 42.8718 26.9558 42.8718 33.9401C42.8718 40.9243 48.5542 46.6067 55.5384 46.6067H73.6253L76 45.6832V43.6838Z" fill="#737373"/>
<path d="M40.9231 20.2994V5.9241C39.9168 5.76646 38.9392 5.68408 38.0001 5.68408C37.0607 5.68408 36.0833 5.76676 35.077 5.9241V20.2994H40.9231Z" fill="#737373"/>
<path d="M21.436 36.8639C23.0503 36.8639 24.359 35.5552 24.359 33.9409C24.359 32.3265 23.0503 31.0178 21.436 31.0178C19.8216 31.0178 18.5129 32.3265 18.5129 33.9409C18.5129 35.5552 19.8216 36.8639 21.436 36.8639Z" fill="#404040"/>
<path d="M39.9487 43.6838H38H36.0513C34.975 43.6838 34.1027 44.5562 34.1027 45.6325C34.1027 47.5812 38 49.5299 38 49.5299C38 49.5299 41.8974 47.5812 41.8974 45.6325C41.8974 44.5561 41.025 43.6838 39.9487 43.6838Z" fill="#404040"/>
<path d="M54.5643 36.8639C56.1786 36.8639 57.4873 35.5552 57.4873 33.9409C57.4873 32.3265 56.1786 31.0178 54.5643 31.0178C52.9499 31.0178 51.6412 32.3265 51.6412 33.9409C51.6412 35.5552 52.9499 36.8639 54.5643 36.8639Z" fill="#404040"/>
</svg>
