<svg xmlns="http://www.w3.org/2000/svg" width="76" height="61" fill="none"><path fill="#404040" d="M25 18.8a3 3 0 00-.2-4.2l-8.5-8a3 3 0 00-4.1.2 3 3 0 00-.7 2.7l4 15c2.7-.8 7.9-4 9.5-5.7z"/><path fill="#737373" d="M28.8 10.4l-8.5-8a8.7 8.7 0 00-12.4.4 8.7 8.7 0 00-2 8.2l4.5 16.8.2.8.6.5a5 5 0 003.5 1.3c2 0 4.9-1 8.3-3a32 32 0 006.2-4.6c3.3-3.6 3.2-9.1-.4-12.4zM12.2 6.8c.5-.6 1.3-1 2.1-1a3 3 0 012 .8l8.5 8a3 3 0 01.2 4.2c-1.6 1.7-6.8 5-9.5 5.6l-4-14.9c-.3-1 0-2 .7-2.7z"/><path fill="#404040" d="M63.8 6.8c-.5-.6-1.3-1-2.1-1a3 3 0 00-2 .8l-8.5 8a3 3 0 00-.2 4.2c1.6 1.7 6.8 5 9.5 5.6l4-14.9c.3-1 0-2-.7-2.7z"/><path fill="#737373" d="M68.1 2.8a8.8 8.8 0 00-12.4-.4l-8.5 8a8.8 8.8 0 00-.4 12.4 32 32 0 006.2 4.6c3.4 2 6.2 3 8.3 3a5 5 0 003.5-1.3l.6-.5.2-.8L70.2 11c.8-3 0-6-2.1-8.2zm-17 16a3 3 0 010-4.2l8.6-8a3 3 0 014.1.2c.7.7 1 1.7.7 2.7l-4 15c-2.7-.8-7.9-4-9.5-5.7z"/><path fill="#D9D9D9" d="M38 60.5L0 45.7v-2a28 28 0 014-13.5c2.2-4.1 5.5-8.3 9.3-12 8-7.7 17.5-12.5 24.7-12.5 7.2 0 16.7 4.8 24.7 12.5 3.8 3.7 7 7.9 9.4 12A28 28 0 0176 43.7v2L38 60.5z"/><path fill="#CDCDD0" d="M38 5.7c7.2 0 16.7 4.8 24.7 12.5 3.8 3.7 7 7.9 9.4 12A28 28 0 0176 43.7v2L38 60.5"/><path fill="#737373" d="M33.1 34c0-7-5.7-12.7-12.6-12.7H10.4c-2.6 2.8-4.8 5.9-6.5 9A28 28 0 000 43.6v2l2.4 1h18c7 0 12.7-5.8 12.7-12.8zM76 43.7a28 28 0 00-4-13.5c-1.6-3-3.8-6-6.4-9h-10a12.7 12.7 0 000 25.4h18l2.4-1v-2zM41 20.3V5.9a19 19 0 00-6 0v14.4h6z"/><path fill="#404040" d="M21.4 36.9a3 3 0 100-5.9 3 3 0 000 5.9zM40 43.7h-4c-1 0-1.9.9-1.9 2 0 1.9 3.9 3.8 3.9 3.8s3.9-2 3.9-3.9c0-1-.9-2-2-2zM54.6 36.9a3 3 0 100-5.9 3 3 0 000 5.9z"/></svg>