<svg width="85" height="85" viewBox="0 0 85 85" fill="none" xmlns="http://www.w3.org/2000/svg">
<path d="M84.4007 51.9561C84.0085 52.9571 83.3905 53.8541 82.5944 54.5769L82.4882 54.6832C81.1166 55.9689 79.3037 56.6788 77.4236 56.6665H67.2947C66.6926 56.6655 66.1323 56.3587 65.8072 55.8519L64.1073 53.1248L56.9533 41.6854C56.6756 41.2815 56.5974 40.7728 56.7408 40.3041C56.8495 39.8225 57.1588 39.4102 57.5908 39.1708L73.528 30.3168C74.3903 29.8634 75.4567 30.177 75.9363 31.0252L84.1528 45.6874C85.1789 47.6319 85.2701 49.9365 84.4007 51.9561Z" fill="#7E7E7E"/>
<path d="M46.2575 14.4865L44.77 16.5761L36.8723 27.5906C36.5406 28.0629 35.9973 28.3411 35.4202 28.3343C35.1242 28.3312 34.833 28.2583 34.5702 28.1218L15.0915 17.497C14.6384 17.257 14.3145 16.8293 14.2061 16.3283C14.0942 15.8209 14.2108 15.29 14.5249 14.8762L22.1038 4.7826C22.4061 4.36989 22.7377 3.97943 23.0954 3.61387C25.229 1.36324 28.1759 0.0620335 31.2765 0.00143891C31.4425 -0.00437153 31.6089 0.00741536 31.7724 0.0367996C35.5608 0.151016 39.07 2.05684 41.2285 5.17207L46.2575 12.4678C46.6785 13.0749 46.6785 13.8796 46.2575 14.4865Z" fill="#7E7E7E"/>
<path d="M34.8532 49.1238C34.3142 49.619 33.5261 49.7317 32.8699 49.4072L27.345 46.6447L24.1222 53.1258L22.8472 55.6758C22.5417 56.2769 21.9278 56.6589 21.2535 56.6674H7.58299C5.68398 56.6903 3.85203 55.9652 2.48309 54.6487L2.4122 54.5778C1.59658 53.8292 0.955605 52.9104 0.535096 51.8862C-0.00842973 50.5005 -0.131611 48.9853 0.180991 47.5301C0.318781 46.9042 0.532771 46.2976 0.818479 45.7238L6.69748 34.0012L0.535096 27.8033C0.00999764 27.3145 -0.146552 26.5461 0.145464 25.8908C0.417061 25.2296 1.0597 24.7965 1.77455 24.793H24.795C25.5099 24.7965 26.1525 25.2296 26.4241 25.8908L35.278 47.1404C35.5531 47.8266 35.3851 48.6106 34.8532 49.1238Z" fill="#7E7E7E"/>
<path d="M35.4199 54.8956V76.1452C35.4199 77.1232 34.6271 77.9161 33.6491 77.9161H25.043C20.9785 77.9255 17.1728 75.9233 14.8785 72.5683C14.3827 71.8599 13.9577 71.2224 13.5682 70.6558L13.4266 70.5142C13.4619 70.5142 12.7537 69.5226 12.0807 68.5309C11.762 68.1059 11.5141 67.6809 11.2661 67.3622C10.3452 66.0163 9.84951 65.3434 10.062 65.6268C9.88487 65.3434 9.7079 65.1309 9.63702 64.9893L9.60166 64.954C9.46005 64.7415 9.4139 64.6706 9.40692 64.653L9.3538 64.5999L9.31844 64.529C6.83937 60.9519 4.53728 57.6229 2.4832 54.6479L2.41232 54.577C1.73947 53.6562 1.13734 52.7355 0.535211 51.8855C-0.00831438 50.4998 -0.131496 48.9846 0.181106 47.5293L4.96227 52.098C5.66234 52.7784 6.60696 53.1487 7.58311 53.1251H33.6492C34.6271 53.1249 35.4199 53.9176 35.4199 54.8956Z" fill="#3D3D3D"/>
<path d="M74.2354 9.5269L65.3815 30.7765C65.1099 31.4377 64.4672 31.8709 63.7524 31.8744C63.645 31.8802 63.5372 31.8682 63.4336 31.839L43.9549 28.2975C43.212 28.1456 42.6367 27.5562 42.5028 26.81C42.3967 26.0457 42.7979 25.3006 43.4944 24.9684L48.7359 22.3476L44.7693 16.5748L38.3236 7.15408C36.7655 4.94047 34.2305 3.62017 31.5237 3.61254H23.0947C24.846 1.75867 27.1627 0.537983 29.6821 0.141711L31.2758 0.0354633H31.7717L54.6504 0.000102613C57.621 -0.0141745 60.4007 1.46218 62.0524 3.93128L66.1252 10.0937L71.8272 7.26033C72.4833 6.93578 73.2715 7.04833 73.8106 7.54372C74.3431 8.05636 74.5113 8.8411 74.2354 9.5269Z" fill="#3D3D3D"/>
<path d="M84.4005 51.9556L82.7359 54.364L82.5943 54.5764L82.4881 54.6827L70.1633 72.5677C67.8544 75.9245 64.0378 77.9256 59.9635 77.9155H56.6698V83.2279C56.6642 83.9612 56.2166 84.6184 55.5364 84.8925C55.3311 84.9622 55.1158 84.9981 54.8989 84.9987C54.3944 85.0024 53.9143 84.7819 53.5886 84.3966L39.4223 68.4594C38.8603 67.8495 38.8156 66.925 39.316 66.2636L53.4824 46.7848C53.9166 46.1613 54.7037 45.8895 55.4302 46.112C56.1718 46.3452 56.6744 47.0347 56.6698 47.8119V53.1243H77.4235C78.3997 53.1481 79.3441 52.7779 80.0444 52.0972L84.8255 47.5285C85.1519 49.0122 85.0032 50.5611 84.4005 51.9556Z" fill="#3D3D3D"/>
</svg>
