<svg width="144" height="145" viewBox="0 0 144 145" fill="none" xmlns="http://www.w3.org/2000/svg">
<path d="M142.994 88.0251C142.329 89.7212 141.282 91.2408 139.933 92.4654L139.753 92.6454C137.43 94.8238 134.358 96.0265 131.173 96.0057H114.012C112.992 96.004 112.043 95.4842 111.492 94.6255L108.612 90.0052L96.4916 70.6243C96.0211 69.94 95.8886 69.0782 96.1316 68.2842C96.3158 67.4682 96.8398 66.7696 97.5717 66.364L124.573 51.3634C126.034 50.5953 127.841 51.1266 128.653 52.5636L142.574 77.4047C144.312 80.6991 144.467 84.6036 142.994 88.0251Z" fill="#336B68" fill-opacity="0.71"/>
<path d="M78.3702 24.5434L75.85 28.0837L62.4695 46.7446C61.9076 47.5448 60.987 48.0162 60.0093 48.0047C59.5078 47.9993 59.0145 47.8758 58.5693 47.6446L25.5679 29.6438C24.8003 29.2371 24.2516 28.5126 24.0679 27.6638C23.8784 26.8042 24.0758 25.9047 24.608 25.2036L37.4484 8.1028C37.9606 7.40358 38.5223 6.74205 39.1284 6.12271C42.7432 2.30963 47.7359 0.105099 52.989 0.00243783C53.2703 -0.00740636 53.5521 0.0125633 53.8292 0.0623467C60.2476 0.255855 66.1929 3.48475 69.8499 8.76264L78.3702 21.1233C79.0834 22.1519 79.0834 23.5151 78.3702 24.5434Z" fill="#336B68" fill-opacity="0.71"/>
<path d="M59.0492 83.2283C58.1359 84.0673 56.8007 84.2583 55.6889 83.7084L46.3285 79.0282L40.8683 90.0087L38.7082 94.3289C38.1907 95.3473 37.1506 95.9945 36.0081 96.0089H12.8473C9.62993 96.0477 6.5262 94.8191 4.20691 92.5887L4.08681 92.4686C2.70496 91.2004 1.61901 89.6436 0.906572 87.9085C-0.0142819 85.5608 -0.222979 82.9937 0.306639 80.5282C0.540087 79.4678 0.902634 78.4401 1.38669 77.468L11.347 57.6073L0.906572 47.1066C0.0169382 46.2786 -0.248292 44.9766 0.246448 43.8665C0.706594 42.7462 1.79536 42.0124 3.00648 42.0065H42.0083C43.2194 42.0124 44.3082 42.7462 44.7683 43.8665L59.7689 79.8681C60.235 81.0305 59.9503 82.3589 59.0492 83.2283Z" fill="#336B68" fill-opacity="0.71"/>
<path d="M60.0093 93.0054V129.007C60.0093 130.664 58.666 132.007 57.0091 132.007H42.4284C35.5423 132.023 29.0946 128.631 25.2076 122.947C24.3674 121.747 23.6474 120.667 22.9876 119.707L22.7477 119.467C22.8076 119.467 21.6077 117.787 20.4675 116.107C19.9274 115.387 19.5075 114.667 19.0873 114.127C17.5271 111.846 16.6873 110.706 17.0473 111.187C16.7472 110.706 16.4474 110.346 16.3273 110.106L16.2674 110.047C16.0274 109.687 15.9493 109.566 15.9374 109.537L15.8474 109.447L15.7875 109.327C11.5874 103.266 7.68717 97.626 4.20711 92.5858L4.08701 92.4657C2.94705 90.9055 1.92692 89.3457 0.906776 87.9056C-0.0140769 85.5579 -0.222774 82.9908 0.306844 80.5253L8.4072 88.2656C9.59329 89.4185 11.1937 90.0457 12.8475 90.0058H57.0094C58.666 90.0055 60.0093 91.3485 60.0093 93.0054Z" fill="#336B68"/>
<path d="M125.772 16.1407L110.771 52.1423C110.311 53.2626 109.222 53.9964 108.011 54.0023C107.829 54.0121 107.647 53.9919 107.471 53.9424L74.4698 47.9422C73.2112 47.6849 72.2366 46.6864 72.0096 45.4221C71.8299 44.1272 72.5097 42.8649 73.6896 42.3021L82.5699 37.8618L75.8497 28.0814L64.9291 12.1206C62.2895 8.37027 57.9946 6.13338 53.4086 6.12045H39.1281C42.0951 2.97959 46.0201 0.911464 50.2885 0.240091L52.9887 0.0600828H53.8288L92.5904 0.00017385C97.6233 -0.0240147 102.333 2.47725 105.131 6.66047L112.031 17.1009L121.692 12.3006C122.803 11.7508 124.139 11.9415 125.052 12.7807C125.954 13.6493 126.239 14.9788 125.772 16.1407Z" fill="#336B68"/>
<path d="M142.993 88.0245L140.173 92.1047L139.933 92.4648L139.753 92.6448L118.872 122.946C114.961 128.633 108.494 132.023 101.592 132.006H96.0113V141.007C96.0018 142.249 95.2435 143.363 94.0911 143.827C93.7432 143.945 93.3784 144.006 93.0111 144.007C92.1563 144.013 91.3429 143.64 90.7911 142.987L66.7901 115.986C65.838 114.952 65.7624 113.386 66.6101 112.265L90.6111 79.264C91.3469 78.2076 92.6803 77.7471 93.9111 78.124C95.1675 78.5192 96.0192 79.6873 96.0113 81.0042V90.0046H131.173C132.827 90.0448 134.427 89.4176 135.613 88.2644L143.713 80.524C144.266 83.0377 144.014 85.6619 142.993 88.0245Z" fill="#336B68"/>
</svg>
