<svg xmlns="http://www.w3.org/2000/svg" width="144" height="145" fill="none"><path fill="#336B68" fill-opacity=".7" d="M143 88c-.7 1.7-1.7 3.2-3 4.5l-.2.1a12.4 12.4 0 01-8.6 3.4H114c-1 0-2-.5-2.5-1.4l-2.9-4.6-12.1-19.4c-.5-.7-.6-1.5-.4-2.3a3 3 0 011.5-2l27-15a3 3 0 014 1.3l14 24.8c1.7 3.3 1.9 7.2.4 10.6zM78.4 24.5l-2.5 3.6-13.4 18.6A3 3 0 0160 48c-.5 0-1-.1-1.4-.4l-33-18a3 3 0 01-1-4.4L37.4 8.1l1.7-2a19.6 19.6 0 0114.7-6c6.4.2 12.4 3.4 16 8.7L78.4 21a3 3 0 010 3.4zM59 83.2a3 3 0 01-3.3.5L46.3 79 41 90l-2.2 4.3A3 3 0 0136 96H12.8c-3.2 0-6.3-1.2-8.6-3.4l-.1-.1a12.8 12.8 0 01-3.2-4.6 12.8 12.8 0 01.5-10.4l10-19.9L.8 47.1A2.8 2.8 0 01.2 44 3 3 0 013 42h39a3 3 0 012.8 1.9l15 36a3 3 0 01-.8 3.3z"/><path fill="#336B68" d="M60 93v36a3 3 0 01-3 3H42.4c-6.9 0-13.3-3.4-17.2-9l-2.2-3.3-.3-.2-2.2-3.4-1.4-2c-1.6-2.3-2.4-3.4-2-3l-.8-1-.4-.6-.1-.2L4.2 92.6l-.1-.1-3.2-4.6c-1-2.3-1.1-5-.6-7.4l8.1 7.8a6.2 6.2 0 004.4 1.7H57a3 3 0 013 3zM125.8 16.1l-15 36a3 3 0 01-3.3 1.8l-33-6a3.1 3.1 0 01-2.5-2.5 3 3 0 011.7-3.1l8.9-4.4-6.8-9.8L65 12c-2.6-3.7-7-6-11.5-6H39.1c3-3.1 7-5.2 11.2-5.9L53 .1h.8L92.6 0c5 0 9.7 2.5 12.5 6.7l7 10.4 9.6-4.8a3 3 0 013.4.5 3 3 0 01.7 3.3zM143 88l-2.8 4.1-.3.4-.1.1-21 30.3a21 21 0 01-17.2 9.1H96v9a3 3 0 01-2 2.8l-1 .2c-.8 0-1.7-.4-2.2-1l-24-27a3 3 0 01-.2-3.7l24-33A3 3 0 0196 81v9h35.2c1.6 0 3.2-.6 4.4-1.7l8.1-7.8c.6 2.5.3 5.2-.7 7.5z"/></svg>