<svg width="267" height="209" viewBox="0 0 267 209" fill="none" xmlns="http://www.w3.org/2000/svg">
<path opacity="0.6" d="M93.6608 204.951C119.383 204.951 140.235 200.999 140.235 196.124C140.235 191.25 119.383 187.298 93.6608 187.298C67.9385 187.298 47.0864 191.25 47.0864 196.124C47.0864 200.999 67.9385 204.951 93.6608 204.951Z" fill="#274341"/>
<path opacity="0.1" d="M155.13 29.4734C138.013 28.8807 121.711 23.351 106.144 17.3027C90.5765 11.2544 75.1575 4.55518 58.4505 1.35111C47.7048 -0.709967 35.4145 -1.00365 26.7582 4.75362C18.4245 10.3098 15.7322 19.8744 14.2855 28.7564C13.1958 35.4397 12.5558 42.4748 15.5391 48.7322C17.6126 53.0766 21.2888 56.7278 23.8331 60.8897C32.6851 75.3675 26.4276 93.2214 16.8377 107.358C12.3416 113.988 7.11816 120.322 3.64558 127.373C0.172997 134.424 -1.43238 142.531 1.60646 149.744C4.61621 156.887 11.7915 162.242 19.5644 166.013C35.3511 173.672 53.9464 175.863 72.0922 177.107C112.248 179.853 152.615 178.665 192.876 177.472C207.777 177.033 222.741 176.585 237.398 174.281C245.539 173 253.941 170.968 259.852 166.063C267.353 159.837 269.212 149.297 264.184 141.491C255.753 128.395 232.447 125.143 226.547 111.091C223.304 103.355 226.634 94.7401 231.35 87.5673C241.463 72.1767 258.414 58.6751 259.305 41.0858C259.918 29.0051 251.77 16.9058 239.17 11.1882C225.965 5.19547 207.65 5.94952 197.912 15.8686C187.875 26.0709 170.245 29.9999 155.13 29.4734Z" fill="#737373"/>
<path d="M141.529 95.709L133.428 90.2454L137.514 84.16L116.118 82.4535L108.429 88.4013L98.805 83.0038L90.7781 83.9696L90.6829 81.8529C90.5835 79.6463 90.3619 77.4469 90.0191 75.2649C90.0534 74.6034 90.0772 73.8441 90.0746 73.0186C90.0746 69.5393 89.6038 64.9277 87.5356 61.8533L88.0117 57.5724L84.1503 53.0084C84.7704 51.7727 85.4775 50.5826 86.2661 49.4471C86.3984 49.2566 86.5306 49.0714 86.6734 48.8915C91.6853 48.529 95.6392 44.4068 95.6392 39.3666C95.6392 39.1338 95.6392 38.9009 95.6127 38.6707C95.6127 38.5781 95.5942 38.4829 95.5837 38.3903C96.0729 38.6549 96.5675 38.9194 97.0621 39.184C97.1547 39.3163 97.2604 39.4486 97.3768 39.6047L97.4006 39.6338L97.5487 39.8164L97.5963 39.8719C97.6492 39.9354 97.7048 39.9963 97.7603 40.0598L97.7973 40.1021C97.9375 40.2582 98.0856 40.417 98.2443 40.5731C98.2632 40.5885 98.2809 40.6053 98.2972 40.6233L98.4956 40.8086L98.5511 40.8588C98.7204 41.0096 98.9002 41.1552 99.08 41.2927L99.1382 41.3351L99.3657 41.4912L99.4397 41.5388C99.527 41.5917 99.6169 41.6473 99.7042 41.6975L99.7359 41.7161C99.8391 41.7716 99.9449 41.8245 100.051 41.8748L100.104 41.896C100.193 41.9348 100.282 41.9718 100.368 42.0071L100.45 42.0362C100.543 42.068 100.633 42.0971 100.728 42.1235L100.786 42.1394C100.902 42.1685 101.019 42.1923 101.138 42.2108H101.151C101.263 42.229 101.376 42.2404 101.489 42.2452H101.566C101.667 42.2505 101.769 42.2505 101.87 42.2452H101.936C102.063 42.2379 102.19 42.2229 102.315 42.2002C102.906 42.1224 103.475 41.9185 103.981 41.6023C104.11 41.5161 104.224 41.4098 104.319 41.2874C104.848 40.5942 104.266 39.8349 104.266 39.8349C104.06 39.3428 102.722 38.9962 102.722 38.9962C102.722 38.9962 98.4903 37.2288 98.4903 35.8212C98.4903 34.4136 97.4324 27.1112 86.5121 25.4417C86.5121 25.4417 79.4083 25.0422 77.4115 28.8469L77.3691 29.2914C76.782 29.6591 76.2954 30.3973 75.7162 30.6143C75.4659 30.668 75.2246 30.7571 74.9994 30.8789V30.8286C74.9326 30.8871 74.8778 30.9581 74.8381 31.0376C74.7137 31.2852 74.6391 31.5549 74.6186 31.8313C74.559 32.169 74.4418 32.4939 74.2721 32.7918C74.2248 32.8764 74.1718 32.9577 74.1134 33.0352L74.0685 33.1066C74.3755 33.1306 74.6838 33.0807 74.9677 32.9611C74.923 33.3233 74.8341 33.6787 74.7032 34.0194C74.8713 34.0249 75.0375 33.9819 75.1819 33.8956C75.3263 33.8093 75.4429 33.6833 75.5178 33.5326V33.5114L75.5522 33.4638C75.6187 33.3413 75.6736 33.2129 75.7162 33.0802L75.6871 33.1119C75.74 32.9399 75.7876 32.7653 75.8457 32.596C75.8724 32.5006 75.9163 32.4109 75.9753 32.3314C76.0459 32.2602 76.1322 32.2066 76.2273 32.1749C76.3224 32.1432 76.4236 32.1343 76.5228 32.1488L76.4144 34.4427H76.462C76.3983 34.6096 76.3204 34.7707 76.2292 34.9243C75.8537 35.5328 75.1713 35.9482 74.9201 36.615C74.8117 36.9365 74.7703 37.2769 74.7984 37.6151C74.7984 37.8135 74.8222 38.0146 74.8381 38.213V38.1971C74.8751 38.7263 74.8857 39.229 74.6001 39.655C74.4044 39.946 74.0896 40.1656 73.9812 40.4963C73.9512 40.5885 73.9378 40.6852 73.9415 40.7821C73.9627 41.072 74.0232 41.3578 74.1214 41.6314C74.1225 41.6262 74.1225 41.6208 74.1214 41.6155C74.1873 41.8168 74.2028 42.0313 74.1663 42.2399C74.0473 42.7691 73.4046 43.2109 73.4364 43.7163C73.4346 43.7828 73.4444 43.849 73.4655 43.9121C73.5891 44.1589 73.8032 44.3485 74.0632 44.4412C74.4709 44.6732 74.9392 44.7765 75.4067 44.7376C75.5819 44.7059 75.7513 44.6479 75.9092 44.5656C75.7241 44.9916 75.5337 45.4122 75.3406 45.8118C75.3115 45.8753 75.2798 45.9388 75.248 46.0023C75.248 46.0023 73.6136 44.9095 72.6852 47.1373C72.4142 47.6003 72.2204 48.1043 72.1113 48.6295C72.0648 48.8397 71.9993 49.0451 71.9156 49.2434C71.5035 49.9413 70.8867 50.4956 70.1489 50.8309C68.2553 51.6987 60.6066 61.2421 60.4717 63.7133C60.4055 64.6779 60.2425 65.6335 59.9851 66.5655C59.383 68.7603 59.2283 71.0538 59.5302 73.3096C59.6247 74.0386 59.7813 74.7583 59.9983 75.4606C60.8102 77.9292 61.3524 82.5355 61.3524 82.5355L62.2305 90.5312C62.1979 91.6347 62.2456 92.7392 62.3733 93.8358C61.4767 94.8597 57.8772 99.1274 59.2525 100.289C60.3104 101.204 62.1617 101.054 63.2011 100.866C62.3257 103.033 60.9478 106.8 60.7653 109.388C60.5008 113.216 61.2175 118.288 62.3521 120.236C63.4867 122.183 67.2688 127.178 67.2688 127.178C67.2688 127.178 67.0916 134.031 68.443 136.521C69.7945 139.01 70.3393 144.175 70.3393 144.175C70.3393 144.175 71.6009 148.535 70.9688 150.138C70.3367 151.742 72.1404 153.075 70.2468 154.142C68.3531 155.208 65.9305 179.24 65.9305 179.24C65.9305 179.24 64.9546 194.99 65.9305 195.792C65.9827 195.83 66.0385 195.863 66.0971 195.89V201.181C66.0971 201.181 65.4201 202.293 68.1733 202.517C70.059 202.668 75.4041 203.01 78.5752 203.208L81.0321 203.361C81.0321 203.361 86.8506 204.52 89.4213 203.361C91.9921 202.203 96.549 202.229 95.8719 199.168C95.7822 198.751 95.6619 198.342 95.5122 197.943C94.7691 196.043 93.5075 195.826 91.1828 195.297C91.0479 195.268 90.9183 195.241 90.7993 195.22C88.3502 194.794 87.5462 195.935 86.1736 194.45C84.9808 193.167 81.1829 191.73 79.8896 191.275C79.9213 191.18 79.961 191.088 79.9927 190.99C79.6265 190.928 79.2859 190.761 79.0115 190.511L82.5159 190.733L84.6026 190.863C84.6026 190.863 89.5483 191.85 91.7435 190.863C93.9386 189.876 97.8 189.902 97.2234 187.301C97.1475 186.947 97.0458 186.599 96.9193 186.259C96.2872 184.645 95.2134 184.468 93.2378 184.021C93.124 183.997 93.0182 183.973 92.9124 183.954C90.831 183.592 90.1487 184.56 88.9823 183.301C87.9826 182.227 84.8274 181.023 83.6928 180.613C83.6928 180.025 82.8993 179.189 82.3995 178.351C81.8123 177.372 82.8967 173.945 82.8967 173.945L83.5156 159.73C83.7513 159.624 84.0005 159.553 84.2561 159.518C84.2561 159.518 87.0543 156.846 86.4222 153.999C86.2934 153.138 86.2262 152.268 86.2212 151.398C87.1416 150.543 88.4084 149.281 88.7681 148.503C89.3552 147.236 88.7681 141.095 88.7681 141.095V117.614L93.4493 118.087L97.6968 118.524L98.9901 118.656L103.238 119.085L112.999 120.072L121.796 118.405L125.602 117.685L133.428 116.203V97.0478L141.529 95.709ZM77.0994 32.2335L76.5545 32.1753C76.7344 32.1832 76.9248 32.2176 77.0994 32.2335Z" fill="url(#paint0_linear)"/>
<path d="M122.542 108.146C119.897 111.932 110.389 109.927 110.389 109.927L103.021 103.029L102.029 102.095L103.692 98.5605C103.692 98.5605 104.221 98.7061 105.128 98.9654C109.892 100.349 124.774 104.963 122.542 108.146Z" fill="#EFB7B9"/>
<path opacity="0.1" d="M105.123 98.9654C104.798 100.098 103.907 101.794 103.021 103.029L102.029 102.095L103.692 98.5605C103.692 98.5605 104.227 98.7061 105.123 98.9654Z" fill="black"/>
<path d="M79.8522 59.1034C79.8522 59.1034 73.0605 62.1169 73.3937 69.5172C73.6335 74.2849 74.1527 79.0343 74.9488 83.7411C74.9488 83.7411 73.5603 94.8773 79.3418 97.748C85.1233 100.619 90.4736 102.979 90.4736 102.979C90.4736 102.979 99.5187 103.952 100.643 104.355C101.767 104.757 105.279 98.6079 104.631 97.6501C103.983 96.6923 95.6812 94.6841 94.6233 93.0861C93.5654 91.488 91.1189 90.5011 91.1189 90.5011C91.1189 90.5011 88.5932 88.9718 88.4213 87.5907C88.2494 86.2096 88.9159 85.1804 89.0851 84.5745C89.2544 83.9686 89.6828 78.1188 89.6828 78.1188C89.6828 78.1188 92.5339 57.2963 79.8522 59.1034Z" fill="#DCE6F2"/>
<path opacity="0.1" d="M84.3351 83.4365C84.3351 83.4365 75.0175 84.9975 75.9194 88.2598C75.9194 88.2598 79.3021 84.7383 84.3351 83.4365Z" fill="black"/>
<path opacity="0.1" d="M84.4068 84.7578C84.4068 84.7578 79.2839 88.9408 80.2863 89.1551C81.2886 89.3694 84.4068 84.7578 84.4068 84.7578Z" fill="black"/>
<path opacity="0.1" d="M86.8691 86.2148C86.8691 86.2148 85.4964 89.0273 86.3401 88.8368C87.1838 88.6463 86.8691 86.2148 86.8691 86.2148Z" fill="black"/>
<path opacity="0.1" d="M105.467 99.2646L104.901 99.1032C105.063 98.574 105.108 98.1454 104.975 97.947C104.327 96.9892 96.0307 94.9837 94.9755 93.383C93.9202 91.7822 91.4711 90.798 91.4711 90.798C91.4711 90.798 88.9454 89.2687 88.7735 87.8876C88.6016 86.5065 89.2681 85.4773 89.4373 84.8714C89.6066 84.2655 90.035 78.413 90.035 78.413C90.035 78.413 92.8782 57.5932 80.1965 59.4002C80.1965 59.4002 73.4047 62.4165 73.7353 69.8168C73.9752 74.5845 74.4954 79.334 75.2931 84.0406C75.2931 84.0406 73.9046 95.1768 79.686 98.0475C85.4675 100.918 90.8179 103.278 90.8179 103.278C90.8179 103.278 99.8603 104.249 100.987 104.654C101.413 104.808 102.182 104.016 102.936 102.929L103.365 103.329L110.733 110.223C110.733 110.223 120.241 112.232 122.886 108.446C125.121 105.26 110.241 100.646 105.467 99.2646Z" fill="black"/>
<path d="M75.9432 31.3283C75.6843 31.379 75.4363 31.4748 75.2106 31.6114C74.9461 31.831 74.9461 32.2067 74.88 32.5348C74.8024 32.9912 74.6214 33.4238 74.3511 33.7995C74.652 33.8216 74.9539 33.7717 75.2318 33.654C75.1865 34.0161 75.0977 34.3715 74.9673 34.7123C75.1321 34.7165 75.2946 34.6731 75.4353 34.5872C75.5761 34.5013 75.6891 34.3766 75.7607 34.2281C75.9007 33.93 76.0114 33.619 76.0913 33.2995C76.1162 33.2039 76.1593 33.114 76.2183 33.0349C76.4616 32.7465 76.9139 32.8761 77.2894 32.9132C77.602 32.9395 77.9159 32.8818 78.1986 32.746C78.4813 32.6101 78.7226 32.4011 78.8975 32.1406C79.2968 31.5347 79.3206 29.9843 78.3685 29.8202C77.3741 29.6562 76.7552 31.0267 75.9432 31.3283Z" fill="#965D7B"/>
<g opacity="0.1">
<path opacity="0.1" d="M75.1841 31.9372C75.2079 31.8075 75.2238 31.6726 75.2529 31.543C75.0016 31.7626 74.9884 32.1356 74.9223 32.4663C74.889 32.6572 74.8367 32.8442 74.7662 33.0246C74.9745 32.6926 75.1164 32.3233 75.1841 31.9372Z" fill="black"/>
<path opacity="0.1" d="M75.2687 34.1226C75.4004 33.7822 75.4892 33.4267 75.5332 33.0643C75.2684 33.1758 74.9816 33.2256 74.6948 33.2099C74.6113 33.3959 74.5094 33.5732 74.3906 33.739C74.6905 33.7622 74.9916 33.7132 75.2687 33.5961C75.2248 33.9585 75.1359 34.314 75.0042 34.6544C75.1689 34.6583 75.3313 34.6147 75.472 34.5289C75.6126 34.443 75.7257 34.3186 75.7976 34.1703C75.8635 34.05 75.9167 33.9232 75.9563 33.7919C75.8787 33.9004 75.775 33.9876 75.6548 34.0454C75.5347 34.1032 75.4018 34.1298 75.2687 34.1226Z" fill="black"/>
<path opacity="0.1" d="M77.5909 32.3235C77.2154 32.2865 76.7605 32.1568 76.5171 32.4452C76.4592 32.525 76.4162 32.6147 76.3902 32.7098C76.3664 32.7786 76.3452 32.85 76.3267 32.9215C76.578 32.723 76.9853 32.8289 77.3264 32.8633C77.6389 32.8888 77.9525 32.8307 78.2351 32.6949C78.5177 32.5591 78.759 32.3506 78.9345 32.0907C79.0146 31.9622 79.0744 31.8221 79.1117 31.6753C78.9305 31.8996 78.6972 32.0759 78.432 32.189C78.1669 32.302 77.8781 32.3482 77.5909 32.3235Z" fill="black"/>
</g>
<path d="M83.9045 53.1797L87.9377 58.0321L87.4114 62.9295L82.5371 55.2963L83.9045 53.1797Z" fill="#DCE6F2"/>
<path opacity="0.1" d="M87.9351 58.0321L87.4405 62.6384L87.4088 62.9295L83.0105 56.0398L82.5371 55.2963L82.6746 55.082L83.9018 53.1797L84.1742 53.5078L87.9351 58.0321Z" fill="black"/>
<path d="M90.0294 46.6099C88.6647 47.0015 87.3608 48.3456 86.2262 49.978C85.4593 51.1044 84.7735 52.2839 84.1739 53.5075C83.801 54.2537 83.473 54.9707 83.2006 55.5951L83.0102 56.0396C82.55 57.127 82.2935 57.8546 82.2935 57.8546C82.2935 57.8546 71.8466 49.9966 73.4996 49.4674C74.055 49.2901 74.785 48.0995 75.507 46.5994L75.5969 46.4089C76.0544 45.4458 76.5041 44.3716 76.9034 43.3609C77.7207 41.2839 78.3263 39.4795 78.3263 39.4795C78.3263 39.4795 94.1949 45.4193 90.0294 46.6099Z" fill="#EFB7B9"/>
<path d="M96.2793 39.0381C96.2793 39.0381 98.6913 43.4037 101.931 42.8084C105.171 42.213 103.838 40.4642 103.838 40.4642L96.2793 39.0381Z" fill="#444053"/>
<path d="M91.6057 190.153C89.4687 191.13 84.6367 190.153 84.6367 190.153L82.6002 190.026C79.9554 189.857 75.5281 189.571 73.9624 189.444C71.6773 189.256 72.238 188.32 72.238 188.32V182.66L83.3249 179.851C83.3249 179.851 87.7073 181.351 88.908 182.66C90.0479 183.909 90.7144 182.949 92.7482 183.309C92.8487 183.327 92.9545 183.348 93.0656 183.375C94.9962 183.817 96.0436 183.991 96.6625 185.592C96.7868 185.928 96.8867 186.273 96.9613 186.624C97.5326 189.201 93.74 189.182 91.6057 190.153Z" fill="#A36468"/>
<path opacity="0.1" d="M96.6625 185.592C96.2652 185.84 95.8476 186.054 95.4141 186.232C93.9595 186.896 92.5763 187.706 91.1058 188.333C89.6353 188.96 88.0511 189.407 86.4589 189.288C85.6258 189.227 84.7742 189.024 83.9781 189.262C83.4858 189.452 83.0221 189.709 82.6002 190.026C79.9555 189.857 75.5281 189.571 73.9624 189.444C71.6773 189.256 72.238 188.32 72.238 188.32V187.658C72.32 187.658 72.4126 187.634 72.5184 187.627C73.0657 187.618 73.6107 187.699 74.1317 187.867C75.2795 188.18 76.422 188.486 77.5699 188.793C77.6643 188.437 77.8302 188.104 78.0575 187.813C78.2849 187.523 78.5689 187.282 78.8922 187.105C79.5474 186.757 80.2827 186.589 81.0239 186.616C82.8039 186.64 84.4886 187.484 86.2659 187.568C86.7628 187.614 87.263 187.53 87.7179 187.325C87.9612 187.203 88.1754 187.026 88.4134 186.891C88.7944 186.707 89.1968 186.571 89.6115 186.486C90.777 186.196 91.9213 185.826 93.0365 185.38C93.3539 185.256 93.7241 185.031 93.6818 184.692C93.6263 184.243 92.9201 184.19 92.735 183.777C92.7023 183.702 92.6872 183.621 92.6909 183.54C92.6946 183.459 92.7169 183.38 92.7561 183.309C92.8566 183.327 92.9624 183.348 93.0735 183.375C94.9963 183.817 96.0436 183.991 96.6625 185.592Z" fill="black"/>
<path d="M89.3472 202.535C86.8347 203.683 81.1484 202.535 81.1484 202.535L78.7549 202.395C75.6553 202.196 70.4345 201.865 68.5911 201.709C65.9014 201.487 66.5626 200.386 66.5626 200.386V193.716L79.6092 190.409C79.6092 190.409 84.7665 192.174 86.1788 193.716C87.5197 195.185 88.2946 194.055 90.6987 194.478C90.8177 194.5 90.942 194.526 91.0716 194.555C93.3435 195.084 94.5759 195.283 95.3033 197.167C95.4505 197.562 95.5681 197.968 95.655 198.381C96.3109 201.413 91.8598 201.389 89.3472 202.535Z" fill="#A36468"/>
<path opacity="0.1" d="M95.298 197.167C94.8306 197.459 94.3396 197.711 93.8301 197.921C92.119 198.702 90.4898 199.654 88.7601 200.392C87.0304 201.131 85.1659 201.654 83.2907 201.517C82.3122 201.445 81.3098 201.199 80.3815 201.485C79.7998 201.712 79.2524 202.018 78.7549 202.395C75.6553 202.197 70.4345 201.866 68.5911 201.71C65.9014 201.488 66.5626 200.387 66.5626 200.387V199.609C66.6721 199.591 66.7824 199.579 66.8931 199.572C67.5375 199.56 68.1792 199.656 68.7921 199.855L72.8359 200.945C72.9486 200.525 73.1458 200.132 73.4154 199.79C73.6851 199.448 74.0216 199.165 74.4043 198.958C75.1751 198.547 76.0413 198.348 76.9142 198.382C79.0088 198.411 80.9898 199.403 83.0818 199.503C83.6644 199.557 84.2509 199.459 84.785 199.22C85.0733 199.075 85.314 198.866 85.6049 198.71C86.0522 198.49 86.526 198.33 87.0146 198.233C88.3785 197.889 89.7179 197.454 91.024 196.932C91.3969 196.783 91.8333 196.519 91.7831 196.122C91.717 195.593 90.8865 195.529 90.667 195.043C90.63 194.955 90.6131 194.86 90.6177 194.764C90.6223 194.669 90.6482 194.576 90.6934 194.492C90.8124 194.513 90.9367 194.54 91.0663 194.569C93.3382 195.077 94.5707 195.283 95.298 197.167Z" fill="black"/>
<path d="M83.661 156.766L82.9549 173.389C82.9549 173.389 81.897 176.784 82.4709 177.755C83.0448 178.726 84.0128 179.694 83.661 180.268C83.3093 180.842 79.0777 187.049 77.7103 184.668C76.343 182.287 74.9941 171.968 74.9941 171.968L76.2557 159.224L83.661 156.766Z" fill="#444053"/>
<path d="M86.7235 115.349L88.6859 117.973V140.801C88.6859 140.801 89.2599 146.887 88.6859 148.143C88.112 149.4 85.2028 151.914 85.2028 151.914L82.7563 139.346L83.2853 126.051L86.7235 115.349Z" fill="#444053"/>
<path opacity="0.1" d="M83.661 156.766L82.9549 173.389C82.9549 173.389 81.897 176.784 82.4709 177.755C83.0448 178.726 84.0128 179.694 83.661 180.268C83.3093 180.842 79.0777 187.049 77.7103 184.668C76.343 182.287 74.9941 171.968 74.9941 171.968L76.2557 159.224L83.661 156.766Z" fill="black"/>
<path opacity="0.1" d="M86.7235 115.349L88.6859 117.973V140.801C88.6859 140.801 89.2599 146.887 88.6859 148.143C88.112 149.4 85.2028 151.914 85.2028 151.914L82.7563 139.346L83.2853 126.051L86.7235 115.349Z" fill="black"/>
<path d="M88.6858 105.612V117.96L86.4827 127.572C86.4827 127.572 85.7766 150.768 86.3928 153.588C87.009 156.408 84.277 159.057 84.277 159.057C84.277 159.057 82.6901 159.234 82.6901 160.467C82.6901 161.7 80.0454 165.23 80.0454 165.23L80.1326 172.109C80.1326 172.109 81.2805 184.986 79.5164 187.454C77.7523 189.923 80.1326 190.277 80.1326 190.277C77.9295 197.508 67.3505 195.834 66.3957 195.04C65.4409 194.246 66.3957 178.636 66.3957 178.636C66.3957 178.636 68.7601 154.824 70.6115 153.765C72.4628 152.707 70.7014 151.384 71.3176 149.797C71.9339 148.209 70.7014 143.888 70.7014 143.888C70.7014 143.888 70.1724 138.772 68.85 136.303C67.5277 133.834 67.7022 127.043 67.7022 127.043C67.7022 127.043 63.9995 122.103 62.8993 120.164C61.7991 118.224 61.0903 113.197 61.3548 109.403C61.5346 106.839 62.8808 103.106 63.7351 100.958C64.145 99.9285 64.4412 99.2617 64.4412 99.2617L64.6925 99.3279L79.1382 103.111L88.6858 105.612Z" fill="#444053"/>
<path opacity="0.1" d="M90.0295 46.6099C88.6648 47.0015 87.3609 48.3455 86.2263 49.978H85.9301C84.2671 49.9792 82.6331 49.5411 81.1935 48.7082C79.7539 47.8752 78.5596 46.6768 77.7313 45.2341C77.3852 44.6363 77.1067 44.0018 76.9009 43.3423C77.7181 41.2654 78.3238 39.4609 78.3238 39.4609C78.3238 39.4609 94.195 45.4193 90.0295 46.6099Z" fill="black"/>
<path d="M95.3852 39.9962C95.3875 41.4438 95.0577 42.8727 94.421 44.1728C93.7844 45.4728 92.8579 46.6094 91.713 47.4948C90.5681 48.3802 89.2354 48.9909 87.8174 49.2799C86.3994 49.5688 84.934 49.5283 83.5341 49.1615C82.1343 48.7946 80.8372 48.1112 79.743 47.1639C78.6487 46.2165 77.7864 45.0306 77.2225 43.6973C76.6586 42.3641 76.4081 40.9191 76.4904 39.4738C76.5726 38.0285 76.9854 36.6213 77.697 35.3607C77.9836 34.8485 78.3184 34.3648 78.6967 33.9161C79.3204 33.1728 80.0534 32.5287 80.8707 32.0058C82.2511 31.1282 83.8355 30.6239 85.4691 30.5421C87.1026 30.4603 88.7294 30.8038 90.1906 31.5391C91.6517 32.2743 92.8972 33.3762 93.8054 34.737C94.7136 36.0978 95.2533 37.671 95.372 39.303C95.3772 39.5358 95.3852 39.766 95.3852 39.9962Z" fill="#EFB7B9"/>
<path opacity="0.1" d="M87.4402 62.6385L87.4084 62.9296L83.0102 56.0505C82.55 57.1379 82.2934 57.8655 82.2934 57.8655C82.2934 57.8655 71.8466 49.9969 73.4996 49.4677C74.055 49.2905 74.785 48.0998 75.507 46.5997L75.5969 46.4092C76.3639 48.6952 80.8203 53.2644 82.6743 55.0953C82.8885 55.307 83.0657 55.4816 83.2032 55.6086L83.4862 55.8732L83.6343 56.0214C84.3088 56.7172 87.1545 59.7864 87.4402 62.6385Z" fill="black"/>
<path d="M90.7276 85.9796L90.2463 101.476L90.1616 104.236C90.1616 104.236 84.4595 103.706 79.1382 103.124C74.8537 102.656 70.8151 102.151 70.1936 101.854C69.4002 101.481 67.6996 101.193 66.3587 101.01C65.322 100.87 64.5074 100.796 64.5074 100.796C64.5074 100.796 64.2032 100.886 63.7351 100.971C62.7142 101.156 60.9211 101.307 59.8764 100.399C58.5408 99.2377 62.0504 95.0176 62.9258 94.0043L63.1189 93.7847L62.7883 90.7288L61.9287 82.8046C61.9287 82.8046 61.3998 78.2406 60.6063 75.7932C60.3942 75.0974 60.2412 74.3849 60.1488 73.6633C59.854 71.4281 60.005 69.1565 60.5931 66.98C60.8444 66.0552 61.0038 65.1078 61.0692 64.1517C61.2014 61.7043 68.6729 52.2455 70.5242 51.3857C71.357 50.9971 72.0272 50.3286 72.4179 49.4966C72.5469 49.2349 72.6437 48.9586 72.7062 48.6737C73.4996 45.2342 75.507 46.5994 75.507 46.5994C75.991 49.2902 83.4836 56.4127 83.4836 56.4127L83.6317 56.5609C84.3749 57.3228 87.6861 60.9 87.4507 63.9532C87.4037 65.0896 87.5733 66.2246 87.9506 67.2975C89.4746 72.0983 90.3508 77.0812 90.5557 82.114L90.7276 85.9796Z" fill="#DCE6F2"/>
<path opacity="0.1" d="M80.1114 67.5781C80.1114 67.5781 78.26 72.076 76.8715 72.8036C75.483 73.5312 80.7726 74.3382 80.1114 67.5781Z" fill="black"/>
<path opacity="0.1" d="M81.5002 75.9785C81.5002 75.9785 77.2686 76.5077 77.2686 77.3014C77.2686 78.0952 81.5002 75.9785 81.5002 75.9785Z" fill="black"/>
<path opacity="0.1" d="M85.93 81.1377C85.93 81.1377 79.7809 94.2344 78.0618 94.6313C76.3427 95.0282 85.93 81.1377 85.93 81.1377Z" fill="black"/>
<path opacity="0.1" d="M83.367 57.0775L78.2811 59.2893L72.1426 50.0132C72.2716 49.7515 72.3684 49.4752 72.4309 49.1903C73.2243 45.7508 75.2317 47.116 75.2317 47.116C75.7157 49.8068 83.2083 56.9293 83.2083 56.9293L83.367 57.0775Z" fill="black"/>
<path d="M83.6316 56.5482L78.5457 58.7601L72.4072 49.4839C72.5362 49.2222 72.633 48.9459 72.6955 48.661C73.4889 45.2215 75.4963 46.5867 75.4963 46.5867C75.9803 49.2775 83.4729 56.4 83.4729 56.4L83.6316 56.5482Z" fill="#DCE6F2"/>
<path opacity="0.1" d="M90.1616 104.236C90.1616 104.236 84.4594 103.707 79.1382 103.125L88.6858 105.625V108.535C88.2679 108.914 87.9056 109.109 87.6702 109.009C86.57 108.546 77.591 107.091 77.591 107.091C77.591 107.091 72.3755 104.445 66.7474 101.27C66.6108 101.194 66.4784 101.111 66.3507 101.021C65.6945 100.575 65.129 100.009 64.6845 99.3516C63.6451 97.8462 63.1373 95.9121 62.9178 94.0151C62.7944 92.9279 62.7484 91.8333 62.7803 90.7395C62.8075 89.4994 62.9207 88.2626 63.1188 87.0381C62.5745 82.2953 62.3096 77.5246 62.3254 72.7507C62.3915 65.3425 69.334 62.6967 69.334 62.6967C82.095 61.5722 78.1384 82.2095 78.1384 82.2095C78.1384 82.2095 77.4005 88.0302 77.1995 88.6256C76.9985 89.2209 76.2765 90.213 76.3744 91.6021C76.4722 92.9911 78.9107 94.6527 78.9107 94.6527C78.9107 94.6527 81.291 95.7692 82.2722 97.4228C82.9863 98.6426 87.6252 100.296 90.2462 101.476L90.1616 104.236Z" fill="black"/>
<path opacity="0.1" d="M94.4359 34.1221C94.4408 34.5579 94.3505 34.9895 94.1714 35.3868C94.0358 35.711 93.8785 36.0257 93.7006 36.3287C93.4223 36.8861 93.0272 37.377 92.5422 37.768C91.9313 38.2046 91.159 38.3263 90.4264 38.5036C89.6938 38.6808 88.9321 38.9639 88.5142 39.5884C88.2878 39.9898 88.1363 40.4291 88.0673 40.8848C87.9972 41.3401 87.8155 41.771 87.5383 42.1389C87.394 42.3185 87.1941 42.4451 86.9701 42.4988C86.746 42.5524 86.5105 42.53 86.3006 42.4352C86.0794 42.2861 85.9117 42.0701 85.8219 41.8188C85.5204 41.1388 85.4437 40.3847 85.322 39.6519C85.2003 38.919 85.0284 38.1649 84.5788 37.5749C84.1292 36.9849 83.3331 36.596 82.627 36.8261C82.3906 36.9172 82.1751 37.055 81.9933 37.2314C81.8115 37.4078 81.6672 37.6191 81.5691 37.8527C81.3736 38.3203 81.2394 38.8112 81.1697 39.3132C80.8418 41.1088 80.4547 42.8938 80.0087 44.6683C79.9951 44.741 79.9652 44.8098 79.9214 44.8694C79.8511 44.9395 79.7562 44.9794 79.6569 44.9805C79.0645 45.0599 78.4959 44.6445 77.8981 44.6895C77.8365 44.6936 77.7755 44.7033 77.7157 44.7186C76.7493 43.0384 76.3225 41.1016 76.4933 39.1707C76.6641 37.2397 77.4241 35.408 78.6704 33.9237L78.718 33.9105C79.1156 33.7693 79.4769 33.5415 79.7759 33.2437C80.1577 32.8615 80.5113 32.4521 80.8338 32.0187L81.0454 31.7541C81.6533 31.0215 82.3458 30.3634 83.1083 29.7936C83.3165 29.623 83.5553 29.4937 83.8118 29.4126C84.0314 29.3698 84.2565 29.3627 84.4783 29.3914C85.3917 29.5011 86.3125 29.5356 87.2315 29.4946C87.8719 29.3939 88.5173 29.3286 89.1649 29.2988C90.839 29.3465 92.2672 30.5291 93.3251 31.8256C93.8937 32.4897 94.4015 33.2543 94.4359 34.1221Z" fill="black"/>
<path d="M76.4617 35.6115C76.0941 36.2148 75.4302 36.6249 75.1816 37.2863C74.8167 38.2467 75.4329 39.4426 74.8669 40.2999C74.6791 40.5883 74.3697 40.8026 74.2639 41.1333C74.0841 41.6916 74.576 42.2869 74.449 42.861C74.3221 43.4352 73.5657 43.9193 73.7667 44.4803C73.8855 44.7249 74.0938 44.9144 74.3485 45.0094C74.7493 45.2394 75.2105 45.3418 75.6709 45.3031C76.3929 45.184 76.9298 44.475 77.6624 44.422C78.2575 44.3797 78.8261 44.7925 79.4186 44.7157C79.5178 44.7123 79.6122 44.6717 79.683 44.602C79.728 44.543 79.7579 44.474 79.7703 44.4009C80.2146 42.6282 80.6025 40.8432 80.934 39.0458C81.0015 38.5436 81.1349 38.0526 81.3307 37.5853C81.4296 37.3522 81.5742 37.1413 81.7559 36.965C81.9376 36.7887 82.1527 36.6505 82.3886 36.5587C83.0948 36.3312 83.8882 36.7175 84.3405 37.3075C84.7927 37.8975 84.9646 38.6516 85.0863 39.3844C85.208 40.1173 85.2847 40.8714 85.5835 41.5514C85.6743 41.8035 85.8429 42.0203 86.0649 42.1705C86.4616 42.4007 86.9958 42.2181 87.3 41.8741C87.5786 41.5061 87.7605 41.074 87.8289 40.6174C87.8979 40.1625 88.0494 39.724 88.2759 39.3236C88.6938 38.6992 89.4581 38.4161 90.1881 38.2388C90.918 38.0615 91.6876 37.9372 92.3039 37.5006C92.7882 37.11 93.1832 36.6201 93.4623 36.064C93.8537 35.3813 94.2187 34.6405 94.1869 33.8547C94.1526 32.9975 93.6448 32.2328 93.1026 31.5661C92.0447 30.2696 90.6139 29.087 88.9397 29.042C88.292 29.0691 87.6464 29.1345 87.0064 29.2378C86.0873 29.2791 85.1664 29.2437 84.2532 29.1319C84.0311 29.1054 83.8063 29.1134 83.5867 29.1558C83.3298 29.2342 83.0914 29.3638 82.8858 29.5368C82.1226 30.1056 81.4292 30.7628 80.8203 31.4947C80.4277 32.0155 80.0018 32.5104 79.5455 32.9763C79.2464 33.2746 78.8852 33.5032 78.4876 33.6457C78.2231 33.7198 77.9586 33.6669 77.7074 33.7489C76.9272 33.9949 76.824 35.0136 76.4617 35.6115Z" fill="#965D7B"/>
<path opacity="0.1" d="M101.931 42.8057C99.8153 43.1946 98.0619 41.4828 97.0912 40.234C96.7931 39.8547 96.5218 39.4551 96.2793 39.0381L103.542 40.4086L103.835 40.4642C103.835 40.4642 105.171 42.2131 101.931 42.8057Z" fill="black"/>
<g opacity="0.1">
<path opacity="0.1" d="M74.4491 42.1042C74.4787 41.7582 74.4262 41.4101 74.2957 41.0883C74.2957 41.1147 74.2719 41.1412 74.264 41.1676C74.1503 41.5222 74.3037 41.8899 74.4015 42.2577C74.4225 42.2083 74.4385 42.1569 74.4491 42.1042Z" fill="black"/>
<path opacity="0.1" d="M75.0786 37.7733C75.0514 38.1392 75.0585 38.5068 75.0998 38.8713C75.1269 38.5055 75.1198 38.1379 75.0786 37.7733Z" fill="black"/>
<path opacity="0.1" d="M93.4466 35.2993C93.1682 35.8567 92.7732 36.3476 92.2882 36.7386C91.6773 37.1752 90.9076 37.2969 90.1724 37.4742C89.4371 37.6514 88.6781 37.9345 88.2602 38.559C88.0341 38.9605 87.8827 39.3998 87.8132 39.8554C87.7444 40.3119 87.5625 40.7439 87.2843 41.1122C86.9801 41.4561 86.4459 41.6413 86.0492 41.4085C85.8272 41.2584 85.6586 41.0416 85.5678 40.7894C85.269 40.1094 85.1896 39.358 85.0706 38.6224C84.9516 37.8869 84.7744 37.1355 84.3248 36.5455C83.8752 35.9555 83.0791 35.5665 82.3729 35.7967C82.1368 35.8882 81.9215 36.0261 81.7397 36.2025C81.558 36.3789 81.4136 36.59 81.315 36.8233C81.1192 37.2906 80.9859 37.7816 80.9183 38.2838C80.5886 40.0812 80.2007 41.8662 79.7546 43.6389C79.7422 43.712 79.7123 43.781 79.6673 43.84C79.5965 43.9097 79.5022 43.9503 79.4029 43.9537C78.8104 44.0305 78.2418 43.6177 77.6467 43.6601C76.9141 43.713 76.3773 44.4221 75.6552 44.5385C75.1947 44.5798 74.7327 44.4772 74.3328 44.2448C74.149 44.1657 73.9841 44.0484 73.8489 43.9008C73.787 43.9895 73.746 44.091 73.7291 44.1978C73.7121 44.3046 73.7196 44.4138 73.751 44.5173C73.8675 44.7636 74.0767 44.9539 74.3328 45.0465C74.7327 45.2789 75.1947 45.3815 75.6552 45.3401C76.3773 45.2237 76.9141 44.5147 77.6467 44.4617C78.2418 44.4194 78.8104 44.8322 79.4029 44.7554C79.5022 44.752 79.5965 44.7114 79.6673 44.6417C79.7123 44.5827 79.7422 44.5137 79.7546 44.4406C80.1989 42.6767 80.5868 40.8917 80.9183 39.0855C80.9859 38.5833 81.1192 38.0923 81.315 37.625C81.4136 37.3917 81.558 37.1805 81.7397 37.0042C81.9215 36.8278 82.1368 36.6898 82.3729 36.5984C83.0791 36.3682 83.8725 36.7572 84.3248 37.3472C84.777 37.9372 84.949 38.6912 85.0706 39.4241C85.1923 40.157 85.269 40.9111 85.5678 41.591C85.6586 41.8432 85.8272 42.06 86.0492 42.2102C86.4459 42.4403 86.9801 42.2578 87.2843 41.9138C87.5625 41.5455 87.7444 41.1135 87.8132 40.6571C87.8827 40.2015 88.0341 39.7622 88.2602 39.3606C88.6781 38.7362 89.4424 38.4558 90.1724 38.2758C90.9023 38.0959 91.672 37.9769 92.2882 37.5403C92.7732 37.1493 93.1682 36.6584 93.4466 36.101C93.838 35.421 94.203 34.6802 94.1713 33.8944C94.1661 33.7934 94.1555 33.6927 94.1395 33.5928C94.0119 34.1983 93.7773 34.7763 93.4466 35.2993Z" fill="black"/>
</g>
<path opacity="0.1" d="M94.1817 35.379C94.86 36.5854 95.262 37.9273 95.3587 39.308C93.0022 37.9851 90.7859 36.5326 89.6671 36.0272C87.7179 35.1462 80.4289 35.2785 77.689 35.3605C77.9756 34.8483 78.3103 34.3646 78.6887 33.9159C79.3148 33.1719 80.0505 32.5278 80.8706 32.0056C81.9567 31.3161 83.1719 30.8554 84.442 30.6516C85.7121 30.4479 87.0103 30.5054 88.2575 30.8206C89.5046 31.1359 90.6743 31.7022 91.6952 32.4851C92.7161 33.2679 93.5667 34.2508 94.195 35.3737L94.1817 35.379Z" fill="black"/>
<path opacity="0.1" d="M102.592 41.6839C101.32 42.0755 99.2441 41.3188 97.0912 40.234C96.7931 39.8547 96.5218 39.4551 96.2793 39.0381L103.542 40.4086C104.023 40.7367 104.145 41.205 102.592 41.6839Z" fill="black"/>
<path d="M86.4932 26.2054C86.4932 26.2054 79.5507 25.8085 77.5989 29.5788L77.2842 32.9204L76.7552 32.8622L76.6494 35.135C76.6494 35.135 87.2602 34.6719 89.6749 35.762C92.0896 36.8521 99.5928 42.3448 102.6 41.4187C105.607 40.4927 102.335 39.6328 102.335 39.6328C102.335 39.6328 98.1963 37.8787 98.1963 36.5028C98.1963 35.127 97.1702 27.859 86.4932 26.2054Z" fill="#444053"/>
<path opacity="0.1" d="M73.103 150.082C73.103 150.082 77.533 154.381 79.4505 154.051C79.4505 154.051 74.0287 153.588 73.103 150.082Z" fill="black"/>
<path opacity="0.1" d="M72.1772 152.074C72.1772 152.074 72.574 154.286 73.6319 154.069C74.6898 153.852 72.1772 152.074 72.1772 152.074Z" fill="black"/>
<path opacity="0.1" d="M79.1197 189.042C79.1197 189.042 72.8304 193.937 73.891 194.069C74.9516 194.201 79.1197 189.042 79.1197 189.042Z" fill="black"/>
<path d="M87.5327 91.8963L107.897 88.5811V107.869L88.5483 106.856L87.5327 91.8963Z" fill="#336B68"/>
<path opacity="0.05" d="M87.5327 91.8963L107.897 88.5811V107.869L88.5483 106.856L87.5327 91.8963Z" fill="black"/>
<path d="M107.897 88.5811L132.319 90.4093L130.968 107.194L107.897 107.869V88.5811Z" fill="#336B68"/>
<path opacity="0.1" d="M107.897 88.5811L132.319 90.4093L130.968 107.194L107.897 107.869V88.5811Z" fill="black"/>
<path d="M115.406 82.6934L107.897 88.5803L132.319 90.4085L136.31 84.384L115.406 82.6934Z" fill="#336B68"/>
<path d="M80.1592 85.4665L98.4927 83.2334L107.898 88.5806L87.5328 91.8958L80.1592 85.4665Z" fill="#336B68"/>
<path d="M105.432 82.8252C105.81 82.4062 105.777 81.7573 105.358 81.379L102.317 78.6353C102.123 78.4602 101.872 78.3666 101.611 78.3717C101.325 78.3773 101.062 78.4972 100.871 78.7094C100.632 78.9736 100.549 79.3359 100.647 79.6788C100.726 79.9551 101.745 83.4228 102.171 84.8737C103.095 84.6116 104.883 83.4336 105.432 82.8252Z" fill="#404040"/>
<path d="M106.73 79.8588L103.689 77.115C103.107 76.5899 102.355 76.309 101.572 76.3244C100.727 76.3409 99.9172 76.7103 99.351 77.3377C98.6365 78.1298 98.3851 79.2154 98.6784 80.2419C98.78 80.5976 100.327 85.8592 100.393 86.083L100.474 86.3606L100.689 86.5544C100.908 86.7524 101.299 86.9859 101.913 86.9739C102.651 86.9594 103.622 86.5853 104.798 85.8618C105.676 85.3214 106.542 84.6525 106.953 84.1973C108.088 82.9398 107.988 80.9936 106.73 79.8588ZM100.871 78.7097C101.063 78.4974 101.326 78.3775 101.612 78.3719C101.873 78.3668 102.124 78.4603 102.318 78.6355L105.358 81.3792C105.777 81.7575 105.811 82.4064 105.433 82.8255C104.884 83.4338 103.096 84.6119 102.172 84.8741C101.745 83.4232 100.726 79.9555 100.648 79.6791C100.549 79.3361 100.633 78.9737 100.871 78.7097Z" fill="#737373"/>
<path d="M118.967 78.3548C118.767 78.1501 118.499 78.0406 118.213 78.0462C117.952 78.0513 117.706 78.1546 117.519 78.3372L114.588 81.1978C114.184 81.5922 114.176 82.2419 114.57 82.6459C115.142 83.2322 116.975 84.3394 117.909 84.5652C118.278 83.0985 119.16 79.5939 119.228 79.3147C119.313 78.9681 119.215 78.6093 118.967 78.3548Z" fill="#404040"/>
<path d="M120.432 76.9246C119.842 76.3198 119.018 75.9824 118.173 75.9989C117.39 76.0143 116.649 76.3242 116.088 76.8719L113.157 79.7326C111.945 80.9156 111.921 82.8643 113.104 84.0765C113.533 84.5152 114.424 85.1497 115.323 85.6553C116.527 86.3321 117.511 86.6681 118.249 86.6537C118.249 86.6537 118.249 86.6537 118.249 86.6537C118.863 86.6417 119.244 86.393 119.456 86.1866L119.663 85.9846L119.734 85.704C119.791 85.4778 121.13 80.1597 121.218 79.8003C121.471 78.7629 121.177 77.688 120.432 76.9246ZM114.57 82.646C114.176 82.242 114.184 81.5923 114.588 81.198L117.519 78.3373C117.706 78.1547 117.952 78.0514 118.213 78.0463C118.499 78.0407 118.767 78.1503 118.967 78.3549C119.215 78.6094 119.313 78.9682 119.228 79.3148C119.16 79.594 118.278 83.0987 117.908 84.5653C116.975 84.3395 115.142 83.2324 114.57 82.646Z" fill="#737373"/>
<path d="M110.287 97.3373L96.8769 92.4222L96.8632 91.7219C96.8342 90.2415 97.2659 88.645 98.1464 86.9766C98.9203 85.5103 100.029 84.033 101.352 82.7043C104.099 79.9465 107.378 78.2025 109.911 78.153C112.444 78.1034 115.79 79.7178 118.642 82.366C120.016 83.6418 121.182 85.0746 122.012 86.5095C122.957 88.1421 123.451 89.7205 123.48 91.201L123.494 91.9013L110.287 97.3373Z" fill="#D9D9D9"/>
<path d="M109.911 78.1523C112.444 78.1028 115.789 79.7171 118.642 82.3653C120.016 83.6412 121.182 85.074 122.012 86.5089C122.957 88.1415 123.451 89.7199 123.48 91.2004L123.494 91.9007L110.287 97.3367" fill="#CDCDD0"/>
<path d="M108.399 88.0817C108.351 85.6356 106.322 83.6845 103.876 83.7324L100.337 83.8017C99.459 84.8241 98.7127 85.9029 98.1464 86.976C97.266 88.6443 96.8343 90.2409 96.8633 91.7213L96.877 92.4216L97.715 92.7287L104.049 92.6047C106.496 92.5569 108.447 90.5278 108.399 88.0817Z" fill="#737373"/>
<path d="M123.48 91.2008C123.451 89.7204 122.957 88.142 122.012 86.5093C121.404 85.4591 120.616 84.4104 119.699 83.4231L116.16 83.4924C113.714 83.5403 111.763 85.5693 111.811 88.0154C111.859 90.4614 113.888 92.4126 116.334 92.3647L122.668 92.2407L123.494 91.901L123.48 91.2008Z" fill="#737373"/>
<path d="M111.035 83.2508L110.937 78.2162C110.583 78.1679 110.24 78.1458 109.911 78.1522C109.582 78.1586 109.24 78.1943 108.889 78.2563L108.988 83.2909L111.035 83.2508Z" fill="#737373"/>
<path d="M104.325 89.2331C104.89 89.222 105.34 88.7547 105.328 88.1893C105.317 87.6239 104.85 87.1746 104.285 87.1857C103.719 87.1967 103.27 87.664 103.281 88.2294C103.292 88.7948 103.759 89.2441 104.325 89.2331Z" fill="#404040"/>
<path d="M110.855 91.4952L110.172 91.5086L109.49 91.5219C109.113 91.5293 108.813 91.8408 108.821 92.2178C108.834 92.9002 110.212 93.556 110.212 93.556C110.212 93.556 111.564 92.8468 111.551 92.1643C111.543 91.7873 111.232 91.4878 110.855 91.4952Z" fill="#404040"/>
<path d="M115.927 89.0063C116.492 88.9952 116.942 88.5279 116.931 87.9625C116.92 87.3971 116.452 86.9478 115.887 86.9588C115.322 86.9699 114.872 87.4372 114.883 88.0026C114.894 88.568 115.362 89.0173 115.927 89.0063Z" fill="#404040"/>
<path d="M112.362 93.5888V119.96L102.822 118.981L98.6725 118.557L97.4083 118.425L93.2613 117.999L87.5327 117.412V91.8955L107.895 93.2819L112.362 93.5888Z" fill="#336B68"/>
<path d="M132.319 90.4092V116.126L124.673 117.595L120.955 118.309L112.362 119.96V93.5894L132.319 90.4092Z" fill="#336B68"/>
<path d="M80.1592 97.4464L87.5328 91.8955L112.362 93.5888L108.707 99.7483L80.1592 97.4464Z" fill="#336B68"/>
<path opacity="0.05" d="M132.319 90.4092V116.126L124.673 117.595L120.955 118.309L112.362 119.96V93.5894L132.319 90.4092Z" fill="black"/>
<path d="M132.319 90.4092L112.362 93.5894L118.857 99.4102L140.235 95.8225L132.319 90.4092Z" fill="#336B68"/>
<path opacity="0.1" d="M124.673 117.594L120.955 118.308V112.813L124.438 111.935L124.673 117.594Z" fill="white"/>
<path opacity="0.1" d="M102.822 115.346V118.981L98.6724 118.558V115.346H102.822Z" fill="white"/>
<path opacity="0.1" d="M97.4082 116.491V118.425L93.2612 117.999V116.491H97.4082Z" fill="white"/>
<path opacity="0.1" d="M109.865 113.417C107.022 117.055 97.6332 114.542 97.6332 114.542L90.6563 107.26L89.7095 106.274L91.5608 102.834C91.5608 102.834 92.0898 103.009 92.9731 103.316C97.6491 104.951 112.259 110.356 109.865 113.417Z" fill="black"/>
<path d="M109.601 112.888C106.757 116.526 97.3686 114.012 97.3686 114.012L90.3916 106.731L89.4448 105.744L91.2962 102.305C91.2962 102.305 91.8251 102.479 92.7085 102.786C97.3844 104.421 111.994 109.827 109.601 112.888Z" fill="#EFB7B9"/>
<path opacity="0.1" d="M92.6982 102.786C92.3121 103.897 91.3309 105.543 90.3814 106.731L89.4346 105.744L91.2859 102.305C91.2859 102.305 91.8175 102.479 92.6982 102.786Z" fill="black"/>
<path d="M69.5987 61.6381C69.5987 61.6381 62.6561 64.2839 62.59 71.6922C62.5742 76.4661 62.8392 81.2367 63.3835 85.9795C63.3835 85.9795 61.3999 97.0257 67.02 100.201C72.6401 103.376 77.8636 106.021 77.8636 106.021C77.8636 106.021 86.8425 107.477 87.9454 107.94C89.0483 108.403 92.8806 102.45 92.2855 101.457C91.6904 100.465 83.5154 98.0179 82.5448 96.3643C81.5742 94.7107 79.1833 93.5968 79.1833 93.5968C79.1833 93.5968 76.7448 91.9326 76.647 90.5435C76.5491 89.1545 77.2685 88.1623 77.4721 87.567C77.6758 86.9717 78.4137 81.1509 78.4137 81.1509C78.4137 81.1509 82.3597 60.5004 69.5987 61.6381Z" fill="#DCE6F2"/>
<path opacity="0.1" d="M72.7721 86.165C72.7721 86.165 63.3832 87.2234 64.1105 90.5306C64.1105 90.5306 67.6783 87.1943 72.7721 86.165Z" fill="black"/>
<path opacity="0.1" d="M72.7719 87.4883C72.7719 87.4883 67.4427 91.3908 68.4212 91.6554C69.3998 91.92 72.7719 87.4883 72.7719 87.4883Z" fill="black"/>
<path opacity="0.1" d="M75.1524 89.0752C75.1524 89.0752 73.6317 91.8109 74.4912 91.6681C75.3508 91.5252 75.1524 89.0752 75.1524 89.0752Z" fill="black"/>
<path d="M172.909 29.7347C172.909 29.7347 162.859 29.1288 164.033 36.1825C164.033 36.1825 163.798 37.4287 164.927 37.9949C164.927 37.9949 164.945 37.4657 165.958 37.6483C166.319 37.709 166.686 37.7268 167.051 37.7012C167.545 37.6682 168.015 37.474 168.389 37.1482C168.389 37.1482 171.216 35.9814 172.316 31.3566C172.316 31.3566 173.131 30.3459 173.11 30.0866L171.412 30.8142C171.412 30.8142 171.991 32.0392 171.534 33.0578C171.534 33.0578 171.481 30.8592 171.153 30.9094C171.087 30.9094 170.272 31.3354 170.272 31.3354C170.272 31.3354 171.269 33.4679 170.515 35.021C170.515 35.021 170.801 32.3911 169.96 31.4889L168.764 32.1874C168.764 32.1874 169.931 34.3913 169.14 36.1905C169.14 36.1905 169.344 33.4309 168.513 32.3567L167.429 33.2007C167.429 33.2007 168.526 35.3756 167.857 36.8678C167.857 36.8678 167.77 33.6558 167.193 33.4124C167.193 33.4124 166.247 34.2484 166.104 34.5924C166.104 34.5924 166.852 36.1799 166.387 37.0027C166.387 37.0027 166.101 34.8623 165.858 34.8517C165.858 34.8517 164.914 36.2698 164.816 37.2329C164.862 36.3351 165.141 35.4648 165.628 34.7088C165.084 34.8118 164.582 35.0721 164.184 35.4576C164.184 35.4576 164.329 34.4548 165.86 34.3675C165.86 34.3675 166.654 33.2907 166.85 33.2245C166.85 33.2245 165.326 33.0975 164.403 33.5076C164.403 33.5076 165.215 32.5631 167.13 32.9785L168.188 32.1053C168.188 32.1053 166.183 31.8408 165.332 32.1344C165.332 32.1344 166.31 31.2984 168.476 31.9069L169.64 31.2111C169.64 31.2111 167.931 30.8406 166.913 30.9756C166.913 30.9756 167.987 30.3962 169.981 31.0232L170.814 30.6502C170.814 30.6502 169.561 30.4041 169.196 30.3644C168.831 30.3247 168.809 30.2242 168.809 30.2242C169.602 30.0921 170.417 30.1837 171.161 30.4888C171.161 30.4888 172.946 29.8458 172.909 29.7347Z" fill="#336B68"/>
<path d="M203.445 65.014C203.445 65.014 193.395 64.4081 194.569 71.4618C194.569 71.4618 194.334 72.708 195.463 73.2742C195.463 73.2742 195.482 72.745 196.497 72.9276C196.858 72.9883 197.224 73.0061 197.589 72.9805C198.078 72.9451 198.542 72.752 198.912 72.4302C198.912 72.4302 201.742 71.2608 202.842 66.6359C202.842 66.6359 203.654 65.6278 203.622 65.3685L201.924 66.0935C201.924 66.0935 202.503 67.3185 202.048 68.3371C202.048 68.3371 201.993 66.1385 201.668 66.1887C201.601 66.1887 200.784 66.6147 200.784 66.6147C200.784 66.6147 201.784 68.7499 201.03 70.3003C201.03 70.3003 201.316 67.6704 200.472 66.7682L199.29 67.4587C199.29 67.4587 200.456 69.6627 199.666 71.4618C199.666 71.4618 199.869 68.7023 199.039 67.6281L197.957 68.4747C197.957 68.4747 199.052 70.6469 198.385 72.1392C198.385 72.1392 198.298 68.9271 197.722 68.6837C197.722 68.6837 196.775 69.5198 196.629 69.8638C196.629 69.8638 197.38 71.4512 196.915 72.2741C196.915 72.2741 196.629 70.1336 196.386 70.1231C196.386 70.1231 195.442 71.5412 195.344 72.5043C195.391 71.6063 195.672 70.7363 196.159 69.9802C195.614 70.0834 195.111 70.3437 194.712 70.7289C194.712 70.7289 194.86 69.7262 196.391 69.6389C196.391 69.6389 197.172 68.562 197.38 68.4959C197.38 68.4959 195.857 68.3689 194.934 68.779C194.934 68.779 195.746 67.8344 197.658 68.263L198.716 67.3899C198.716 67.3899 196.709 67.1254 195.86 67.419C195.86 67.419 196.838 66.583 199.004 67.1915L200.168 66.4956C200.168 66.4956 198.457 66.1279 197.439 66.2602C197.439 66.2602 198.515 65.6807 200.509 66.3078L201.342 65.9347C201.342 65.9347 200.089 65.6887 199.721 65.649C199.353 65.6093 199.335 65.5088 199.335 65.5088C200.129 65.3766 200.944 65.4682 201.689 65.7733C201.689 65.7733 203.477 65.1251 203.445 65.014Z" fill="#336B68"/>
<path d="M142.39 58.7511C142.39 58.7511 144.705 48.9378 137.553 48.9034C137.553 48.9034 136.366 48.4589 135.617 49.4749C135.617 49.4749 136.128 49.5834 135.781 50.5518C135.661 50.8942 135.581 51.2493 135.543 51.6101C135.492 52.1019 135.602 52.597 135.858 53.0203C135.858 53.0203 136.527 56.0101 140.883 57.8833C140.883 57.8833 141.74 58.857 141.999 58.8675L141.576 57.071C141.576 57.071 140.269 57.4335 139.344 56.8065C139.344 56.8065 141.52 57.1266 141.523 56.8065C141.523 56.7403 141.258 55.8646 141.258 55.8646C141.258 55.8646 138.987 56.4837 137.585 55.4756C137.585 55.4756 140.126 56.2059 141.161 55.5312L140.684 54.2294C140.684 54.2294 138.304 55.0047 136.675 53.9172C136.675 53.9172 139.359 54.5893 140.56 53.9543L139.912 52.7425C139.912 52.7425 137.585 53.4516 136.228 52.5388C136.228 52.5388 139.402 52.9991 139.746 52.4753C139.746 52.4753 139.084 51.3984 138.77 51.1974C138.77 51.1974 137.088 51.6683 136.347 51.0677C136.347 51.0677 138.503 51.1497 138.553 50.9222C138.553 50.9222 137.318 49.7501 136.376 49.4855C137.254 49.6854 138.064 50.1103 138.727 50.7185C138.718 50.164 138.547 49.6243 138.235 49.1654C138.235 49.1654 139.198 49.4829 139.029 51.0174C139.029 51.0174 139.955 51.9699 139.984 52.1869C139.984 52.1869 140.367 50.7079 140.121 49.7263C140.121 49.7263 140.915 50.6894 140.166 52.5017L140.843 53.7056C140.843 53.7056 141.457 51.7741 141.301 50.8852C141.301 50.8852 141.959 51.9911 140.989 54.0231L141.478 55.2904C141.478 55.2904 142.131 53.6659 142.173 52.6446C142.173 52.6446 142.562 53.8035 141.602 55.6635L141.83 56.5472C141.83 56.5472 142.285 55.3539 142.385 54.9994C142.486 54.6448 142.589 54.6422 142.589 54.6422C142.585 55.4471 142.357 56.235 141.93 56.9176C141.93 56.9176 142.277 58.7644 142.39 58.7511Z" fill="#336B68"/>
<path d="M120.381 62.0963C120.381 62.0963 112.309 56.056 109.423 62.599C109.423 62.599 108.543 63.5118 109.175 64.6045C109.175 64.6045 109.476 64.1786 110.233 64.885C110.5 65.1343 110.797 65.351 111.116 65.5306C111.548 65.7712 112.047 65.8641 112.536 65.7951C112.536 65.7951 115.541 66.3746 119 63.1176C119 63.1176 120.235 62.7207 120.351 62.4879L118.529 62.1678C118.529 62.1678 118.339 63.5092 117.4 64.1098C117.4 64.1098 118.561 62.2418 118.259 62.1069C118.199 62.0778 117.289 61.9746 117.289 61.9746C117.289 61.9746 116.95 64.3082 115.469 65.1893C115.469 65.1893 117.154 63.1493 116.945 61.9323L115.562 61.8582C115.562 61.8582 115.326 64.3426 113.676 65.4115C113.676 65.4115 115.361 63.2181 115.263 61.8635L113.893 61.9746C113.893 61.9746 113.615 64.3902 112.237 65.2686C112.237 65.2686 113.927 62.5382 113.581 62.0196C113.581 62.0196 112.33 62.1969 112.02 62.4032C112.02 62.4032 111.78 64.1336 110.933 64.5728C110.933 64.5728 111.872 62.6281 111.682 62.4932C111.682 62.4932 110.114 63.1573 109.497 63.914C110.03 63.1895 110.743 62.6167 111.566 62.2524C111.054 62.0397 110.491 61.9809 109.947 62.0831C109.947 62.0831 110.619 61.3264 111.946 62.0963C111.946 62.0963 113.189 61.628 113.401 61.6862C113.401 61.6862 112.198 60.7417 111.201 60.5776C111.201 60.5776 112.401 60.2337 113.763 61.6359L115.136 61.4957C115.136 61.4957 113.61 60.1728 112.735 59.9506C112.735 59.9506 114.012 59.7892 115.485 61.4878L116.839 61.5486C116.839 61.5486 115.615 60.2998 114.692 59.85C114.692 59.85 115.906 59.9559 117.228 61.5777L118.13 61.7233C118.13 61.7233 117.217 60.829 116.932 60.5961C116.646 60.3633 116.686 60.2654 116.686 60.2654C117.422 60.5914 118.052 61.1153 118.508 61.7788C118.508 61.7788 120.346 62.2048 120.381 62.0963Z" fill="#336B68"/>
<path d="M147.254 5.97543C147.254 5.97543 139.182 -0.0675905 136.297 6.47813C136.297 6.47813 135.416 7.39093 136.048 8.48365C136.048 8.48365 136.35 8.05768 137.106 8.76411C137.375 9.01217 137.673 9.22794 137.992 9.40704C138.424 9.64784 138.923 9.74075 139.412 9.67162C139.412 9.67162 142.417 10.251 145.876 6.99142C145.876 6.99142 147.111 6.59719 147.225 6.36172L145.403 6.04686C145.403 6.04686 145.215 7.38829 144.273 7.98889C144.273 7.98889 145.437 6.12095 145.136 5.98601C145.075 5.95691 144.165 5.85372 144.165 5.85372C144.165 5.85372 143.816 8.19261 142.335 9.06837C142.335 9.06837 144.017 7.02846 143.811 5.81139L142.427 5.73731C142.427 5.73731 142.189 8.22172 140.542 9.28798C140.542 9.28798 142.226 7.0946 142.129 5.73995L140.761 5.85108C140.761 5.85108 140.481 8.26934 139.103 9.14775C139.103 9.14775 140.796 6.41728 140.449 5.8987C140.449 5.8987 139.198 6.07597 138.889 6.28234C138.889 6.28234 138.648 8.0127 137.802 8.4519C137.802 8.4519 138.741 6.50724 138.55 6.36965C138.55 6.36965 136.982 7.0364 136.366 7.7931C136.898 7.0678 137.611 6.49488 138.434 6.13153C137.922 5.91723 137.358 5.85835 136.813 5.9622C136.813 5.9622 137.487 5.2055 138.815 5.97543C138.815 5.97543 140.058 5.50447 140.269 5.56533C140.269 5.56533 139.066 4.62078 138.069 4.45409C138.069 4.45409 139.267 4.11278 140.629 5.51241L142.002 5.37218C142.002 5.37218 140.478 4.04928 139.6 3.82439C139.6 3.82439 140.878 3.66564 142.353 5.36425L143.707 5.42245C143.707 5.42245 142.483 4.17364 141.557 3.7265C141.557 3.7265 142.774 3.83233 144.096 5.45421L144.995 5.59972C144.995 5.59972 144.08 4.71603 143.795 4.48849C143.509 4.26095 143.549 4.16041 143.549 4.16041C144.285 4.48599 144.916 5.01 145.371 5.67381C145.371 5.67381 147.209 6.07597 147.254 5.97543Z" fill="#336B68"/>
<path d="M178.098 13.6298C178.098 13.6298 174.871 4.07584 168.786 7.83024C168.786 7.83024 167.543 8.09482 167.445 9.34099C167.445 9.34099 167.934 9.16108 168.151 10.1665C168.232 10.5241 168.353 10.8713 168.513 11.201C168.732 11.6447 169.088 12.0058 169.529 12.2302C169.529 12.2302 171.676 14.413 176.374 13.6907C176.374 13.6907 177.614 14.0664 177.841 13.9368L176.519 12.6377C176.519 12.6377 175.604 13.6351 174.488 13.5954C174.488 13.5954 176.506 12.717 176.339 12.4339C176.305 12.3784 175.615 11.7778 175.615 11.7778C175.615 11.7778 174.012 13.5055 172.293 13.3917C172.293 13.3917 174.834 12.6668 175.353 11.5397L174.258 10.6956C174.258 10.6956 172.655 12.6059 170.69 12.5477C170.69 12.5477 173.335 11.6984 174.004 10.5237L172.814 9.8384C172.814 9.8384 171.227 11.6719 169.582 11.6137C169.582 11.6137 172.523 10.3252 172.531 9.70082C172.531 9.70082 171.401 9.13726 171.028 9.13197C171.028 9.13197 169.849 10.4205 168.913 10.3041C168.913 10.3041 170.785 9.23251 170.706 9.01291C170.706 9.01291 169.04 8.6716 168.101 8.94677C168.95 8.65098 169.862 8.58257 170.745 8.74833C170.444 8.2824 170.013 7.91462 169.505 7.69001C169.505 7.69001 170.489 7.44924 171.148 8.83564C171.148 8.83564 172.438 9.15578 172.576 9.32247C172.576 9.32247 172.121 7.86463 171.393 7.16085C171.393 7.16085 172.576 7.56036 172.898 9.49445L174.11 10.1559C174.11 10.1559 173.61 8.19536 173.007 7.51009C173.007 7.51009 174.152 8.10275 174.401 10.3385L175.485 11.156C175.485 11.156 175.183 9.43095 174.676 8.53667C174.676 8.53667 175.617 9.31453 175.786 11.4021L176.445 12.0318C176.445 12.0318 176.202 10.7777 176.101 10.4231C176.001 10.0686 176.083 10.0448 176.083 10.0448C176.503 10.7311 176.726 11.5205 176.725 12.3255C176.725 12.3255 178.005 13.6986 178.098 13.6298Z" fill="#336B68"/>
<path d="M157.04 14.1008C157.04 14.1008 147.016 12.9843 147.844 20.0989C147.844 20.0989 147.545 21.3318 148.637 21.9509C148.637 21.9509 148.682 21.4218 149.695 21.6599C150.053 21.7369 150.419 21.7733 150.785 21.7684C151.28 21.7594 151.758 21.5894 152.147 21.2842C152.147 21.2842 155.032 20.2603 156.379 15.6962C156.379 15.6962 157.241 14.7305 157.222 14.4686L155.49 15.1089C155.49 15.1089 156.019 16.3603 155.49 17.3552C155.49 17.3552 155.546 15.1565 155.226 15.1909C155.159 15.1909 154.324 15.5719 154.324 15.5719C154.324 15.5719 155.212 17.7547 154.382 19.276C154.382 19.276 154.8 16.662 154.004 15.7201L152.774 16.3551C152.774 16.3551 153.832 18.6172 152.946 20.374C152.946 20.374 153.29 17.6277 152.515 16.5138L151.391 17.3075C151.391 17.3075 152.374 19.5327 151.631 20.9905C151.631 20.9905 151.708 17.7785 151.145 17.506C151.145 17.506 150.156 18.2997 149.994 18.6278C149.994 18.6278 150.663 20.2417 150.158 21.0487C150.158 21.0487 149.981 18.8977 149.748 18.8765C149.748 18.8765 148.733 20.2444 148.585 21.2101C148.676 20.3148 149.001 19.4591 149.526 18.7283C148.977 18.8042 148.463 19.0387 148.045 19.403C148.045 19.403 148.241 18.4108 149.775 18.4003C149.775 18.4003 150.608 17.3657 150.833 17.3102C150.833 17.3102 149.317 17.1065 148.373 17.4689C148.373 17.4689 149.233 16.5641 151.121 17.0906L152.234 16.273C152.234 16.273 150.222 15.8656 149.37 16.1302C149.37 16.1302 150.391 15.3364 152.523 16.064L153.721 15.4264C153.721 15.4264 152.031 14.9713 151.007 15.0533C151.007 15.0533 152.11 14.5242 154.07 15.257L154.921 14.9263C154.921 14.9263 153.681 14.6168 153.316 14.5586C152.951 14.5003 152.938 14.3998 152.938 14.3998C153.737 14.308 154.547 14.4399 155.276 14.7808C155.276 14.7808 157.058 14.212 157.04 14.1008Z" fill="#336B68"/>
<path d="M244.741 91.933C244.741 91.933 234.722 90.8164 235.55 97.9231C235.55 97.9231 235.251 99.156 236.344 99.7751C236.344 99.7751 236.388 99.246 237.401 99.4814C237.759 99.5611 238.125 99.5975 238.491 99.5899C238.986 99.5823 239.464 99.4122 239.853 99.1057C239.853 99.1057 242.739 98.0818 244.072 93.5204C244.072 93.5204 244.934 92.5521 244.915 92.2928L243.183 92.9304C243.183 92.9304 243.712 94.1845 243.183 95.1794C243.183 95.1794 243.238 92.9781 242.918 93.0151C242.852 93.0151 242.017 93.3934 242.017 93.3934C242.017 93.3934 242.905 95.5762 242.075 97.0976C242.075 97.0976 242.493 94.4862 241.697 93.5416L240.467 94.1792C240.467 94.1792 241.525 96.4414 240.641 98.1982C240.641 98.1982 240.982 95.4519 240.208 94.3354L239.084 95.1291C239.084 95.1291 240.067 97.3542 239.324 98.8094C239.324 98.8094 239.401 95.5974 238.838 95.3275C238.838 95.3275 237.851 96.1213 237.687 96.4494C237.687 96.4494 238.359 98.0633 237.851 98.8703C237.851 98.8703 237.674 96.7192 237.441 96.6981C237.441 96.6981 236.426 98.0659 236.277 99.0316C236.369 98.1363 236.694 97.2807 237.219 96.5499C236.67 96.6244 236.155 96.8591 235.738 97.2246C235.738 97.2246 235.934 96.2298 237.468 96.2192C237.468 96.2192 238.303 95.1847 238.525 95.1317C238.525 95.1317 237.01 94.9254 236.066 95.2878C236.066 95.2878 236.925 94.3856 238.816 94.9121L239.927 94.0946C239.927 94.0946 237.938 93.7189 237.073 93.9782C237.073 93.9782 238.094 93.1844 240.226 93.9094L241.424 93.2744C241.424 93.2744 239.734 92.8193 238.711 92.9013C238.711 92.9013 239.813 92.3722 241.773 93.1051L242.625 92.7717C242.625 92.7717 241.384 92.4621 241.02 92.4066C240.655 92.351 240.641 92.2478 240.641 92.2478C241.441 92.1544 242.25 92.2854 242.979 92.6262C242.979 92.6262 244.767 92.0467 244.741 91.933Z" fill="#336B68"/>
<path d="M260.056 101.293C260.056 101.293 250.038 100.179 250.866 107.283C250.866 107.283 250.569 108.516 251.659 109.135C251.659 109.135 251.704 108.606 252.717 108.844C253.074 108.922 253.439 108.957 253.804 108.95C254.296 108.94 254.772 108.771 255.161 108.468C255.161 108.468 258.043 107.444 259.376 102.88C259.376 102.88 260.241 101.915 260.22 101.653L258.488 102.29C258.488 102.29 259.017 103.545 258.488 104.539C258.488 104.539 258.543 102.341 258.223 102.375C258.157 102.375 257.321 102.753 257.321 102.753C257.321 102.753 258.21 104.936 257.38 106.458C257.38 106.458 257.797 103.846 257.001 102.904L255.772 103.539C255.772 103.539 256.829 105.801 255.946 107.558C255.946 107.558 256.287 104.812 255.512 103.698L254.388 104.492C254.388 104.492 255.372 106.717 254.632 108.175C254.632 108.175 254.706 104.96 254.142 104.69C254.142 104.69 253.156 105.484 252.992 105.812C252.992 105.812 253.664 107.426 253.156 108.233C253.156 108.233 252.979 106.082 252.746 106.061C252.746 106.061 251.73 107.429 251.585 108.394C251.676 107.499 252 106.644 252.524 105.913C251.975 105.988 251.46 106.223 251.043 106.587C251.043 106.587 251.241 105.592 252.775 105.584C252.775 105.584 253.608 104.55 253.833 104.494C253.833 104.494 252.317 104.291 251.373 104.653C251.373 104.653 252.233 103.748 254.124 104.275L255.235 103.457C255.235 103.457 253.246 103.082 252.381 103.341C252.381 103.341 253.402 102.547 255.534 103.275L256.732 102.637C256.732 102.637 255.042 102.182 254.018 102.264C254.018 102.264 255.121 101.735 257.081 102.468L257.932 102.137C257.932 102.137 256.692 101.827 256.33 101.769C255.967 101.711 255.949 101.61 255.949 101.61C256.748 101.519 257.558 101.651 258.287 101.991C258.287 101.991 260.083 101.407 260.056 101.293Z" fill="#336B68"/>
<path d="M226.052 22.4459C226.052 22.4459 217.981 16.4056 215.095 22.9486C215.095 22.9486 214.214 23.8614 214.847 24.9542C214.847 24.9542 215.148 24.5282 215.904 25.2346C216.172 25.484 216.469 25.7007 216.788 25.8802C217.22 26.1206 217.718 26.2135 218.208 26.1448C218.208 26.1448 221.212 26.7242 224.674 23.4672C224.674 23.4672 225.907 23.0703 226.023 22.8375L224.206 22.5094C224.206 22.5094 224.016 23.8509 223.077 24.4515C223.077 24.4515 224.238 22.5835 223.937 22.4486C223.876 22.4195 222.969 22.3163 222.969 22.3163C222.969 22.3163 222.627 24.6499 221.146 25.5309C221.146 25.5309 222.831 23.491 222.622 22.274L221.239 22.1999C221.239 22.1999 221.004 24.6843 219.353 25.7532C219.353 25.7532 221.041 23.5598 220.94 22.2052L219.57 22.3163C219.57 22.3163 219.306 24.7319 217.914 25.6103C217.914 25.6103 219.607 22.8798 219.258 22.3613C219.258 22.3613 218.007 22.5385 217.698 22.7449C217.698 22.7449 217.46 24.4753 216.613 24.9145C216.613 24.9145 217.549 22.9698 217.359 22.8349C217.359 22.8349 215.791 23.499 215.174 24.2557C215.708 23.5311 216.42 22.9584 217.243 22.5941C216.731 22.3814 216.169 22.3225 215.624 22.4248C215.624 22.4248 216.298 21.6681 217.626 22.438C217.626 22.438 218.867 21.9697 219.078 22.0279C219.078 22.0279 217.875 21.0833 216.878 20.9193C216.878 20.9193 218.078 20.5754 219.44 21.9776L220.813 21.8374C220.813 21.8374 219.29 20.5145 218.412 20.2922C218.412 20.2922 219.689 20.1309 221.162 21.8295L222.519 21.8903C222.519 21.8903 221.292 20.6415 220.369 20.1917C220.369 20.1917 221.585 20.2975 222.905 21.9194L223.807 22.0649C223.807 22.0649 222.895 21.1707 222.609 20.9378C222.323 20.705 222.366 20.6283 222.366 20.6283C223.1 20.9547 223.73 21.4786 224.185 22.1417C224.185 22.1417 226.018 22.5544 226.052 22.4459Z" fill="#336B68"/>
<path d="M232.289 66.0542C232.289 66.0542 229.507 56.3626 223.249 59.8418C223.249 59.8418 221.995 60.035 221.839 61.2891C221.839 61.2891 222.337 61.133 222.508 62.1463C222.572 62.5104 222.679 62.8656 222.826 63.2046C223.022 63.6606 223.362 64.0397 223.794 64.2841C223.794 64.2841 225.841 66.5595 230.564 66.0515C230.564 66.0515 231.786 66.4801 232.019 66.3637L230.768 65.0038C230.768 65.0038 229.808 65.9616 228.697 65.8716C228.697 65.8716 230.75 65.0779 230.591 64.7948C230.559 64.7366 229.898 64.1042 229.898 64.1042C229.898 64.1042 228.221 65.7605 226.507 65.5673C226.507 65.5673 229.081 64.9588 229.647 63.8634L228.589 62.9692C228.589 62.9692 226.901 64.8053 224.942 64.6625C224.942 64.6625 227.608 63.9296 228.343 62.7892L227.184 62.0511C227.184 62.0511 225.505 63.8105 223.876 63.6782C223.876 63.6782 226.872 62.522 226.909 61.9002C226.909 61.9002 225.804 61.2864 225.431 61.2653C225.431 61.2653 224.196 62.4982 223.257 62.3395C223.257 62.3395 225.177 61.3526 225.108 61.1303C225.108 61.1303 223.458 60.7149 222.508 60.9451C223.368 60.69 224.28 60.6636 225.153 60.8684C224.874 60.3896 224.46 60.0033 223.963 59.7572C223.963 59.7572 224.958 59.5587 225.55 60.9742C225.55 60.9742 226.822 61.3499 226.954 61.5245C226.954 61.5245 226.566 60.0455 225.87 59.3127C225.87 59.3127 227.034 59.7624 227.269 61.7098L228.449 62.4268C228.449 62.4268 228.036 60.4424 227.465 59.7439C227.465 59.7439 228.581 60.3869 228.732 62.6305L229.79 63.4957C229.79 63.4957 229.565 61.76 229.099 60.8499C229.099 60.8499 230.006 61.6701 230.08 63.7602L230.71 64.4217C230.71 64.4217 230.525 63.157 230.445 62.7972C230.366 62.4374 230.445 62.3871 230.445 62.3871C230.837 63.0908 231.025 63.8897 230.988 64.6942C230.988 64.6942 232.194 66.1177 232.289 66.0542Z" fill="#336B68"/>
<path d="M170.29 87.8924C170.29 87.8924 164.887 79.3782 159.87 84.474C159.87 84.474 158.722 85.0032 158.923 86.2599C158.923 86.2599 159.359 85.9689 159.809 86.8949C159.971 87.2231 160.171 87.5305 160.407 87.8104C160.722 88.1924 161.154 88.4601 161.637 88.5723C161.637 88.5723 164.242 90.181 168.632 88.3607C168.632 88.3607 169.925 88.4295 170.116 88.2522L168.529 87.2997C168.529 87.2997 167.876 88.4903 166.783 88.7152C166.783 88.7152 168.534 87.3923 168.299 87.1489C168.254 87.1013 167.439 86.6833 167.439 86.6833C167.439 86.6833 166.294 88.7417 164.596 89.0407C164.596 89.0407 166.894 87.731 167.132 86.5192L165.866 85.961C165.866 85.961 164.763 88.1966 162.843 88.6067C162.843 88.6067 165.196 87.1542 165.58 85.8525L164.258 85.4715C164.258 85.4715 163.141 87.6331 161.541 87.9638C161.541 87.9638 164.091 86.0112 163.951 85.4027C163.951 85.4027 162.718 85.1249 162.364 85.2095C162.364 85.2095 161.525 86.7415 160.579 86.8526C160.579 86.8526 162.144 85.3657 162.015 85.1699C162.015 85.1699 160.314 85.236 159.468 85.7255C160.223 85.2362 161.093 84.9534 161.991 84.9053C161.589 84.5245 161.084 84.2698 160.539 84.1724C160.539 84.1724 161.436 83.7041 162.39 84.8947C162.39 84.8947 163.713 84.8947 163.895 85.027C163.895 85.027 163.102 83.7041 162.232 83.2093C162.232 83.2093 163.475 83.3152 164.247 85.1169L165.583 85.4715C165.583 85.4715 164.628 83.6856 163.885 83.1749C163.885 83.1749 165.136 83.4766 165.911 85.5905L167.159 86.1197C167.159 86.1197 166.455 84.519 165.749 83.7702C165.749 83.7702 166.849 84.2994 167.508 86.2864L168.301 86.7441C168.301 86.7441 167.772 85.5826 167.585 85.2625C167.397 84.9423 167.471 84.8682 167.471 84.8682C168.043 85.4338 168.447 86.1474 168.637 86.9293C168.637 86.9293 170.219 87.9823 170.29 87.8924Z" fill="#336B68"/>
<path d="M205.801 44.3897C205.801 44.3897 200.663 35.7141 195.487 40.6511C195.487 40.6511 194.323 41.1538 194.487 42.4079C194.487 42.4079 194.929 42.1275 195.352 43.0668C195.503 43.4006 195.694 43.7151 195.92 44.0034C196.224 44.3935 196.648 44.6725 197.126 44.7971C197.126 44.7971 199.679 46.4851 204.125 44.7971C204.125 44.7971 205.415 44.9056 205.611 44.7336L204.058 43.7335C204.058 43.7335 203.371 44.9003 202.271 45.0934C202.271 45.0934 204.061 43.8155 203.836 43.5747C203.789 43.5245 202.99 43.08 202.99 43.08C202.99 43.08 201.781 45.104 200.081 45.3501C200.081 45.3501 202.419 44.1118 202.691 42.9107L201.443 42.3233C201.443 42.3233 200.271 44.5272 198.338 44.8791C198.338 44.8791 200.737 43.5007 201.16 42.2122L199.853 41.7888C199.853 41.7888 198.668 43.9055 197.06 44.1965C197.06 44.1965 199.668 42.3233 199.546 41.7121C199.546 41.7121 198.325 41.3946 197.96 41.4687C197.96 41.4687 197.074 42.9742 196.124 43.0562C196.124 43.0562 197.735 41.6221 197.613 41.4211C197.613 41.4211 195.91 41.4343 195.05 41.8973C195.82 41.4327 196.698 41.1773 197.597 41.1565C197.206 40.7632 196.709 40.4928 196.166 40.3786C196.166 40.3786 197.079 39.9368 198.018 41.1565C198.018 41.1565 199.34 41.2015 199.517 41.3364C199.517 41.3364 198.769 40.0135 197.912 39.4685C197.912 39.4685 199.15 39.6113 199.866 41.4369L201.189 41.8338C201.189 41.8338 200.292 40.0188 199.562 39.4843C199.562 39.4843 200.805 39.8256 201.514 41.9608L202.744 42.5349C202.744 42.5349 202.091 40.9131 201.422 40.1537C201.422 40.1537 202.503 40.7173 203.104 42.7228L203.879 43.2043C203.879 43.2043 203.381 42.0269 203.207 41.7015C203.032 41.3761 203.106 41.3046 203.106 41.3046C203.661 41.8876 204.042 42.613 204.209 43.4001C204.209 43.4001 205.725 44.477 205.801 44.3897Z" fill="#336B68"/>
<path d="M173.289 62.6329C173.289 62.6329 173.554 52.5524 166.553 53.9732C166.553 53.9732 165.299 53.78 164.771 54.9283C164.771 54.9283 165.299 54.9283 165.151 55.9469C165.103 56.3101 165.098 56.6778 165.135 57.0423C165.183 57.5367 165.392 58.0015 165.731 58.3652C165.731 58.3652 166.992 61.1539 171.65 62.1011C171.65 62.1011 172.684 62.8816 172.943 62.8393L172.149 61.1671C172.149 61.1671 170.946 61.7862 169.912 61.3655C169.912 61.3655 172.107 61.2359 172.046 60.9131C172.046 60.847 171.591 60.0426 171.591 60.0426C171.591 60.0426 169.491 61.1142 167.918 60.4104C167.918 60.4104 170.563 60.6088 171.427 59.7384L170.69 58.5663C170.69 58.5663 168.526 59.8045 166.701 59.0743C166.701 59.0743 169.465 59.1854 170.512 58.3202L169.632 57.2619C169.632 57.2619 167.497 58.4314 165.984 57.8122C165.984 57.8122 169.19 57.6191 169.423 57.0344C169.423 57.0344 168.555 56.1163 168.206 55.976C168.206 55.976 166.656 56.7698 165.81 56.3412C165.81 56.3412 167.926 55.9866 167.939 55.7511C167.939 55.7511 166.492 54.8542 165.516 54.7881C166.416 54.8042 167.296 55.0559 168.069 55.5183C167.948 54.9775 167.672 54.4837 167.275 54.0975C167.275 54.0975 168.283 54.2113 168.42 55.7379C168.42 55.7379 169.523 56.484 169.595 56.6904C169.595 56.6904 169.671 55.1638 169.23 54.2536C169.23 54.2536 170.203 55.0341 169.838 56.9603L170.745 58.0027C170.745 58.0027 170.951 55.9866 170.621 55.1479C170.621 55.1479 171.488 56.0977 170.954 58.2832L171.687 59.4235C171.687 59.4235 171.999 57.7011 171.832 56.6878C171.832 56.6878 172.446 57.7461 171.885 59.7595L172.287 60.5797C172.287 60.5797 172.491 59.3177 172.517 58.9499C172.543 58.5822 172.644 58.5583 172.644 58.5583C172.803 59.3476 172.74 60.1656 172.461 60.9211C172.461 60.9211 173.173 62.6673 173.289 62.6329Z" fill="#336B68"/>
<path d="M184.863 190.722C188.796 190.722 191.985 190.183 191.985 189.518C191.985 188.853 188.796 188.314 184.863 188.314C180.929 188.314 177.74 188.853 177.74 189.518C177.74 190.183 180.929 190.722 184.863 190.722Z" fill="#336B68"/>
<path d="M158.899 208.998C162.833 208.998 166.022 208.459 166.022 207.795C166.022 207.13 162.833 206.591 158.899 206.591C154.966 206.591 151.777 207.13 151.777 207.795C151.777 208.459 154.966 208.998 158.899 208.998Z" fill="#336B68"/>
<path d="M24.6351 199.635C28.5686 199.635 31.7574 199.096 31.7574 198.431C31.7574 197.767 28.5686 197.228 24.6351 197.228C20.7015 197.228 17.5127 197.767 17.5127 198.431C17.5127 199.096 20.7015 199.635 24.6351 199.635Z" fill="#336B68"/>
<path d="M212.921 207.795C216.855 207.795 220.044 207.256 220.044 206.592C220.044 205.927 216.855 205.388 212.921 205.388C208.988 205.388 205.799 205.927 205.799 206.592C205.799 207.256 208.988 207.795 212.921 207.795Z" fill="#336B68"/>
<path d="M220.337 193.117C226.211 193.117 230.972 192.311 230.972 191.318C230.972 190.324 226.211 189.519 220.337 189.519C214.464 189.519 209.703 190.324 209.703 191.318C209.703 192.311 214.464 193.117 220.337 193.117Z" fill="#336B68"/>
<path d="M224.746 188.372C225.231 187.977 225.585 187.443 225.759 186.842C225.891 186.234 225.632 185.506 225.053 185.284C224.402 185.035 223.707 185.485 223.178 185.94C222.649 186.395 222.048 186.917 221.358 186.821C221.712 186.499 221.977 186.091 222.128 185.636C222.278 185.181 222.308 184.696 222.215 184.226C222.185 184.031 222.103 183.848 221.977 183.697C221.615 183.31 220.961 183.477 220.528 183.781C219.152 184.75 218.769 186.618 218.761 188.3C218.623 187.694 218.74 187.062 218.737 186.448C218.734 185.834 218.562 185.125 218.036 184.803C217.713 184.622 217.348 184.531 216.978 184.538C216.359 184.517 215.669 184.578 215.249 185.03C214.72 185.591 214.86 186.536 215.315 187.147C215.77 187.758 216.465 188.152 217.105 188.581C217.617 188.887 218.055 189.303 218.385 189.8C218.423 189.87 218.454 189.942 218.478 190.017H222.355C223.223 189.58 224.027 189.026 224.746 188.372Z" fill="#336B68"/>
<path d="M19.853 192.836C19.853 192.836 23.9128 192.712 25.1426 191.839C26.3724 190.966 31.3922 189.926 31.6963 191.326C32.0005 192.725 37.8004 198.281 33.2144 198.318C28.6284 198.355 22.5586 197.604 21.3367 196.858C20.1149 196.112 19.853 192.836 19.853 192.836Z" fill="#A8A8A8"/>
<path opacity="0.2" d="M33.2911 197.831C28.7051 197.868 22.6353 197.116 21.4134 196.37C20.4825 195.804 20.1122 193.769 19.9879 192.83H19.853C19.853 192.83 20.1175 196.108 21.3315 196.852C22.5454 197.595 28.6231 198.349 33.2091 198.312C34.5315 198.312 34.989 197.831 34.9652 197.132C34.7801 197.558 34.275 197.823 33.2911 197.831Z" fill="black"/>
<path opacity="0.1" d="M132.319 90.4092L112.362 93.5894L118.857 99.4102L140.235 95.8225L132.319 90.4092Z" fill="white"/>
<path opacity="0.1" d="M80.1592 97.4464L87.5328 91.8955L112.362 93.5888L108.707 99.7483L80.1592 97.4464Z" fill="white"/>
<defs>
<linearGradient id="paint0_linear" x1="58.9774" y1="114.674" x2="141.529" y2="114.674" gradientUnits="userSpaceOnUse">
<stop stop-color="#808080" stop-opacity="0.25"/>
<stop offset="0.54" stop-color="#808080" stop-opacity="0.12"/>
<stop offset="1" stop-color="#808080" stop-opacity="0.1"/>
</linearGradient>
</defs>
</svg>
