<svg width="44" height="44" viewBox="0 0 44 44" fill="none" xmlns="http://www.w3.org/2000/svg">
<circle cx="22" cy="22" r="22" fill="white"/>
<path d="M20 10C14.489 10 10 14.489 10 20C10 25.511 14.489 30 20 30C22.3965 30 24.5974 29.149 26.3223 27.7363L32.293 33.707C32.3851 33.803 32.4955 33.8796 32.6176 33.9324C32.7397 33.9852 32.8712 34.0131 33.0042 34.0144C33.1373 34.0158 33.2692 33.9906 33.3924 33.9403C33.5156 33.89 33.6275 33.8157 33.7216 33.7216C33.8157 33.6275 33.89 33.5156 33.9403 33.3924C33.9906 33.2692 34.0158 33.1373 34.0144 33.0042C34.0131 32.8712 33.9852 32.7397 33.9324 32.6176C33.8796 32.4955 33.803 32.3851 33.707 32.293L27.7363 26.3223C29.149 24.5974 30 22.3965 30 20C30 14.489 25.511 10 20 10ZM20 12C24.4301 12 28 15.5699 28 20C28 24.4301 24.4301 28 20 28C15.5699 28 12 24.4301 12 20C12 15.5699 15.5699 12 20 12Z" fill="#336b68"/>
</svg>
