<svg width="738" height="676" viewBox="0 0 738 676" fill="none" xmlns="http://www.w3.org/2000/svg">
<path opacity="0.18" d="M589.474 254.533C588.071 237.398 586.5 219.914 579.656 204.219C567.497 176.449 540.092 157.875 511.384 147.91C492.422 141.327 472.605 137.875 452.718 134.787C428.679 131.041 405.791 147.072 401.878 170.984C401.878 171.138 401.878 171.292 401.808 171.46C397.404 199.412 407.88 230.55 393.842 255.217C380.027 279.48 347.405 286.733 319.805 282.093C306.313 279.815 292.456 274.826 283.943 264.148C276.314 254.589 273.999 241.787 267.113 231.696C260.732 222.416 250.929 216.141 241.364 210.173C232.767 204.806 223.959 199.398 214.128 196.938C204.296 194.478 193.09 195.386 185.166 201.718C169.613 214.184 174.325 238.39 169.739 257.733C161.801 290.926 123.724 314.266 125.701 348.311C126.781 367.025 140.048 382.454 151.984 396.934C170.482 419.379 187.971 444.759 190.257 473.717C191.239 486.156 189.332 498.79 191.562 511.075C194.03 524.632 203.511 538.594 218.125 538.328C220.084 538.282 222.032 538.639 223.847 539.376C231.448 542.521 229.12 548.894 228.966 554.47C228.713 563.052 234.225 571.004 241.28 575.937C248.334 580.871 256.819 583.303 265.122 585.511C308.22 596.985 353.085 604.979 397.362 599.487C441.638 593.994 485.606 573.743 511.692 537.685C529.041 513.703 537.484 484.577 545.604 456.192L560.148 404.858C563.696 392.461 567.343 379.995 572.476 368.129C577.777 355.886 587.805 346.452 593.19 334.824C597.51 325.489 594.593 315.412 593.709 305.475C592.279 288.41 590.876 271.471 589.474 254.533Z" fill="#336B68"/>
<path opacity="0.05" d="M410.279 667.983C492.506 666.99 578.057 665.188 651.407 628.179C670.481 618.536 688.601 606.461 702.85 590.556C729.021 561.332 740.24 520.592 737.632 481.544C736.178 457.866 729.656 434.773 718.502 413.816C708.909 396.095 695.852 380.274 687.816 361.798C658.714 295.049 701.672 214.002 674.899 146.303C659.976 108.568 624.984 81.4963 586.893 67.3107C548.802 53.1251 507.513 50.2601 466.869 48.9743C432.241 47.8702 396.254 47.4928 365.175 32.2031C350.996 25.2152 338.345 15.432 323.914 8.97513C269.904 -15.0495 208.209 13.699 156.247 41.8745C144.494 48.2336 132.573 54.7324 123.078 64.1242C113.093 74.0052 106.249 86.5835 98.4227 98.1975C63.9918 148.958 4.59666 188.971 0.248963 250.088C-3.62189 304.343 38.7892 351.106 47.9333 404.718C58.0312 463.752 27.0784 520.984 13.3341 579.222C6.32171 608.893 5.05947 653.727 38.116 669.408C63.6552 681.512 109.544 671.63 136.612 671.309L410.279 667.983Z" fill="#336B68"/>
<path d="M25.3118 626.139C16.8969 628.431 5.88741 635.615 10.74 642.841C12.5212 645.482 15.8871 646.502 19.0146 647.033C31.4406 649.186 44.1331 646.782 56.5871 644.825C136.444 632.317 217.873 638.787 298.655 642.351C394.165 646.591 489.734 646.717 585.365 642.729C602.854 642.002 620.539 641.107 637.257 636.02C654.855 630.632 670.762 620.812 683.44 607.509C664.97 598.117 643.386 597.726 622.657 597.489L479.87 596.021C477.865 603.317 486.742 608.488 494.105 610.304C501.468 612.121 510.585 615.252 510.823 622.743C479.295 623.945 447.333 625.119 416.562 618.159C404.459 615.364 392.594 611.451 380.294 609.871C367.363 608.208 354.264 609.242 341.277 610.277L237.704 618.508C238.386 614.617 240.04 610.96 242.513 607.873C244.986 604.786 248.198 602.368 251.855 600.843C210.313 599.697 168.758 599.72 127.188 600.913C109.769 601.416 89.8961 599.655 73.6834 605.651C57.1762 611.702 42.7166 621.387 25.3118 626.139Z" fill="url(#paint0_linear)"/>
<path d="M399.074 390.366L313.004 389.401L293.509 389.178C293.509 389.178 293.509 389.038 293.509 388.772C293.299 384.887 291.84 354.252 293.509 320.514C293.502 320.407 293.502 320.299 293.509 320.192C294.116 305.597 295.521 291.045 297.717 276.601C301.055 256.141 306.44 238.601 315.023 230.215C316.734 228.552 332.414 209.251 357.617 214.087C382.819 218.923 396.241 218.657 400.196 278.642C401.192 292.506 399.074 390.366 399.074 390.366Z" fill="#336B68"/>
<path d="M348.147 218.559C348.715 219.16 349.403 219.636 350.167 219.956C350.968 220.211 351.809 220.32 352.649 220.278C354.385 220.357 356.117 220.042 357.712 219.355C359.517 218.384 360.904 216.788 361.611 214.869C362.309 212.965 362.6 210.938 362.467 208.915C362.491 208.496 362.394 208.079 362.186 207.714C361.961 207.466 361.686 207.268 361.379 207.133C361.072 206.998 360.74 206.929 360.405 206.931C357.6 206.568 354.744 206.302 351.836 206.134C350.111 206.022 346.1 205.086 344.823 206.526C342.229 209.461 346.03 216.462 348.147 218.559Z" fill="url(#paint1_linear)"/>
<path d="M334.502 185.981C334.731 189.477 335.656 192.893 337.223 196.029C340.126 201.075 346.058 203.842 351.893 204.191C356.47 204.578 361.027 203.258 364.683 200.488C366.663 198.742 368.369 196.712 369.746 194.464C370.878 192.859 371.819 191.128 372.551 189.307C373.271 187.173 373.714 184.956 373.87 182.71C374.403 177.567 374.697 172.382 374.739 167.211C374.819 165.051 374.688 162.889 374.347 160.754C373.674 157.088 371.909 153.708 369.284 151.055C368.368 150.062 367.229 149.3 365.96 148.833C364.687 148.509 363.364 148.428 362.061 148.595C359.789 148.735 357.531 148.944 355.273 149.224C353.654 149.372 352.056 149.69 350.504 150.174C348.168 151.046 346.031 152.377 344.221 154.088C340.013 157.886 336.854 162.699 335.049 168.063C334.138 170.456 333.599 172.972 333.45 175.527C333.593 179.029 333.945 182.52 334.502 185.981Z" fill="url(#paint2_linear)"/>
<path d="M327.884 168.092C327.181 165.81 326.675 163.472 326.37 161.104C326.075 156.274 326.96 151.444 328.95 147.03C329.393 145.885 329.973 144.796 330.675 143.788C331.69 142.549 332.92 141.502 334.308 140.699C343.662 134.829 355.668 134.158 366.355 137.023C372.525 138.659 378.977 141.426 385.05 139.637C384.717 140.808 384.144 141.898 383.367 142.837C385.294 142.775 387.159 142.142 388.724 141.02C388.551 142.347 388.071 143.615 387.322 144.724L389.285 144.123C387.257 147.603 384.974 150.929 382.455 154.074C381.763 154.865 381.178 155.744 380.716 156.688C380.263 158.184 380.026 159.737 380.015 161.3C379.647 163.703 378.977 166.05 378.023 168.288L375.429 175.15C374.391 169.448 375.891 163.033 372.708 158.183C372.134 157.247 371.321 156.48 370.352 155.961C368.248 154.927 365.78 155.709 363.493 156.198C357.505 157.456 351.32 156.576 345.261 156.352C344.157 156.238 343.042 156.386 342.007 156.785C341.258 157.206 340.6 157.772 340.072 158.448C338.606 160.066 337.409 161.906 336.524 163.899C335.722 165.93 335.152 168.044 334.827 170.202C334.56 171.6 334.49 175.793 333.424 176.701C330.858 178.77 328.305 169.601 327.884 168.092Z" fill="#3F3D56"/>
<path d="M374.026 188.105C373.675 193.583 373.142 199.495 369.482 203.59C366.685 206.458 362.947 208.229 358.949 208.58C354.982 208.912 350.99 208.776 347.056 208.174C345.442 208.09 343.858 207.706 342.386 207.042C340.535 206.067 338.903 204.726 337.589 203.102C336.275 201.478 335.306 199.604 334.742 197.595L333.031 189.363C332.176 185.24 333.592 180.656 333.48 176.449C334.324 179.273 335.617 181.943 337.309 184.359C338.039 185.521 338.992 186.528 340.114 187.322C341.837 188.257 343.762 188.76 345.724 188.79C348.764 189.055 351.817 189.153 354.868 189.083C357.689 189.12 360.501 188.743 363.212 187.965C365.942 187.168 368.313 185.461 369.93 183.129C370.73 181.886 373.03 174.227 374.488 175.135C375.947 176.044 374.138 186.372 374.026 188.105Z" fill="#3F3D56"/>
<path d="M361.22 193.612C361.44 193.613 361.658 193.651 361.865 193.724C362.085 193.845 362.271 194.017 362.408 194.227C362.545 194.437 362.628 194.677 362.65 194.926C362.754 196.03 362.501 197.138 361.929 198.088C361.356 199.038 360.493 199.781 359.467 200.209C357.392 201.007 355.147 201.262 352.945 200.949C352.119 200.922 351.304 200.757 350.533 200.46C349.707 200.04 348.973 199.46 348.373 198.755C348.033 198.418 347.753 198.026 347.546 197.595C347.4 197.201 347.359 196.777 347.428 196.362C347.497 195.948 347.673 195.559 347.938 195.233C349.257 193.57 351.487 193.626 353.394 193.556C356.003 193.458 358.611 193.486 361.22 193.612Z" fill="url(#paint3_linear)"/>
<path d="M293.55 389.178L304.77 574.275L303.971 602.968C303.971 602.968 281.531 614.931 280.774 621.304C280.016 627.677 316.761 624.491 316.761 624.491L335.162 458.722C335.162 458.722 348.752 440.386 355.961 457.115C363.17 473.844 356.76 626.084 356.76 626.084C356.76 626.084 387.741 628.879 390.139 625.288C392.538 621.696 376.956 607.356 376.956 607.356C376.956 607.356 396.745 454.334 396.745 442.44C396.745 430.547 399.143 390.436 399.143 390.436L293.55 389.178Z" fill="#3F3D56"/>
<path d="M392.02 225.63L428.359 257.16C428.359 257.16 477.445 225.281 486.253 227.671C495.061 230.061 506.252 253.177 478.259 265.923C469.844 269.738 456.703 278.194 444.712 285.028C438.292 288.676 430.858 290.152 423.525 289.235C416.193 288.318 409.356 285.057 404.04 279.941L384.405 261.017C378.472 254.029 370.38 250.382 370.156 241.2L369.37 236.532C369.132 225.323 366.621 210.83 392.02 225.63Z" fill="#336B68"/>
<path d="M295.316 235.19C289.706 237.832 284.096 240.501 277.981 241.507C271.866 242.514 265.681 241.829 259.58 240.92C246.228 238.931 233.054 235.889 220.185 231.822C215.444 230.327 210.606 228.664 205.627 228.817C200.648 228.971 195.389 231.389 193.411 235.931C189.947 243.869 197.801 252.031 205.262 256.448C222.303 266.538 241.629 272.003 260.702 277.412C266.901 279.075 273.128 280.836 279.524 280.472C286.115 280.095 292.342 277.468 298.401 274.882C308.597 270.466 319.354 265.434 325.203 256.015C328.863 250.117 335.357 227.532 328.008 222.472C322.145 218.335 301.332 232.339 295.316 235.19Z" fill="#336B68"/>
<path d="M500.19 223.283C503.5 219.566 506.151 215.261 509.895 211.977C513.957 208.445 519.062 206.325 524.439 205.939C526.063 205.766 527.705 205.928 529.264 206.414C533.471 207.882 535.617 212.55 536.15 216.938C536.563 219.726 536.219 222.573 535.154 225.184C533.135 229.628 528.478 232.312 523.836 233.863C519.194 235.414 514.243 236.169 509.811 238.251C505.141 240.446 500.863 244.163 495.702 244.205C491.565 244.205 483.683 239.607 486.025 234.534C487.105 232.214 490.948 231.04 492.953 229.656C495.607 227.821 498.036 225.682 500.19 223.283Z" fill="url(#paint4_linear)"/>
<path d="M195.376 222.402C192.066 218.684 189.415 214.38 185.671 211.095C181.62 207.546 176.52 205.407 171.141 205.002C169.522 204.828 167.884 204.99 166.331 205.477C162.123 206.944 159.963 211.612 159.444 216.001C159.019 218.787 159.359 221.637 160.426 224.247C162.446 228.691 167.102 231.374 171.758 232.926C176.414 234.477 181.337 235.232 185.783 237.314C190.453 239.508 194.731 243.212 199.906 243.268C204.029 243.268 211.925 238.67 209.569 233.596C208.503 231.276 204.646 230.102 202.641 228.719C199.98 226.903 197.542 224.783 195.376 222.402Z" fill="url(#paint5_linear)"/>
<path d="M198.533 276.083C198.573 276.329 198.561 276.58 198.498 276.821C198.435 277.061 198.323 277.286 198.168 277.481C194.942 282.932 186.527 282.568 181.198 279.116C178.137 277.051 175.618 274.284 173.853 271.047C172.089 267.81 171.13 264.197 171.058 260.514C171.029 259.35 171.1 258.186 171.268 257.034C171.268 256.685 171.381 256.349 171.437 256.014L171.268 256.881C170.665 259.997 170.076 263.128 169.501 266.23C168.407 271.821 167.299 277.621 164.663 282.764C162.026 287.907 157.65 292.379 152.04 293.735C149.025 294.462 145.435 294.029 143.555 291.597C142.884 290.672 142.451 289.597 142.293 288.466C141.536 283.658 144.607 279.158 146.949 274.868C150.921 267.6 153.185 259.529 153.569 251.262C151.814 253.84 149.535 256.02 146.879 257.663C139.039 262.569 128.254 263.058 120.456 257.929C117.439 256.061 115.107 253.271 113.809 249.976C113.195 248.34 113.033 246.569 113.339 244.848C113.645 243.128 114.408 241.521 115.548 240.193C116.741 238.901 118.366 238.086 120.119 237.901C121.871 237.715 123.632 238.173 125.071 239.187C126.277 240.193 127.062 241.605 128.198 242.709C131.185 245.63 136.136 245.714 139.867 243.813C143.48 241.698 146.402 238.587 148.282 234.854C149.951 231.975 151.381 228.845 153.765 226.469C154.635 225.554 155.68 224.822 156.839 224.318C157.998 223.814 159.247 223.547 160.511 223.534C162.811 223.646 165.196 226.329 167.327 225.77C171.535 224.596 169.193 216.979 173.47 215.763C175.7 215.148 177.874 217.552 177.944 219.858C178.014 222.164 176.64 224.303 175.364 226.231C180.974 228.398 183.372 235.092 183.568 241.088C183.764 247.083 182.474 253.149 183.666 259.019C184.415 262.523 186.009 265.793 188.311 268.545C190.613 271.296 193.553 273.448 196.878 274.812C197.407 274.987 197.887 275.284 198.28 275.678C198.387 275.798 198.472 275.935 198.533 276.083Z" fill="#F9D04F"/>
<path d="M160.483 223.451C153.863 224.108 153.471 251.208 153.471 251.208L146.781 257.608C138.941 262.514 128.156 263.003 120.358 257.874C117.34 256.006 115.009 253.217 113.71 249.922C113.097 248.285 112.935 246.514 113.241 244.794C113.547 243.073 114.309 241.466 115.449 240.139C116.643 238.846 118.268 238.031 120.02 237.846C121.773 237.661 123.533 238.118 124.972 239.132C126.178 240.139 126.964 241.55 128.1 242.654C131.087 245.575 136.038 245.659 139.768 243.758C143.382 241.643 146.304 238.532 148.183 234.8C149.852 231.921 151.283 228.79 153.667 226.414C154.542 225.485 155.598 224.744 156.769 224.235C157.941 223.725 159.205 223.459 160.483 223.451Z" fill="#F5C24A"/>
<path d="M198.533 276.084C198.573 276.33 198.561 276.581 198.498 276.821C198.436 277.062 198.323 277.287 198.168 277.482C194.943 282.932 186.528 282.569 181.198 279.117C178.137 277.052 175.618 274.285 173.853 271.047C172.089 267.81 171.13 264.198 171.058 260.515C171.044 260.282 171.044 260.049 171.058 259.816C171.058 258.88 171.184 257.971 171.227 257.021V256.867C171.269 252.88 171.783 248.912 172.755 245.044C173.145 243.686 173.647 242.363 174.256 241.089C174.607 240.334 176.388 238.363 176.388 237.609C176.55 243.382 177.051 249.14 177.888 254.855C178.169 257.105 178.449 259.327 178.912 261.535C179.166 263.493 179.815 265.378 180.821 267.079C181.826 268.78 183.166 270.26 184.761 271.43C186.221 272.726 187.922 273.723 189.767 274.365C192.194 275.106 194.83 274.868 197.327 275.385C197.647 275.441 197.961 275.526 198.266 275.637C198.383 275.768 198.473 275.92 198.533 276.084Z" fill="#F5C24A"/>
<path opacity="0.54" d="M567.527 256.629L560.206 260.347C556.744 262.109 552.727 262.444 549.019 261.281C545.312 260.117 542.212 257.548 540.389 254.128L517.949 212.2C517.803 211.921 517.721 211.613 517.709 211.299C517.697 210.985 517.755 210.672 517.879 210.383L519.113 207.588C519.257 207.262 519.315 206.906 519.282 206.552C519.249 206.197 519.125 205.858 518.922 205.565C518.72 205.272 518.445 205.036 518.125 204.878C517.805 204.721 517.45 204.648 517.093 204.667H515.495C515.099 204.688 514.705 204.599 514.358 204.409C514.011 204.218 513.725 203.935 513.531 203.591L503.924 185.911C503.772 185.638 503.683 185.334 503.663 185.022C503.644 184.71 503.695 184.398 503.812 184.108L508.019 174.031C508.045 173.956 508.083 173.885 508.132 173.822L502.339 164.723L512.451 158.323L518.917 168.441L531.735 169.405C532.086 169.433 532.425 169.549 532.719 169.742C533.013 169.935 533.254 170.199 533.418 170.51L544.835 191.599C545.003 191.909 545.094 192.254 545.101 192.606C545.096 193.065 544.944 193.51 544.666 193.877C544.46 194.154 544.325 194.478 544.274 194.819C544.223 195.16 544.257 195.509 544.374 195.834C544.49 196.158 544.685 196.45 544.942 196.681C545.198 196.913 545.508 197.078 545.844 197.162L551.216 198.559C551.765 198.721 552.235 199.079 552.534 199.566L573.684 236.113C574.681 237.851 575.313 239.773 575.542 241.763C575.771 243.752 575.592 245.767 575.017 247.686C574.441 249.604 573.48 251.386 572.193 252.923C570.905 254.461 569.318 255.722 567.527 256.629Z" fill="white"/>
<path opacity="0.54" d="M570.33 254.24L562.995 257.957C559.536 259.719 555.521 260.054 551.815 258.89C548.11 257.727 545.013 255.158 543.192 251.738L520.753 209.81C520.618 209.526 520.548 209.216 520.548 208.902C520.548 208.587 520.618 208.277 520.753 207.993L521.987 205.198C522.131 204.873 522.189 204.516 522.156 204.162C522.122 203.808 521.999 203.468 521.796 203.175C521.594 202.882 521.319 202.646 520.999 202.489C520.679 202.332 520.324 202.259 519.967 202.277H518.368C517.973 202.3 517.578 202.212 517.231 202.021C516.884 201.831 516.597 201.546 516.405 201.201L506.728 183.521C506.578 183.247 506.491 182.943 506.474 182.631C506.457 182.319 506.51 182.007 506.63 181.718L510.837 171.642C510.864 171.578 510.897 171.517 510.935 171.46L505.129 162.376L515.255 155.975L521.706 166.093L534.539 167.044C534.888 167.079 535.224 167.197 535.517 167.39C535.81 167.582 536.052 167.842 536.222 168.148L547.638 189.251C547.829 189.608 547.915 190.012 547.885 190.415C547.855 190.818 547.711 191.205 547.47 191.53C547.26 191.804 547.122 192.127 547.068 192.468C547.014 192.81 547.046 193.159 547.162 193.485C547.277 193.811 547.472 194.103 547.729 194.335C547.986 194.567 548.297 194.732 548.634 194.814L554.006 196.211C554.559 196.364 555.032 196.725 555.324 197.218L576.487 233.765C577.474 235.503 578.097 237.421 578.321 239.405C578.544 241.389 578.363 243.397 577.788 245.31C577.213 247.222 576.256 248.999 574.974 250.533C573.693 252.068 572.113 253.329 570.33 254.24Z" fill="white"/>
<path d="M441.563 521.996C441.469 520.097 439.847 518.627 437.947 518.721L424.166 519.399C423.286 519.442 422.466 519.814 421.855 520.447C421.185 521.14 420.842 522.052 420.89 523.014C420.948 524.211 421.61 525.275 422.659 525.861C423.505 526.332 434.18 532.189 438.647 534.639C440.23 531.817 441.698 524.754 441.563 521.996Z" fill="#404040"/>
<path d="M437.61 511.829L423.828 512.508C421.19 512.637 418.728 513.755 416.893 515.654C414.915 517.703 413.861 520.509 414.001 523.352C414.178 526.942 416.158 530.131 419.299 531.884C420.387 532.492 436.587 541.376 437.276 541.754L438.131 542.223L439.104 542.175C440.099 542.126 441.586 541.755 443.024 540.267C444.751 538.477 446.179 535.277 447.266 530.754C448.079 527.376 448.556 523.721 448.455 521.657C448.174 515.958 443.309 511.549 437.61 511.829ZM420.891 523.013C420.844 522.051 421.187 521.14 421.857 520.447C422.467 519.814 423.288 519.442 424.168 519.399L437.949 518.72C439.849 518.627 441.471 520.097 441.564 521.996C441.7 524.754 440.232 531.816 438.65 534.638C434.183 532.188 423.507 526.332 422.662 525.86C421.612 525.274 420.95 524.21 420.891 523.013Z" fill="#737373"/>
<path d="M463.245 479.152C462.282 479.138 461.383 479.513 460.713 480.206C460.102 480.839 459.759 481.672 459.746 482.552L459.549 496.349C459.522 498.251 461.048 499.821 462.95 499.848C465.71 499.887 472.717 498.174 475.482 496.493C472.878 492.114 466.653 481.65 466.152 480.822C465.529 479.793 464.443 479.169 463.245 479.152Z" fill="#404040"/>
<path d="M463.346 472.253C460.499 472.213 457.731 473.364 455.753 475.413C453.919 477.312 452.888 479.812 452.851 482.453L452.654 496.251C452.573 501.956 457.148 506.664 462.854 506.746C464.92 506.775 468.556 506.17 471.904 505.241C476.386 503.996 479.534 502.458 481.262 500.669C481.262 500.669 481.262 500.669 481.263 500.668C482.7 499.18 483.019 497.681 483.033 496.685L483.047 495.71L482.549 494.873C482.147 494.197 472.703 478.317 472.058 477.25C470.196 474.173 466.939 472.304 463.346 472.253ZM462.952 499.847C461.05 499.82 459.525 498.25 459.552 496.349L459.749 482.552C459.761 481.671 460.105 480.838 460.715 480.206C461.385 479.512 462.284 479.138 463.247 479.152C464.445 479.169 465.532 479.793 466.154 480.821C466.655 481.649 472.88 492.114 475.484 496.493C472.719 498.173 465.712 499.887 462.952 499.847Z" fill="#737373"/>
<path d="M487.649 545.1L443.952 565.244L442.255 563.605C438.666 560.14 435.902 555.302 434.037 549.226C432.399 543.886 431.533 537.724 431.534 531.407C431.535 518.294 435.219 506.334 441.148 500.194C447.077 494.055 458.901 489.956 472.006 489.497C478.319 489.276 484.508 489.926 489.902 491.377C496.039 493.028 500.97 495.622 504.559 499.087L506.256 500.727L487.649 545.1Z" fill="#D9D9D9"/>
<path d="M441.147 500.194C447.075 494.055 458.9 489.956 472.005 489.497C478.318 489.276 484.507 489.926 489.901 491.377C496.038 493.028 500.969 495.622 504.557 499.087L506.255 500.727L487.648 545.1" fill="#CDCDD0"/>
<path d="M461.142 527.493C455.213 521.767 445.731 521.933 440.005 527.862L431.722 536.44C432.056 540.968 432.839 545.317 434.038 549.225C435.903 555.301 438.667 560.139 442.256 563.604L443.953 565.243L446.684 563.984L461.511 548.63C467.237 542.701 467.071 533.219 461.142 527.493Z" fill="#737373"/>
<path d="M504.557 499.087C500.969 495.622 496.037 493.028 489.9 491.377C485.952 490.315 481.578 489.684 477.042 489.508L468.758 498.086C463.032 504.015 463.198 513.497 469.127 519.223C475.056 524.948 484.538 524.783 490.264 518.854L505.091 503.499L506.254 500.726L504.557 499.087Z" fill="#737373"/>
<path d="M455.953 509.694L443.749 497.909C442.79 498.634 441.919 499.396 441.149 500.194C440.379 500.991 439.648 501.889 438.957 502.872L451.16 514.657L455.953 509.694Z" fill="#737373"/>
<path d="M454.216 539.976C455.525 538.614 455.463 536.43 454.077 535.098C452.692 533.767 450.508 533.791 449.2 535.154C447.891 536.516 447.953 538.7 449.338 540.031C450.724 541.363 452.907 541.338 454.216 539.976Z" fill="#404040"/>
<path d="M475.104 529.826L473.522 531.472L471.94 533.118C471.066 534.027 471.108 535.484 472.033 536.372C473.707 537.981 478.546 536.299 478.546 536.299C478.546 536.299 480.036 531.398 478.361 529.789C477.436 528.9 475.978 528.917 475.104 529.826Z" fill="#404040"/>
<path d="M481.371 511.851C482.68 510.489 482.618 508.305 481.232 506.974C479.847 505.642 477.663 505.667 476.355 507.029C475.046 508.391 475.108 510.575 476.493 511.906C477.879 513.238 480.062 513.213 481.371 511.851Z" fill="#404040"/>
<path d="M466.211 348.297L481.147 604.127H655.013L668.589 349.653L466.211 348.297Z" fill="#3F3D56"/>
<path d="M466.211 348.297L481.147 604.127H655.013L668.589 349.653L466.211 348.297Z" fill="url(#paint6_linear)"/>
<path d="M678.432 321.226H458.046V350.323H678.432V321.226Z" fill="#3F3D56"/>
<path d="M62.9402 348.297L77.8766 604.127H251.742L265.332 349.653L62.9402 348.297Z" fill="#4A9575"/>
<path d="M275.178 321.226H54.7917V350.323H275.178V321.226Z" fill="#3B7F59"/>
<path d="M196.596 422.048L207.494 415.871C207.477 416.145 207.429 416.417 207.353 416.681C202.809 424.522 198.279 432.376 193.693 440.203C193.543 440.456 193.34 440.674 193.098 440.843C192.856 441.012 192.581 441.127 192.291 441.181C182.866 441.181 173.441 441.181 163.905 440.832L174.718 434.599L168.939 424.69L155.097 448.449L133.877 436.262C134.172 435.647 134.424 435.046 134.747 434.501C138.702 427.68 142.713 420.888 146.584 414.026C147.493 412.24 148.907 410.758 150.652 409.765C152.397 408.771 154.396 408.309 156.401 408.436C164.713 408.491 173.039 408.491 181.38 408.436C183.63 408.29 185.873 408.81 187.827 409.932C189.781 411.053 191.359 412.726 192.361 414.739C193.665 417.157 195.082 419.463 196.596 422.048ZM153.835 444.521C154.115 444.326 154.284 444.27 154.34 444.172C158.547 437.016 162.755 429.861 166.85 422.677C166.957 422.442 167.013 422.187 167.013 421.929C167.013 421.671 166.957 421.416 166.85 421.182C165.795 419.061 164.57 417.028 163.189 415.102C158.814 409.512 152.096 410.099 148.618 416.122L139.698 431.496C139.011 432.684 138.295 433.886 137.608 435.213L153.835 444.521Z" fill="white"/>
<path d="M124.144 452.711L112.924 446.213C113.766 446.213 114.186 446.073 114.607 446.073C123.288 446.073 131.956 446.073 140.623 446.073C141.074 446.081 141.518 446.183 141.926 446.373C142.335 446.564 142.698 446.837 142.993 447.177C147.608 454.892 152.109 462.676 156.625 470.433C156.806 470.81 156.966 471.197 157.102 471.593L145.882 465.22L140.146 475.199H167.747V499.643C167.074 499.643 166.345 499.768 165.742 499.768C157.902 499.768 150.076 499.768 142.236 499.768C140.231 499.893 138.233 499.43 136.488 498.437C134.744 497.443 133.329 495.963 132.419 494.178C128.211 486.715 123.849 479.335 119.558 471.928C118.512 470.222 117.959 468.261 117.959 466.261C117.959 464.261 118.512 462.3 119.558 460.594C121.045 457.966 122.545 455.479 124.144 452.711ZM152.46 497.099C156.107 497.099 159.739 497.099 163.371 497.099C164.606 497.099 165.153 496.708 165.139 495.422C165.139 490.195 165.139 484.968 165.139 479.741C165.139 478.497 164.718 478.036 163.442 478.05C155.602 478.05 147.776 478.05 139.936 478.05C139.609 478.048 139.286 478.114 138.986 478.244C138.687 478.374 138.418 478.565 138.197 478.804C136.855 480.756 135.7 482.829 134.747 484.996C132.194 491.537 136.037 497.015 143.021 497.015L152.46 497.099Z" fill="white"/>
<path d="M186.849 462.159V474.388H198.279L184.605 450.74L205.853 438.4C206.273 439.071 206.666 439.616 207.003 440.203C210.93 446.953 214.801 453.745 218.784 460.454C219.874 462.086 220.463 464 220.478 465.962C220.493 467.923 219.934 469.846 218.868 471.495C214.492 478.874 210.214 486.295 205.923 493.73C204.99 495.54 203.556 497.045 201.791 498.068C200.027 499.091 198.005 499.589 195.965 499.502C193.048 499.502 190.117 499.502 187.003 499.502V512.612C186.358 511.731 186.036 511.368 185.797 510.949C181.492 503.542 177.214 496.106 172.852 488.713C172.527 488.245 172.352 487.689 172.352 487.12C172.352 486.55 172.527 485.994 172.852 485.527C177.438 477.714 181.926 469.846 186.456 462.005L186.849 462.159ZM188.406 451.747L198.462 469.105C201.715 474.695 201.729 474.695 208.279 474.569H208.91C216.007 474.08 219.597 467.581 216.091 461.446C212.79 455.716 209.476 449.99 206.147 444.27C205.769 443.641 205.348 443.04 204.885 442.327L188.406 451.747Z" fill="white"/>
<path d="M592.039 422.048L602.936 415.871C602.926 416.146 602.879 416.419 602.796 416.681C598.261 424.527 593.712 432.367 589.149 440.203C589 440.457 588.797 440.675 588.555 440.844C588.313 441.013 588.037 441.128 587.747 441.181C578.322 441.181 568.912 441.181 559.361 440.832L570.174 434.599L564.41 424.69C559.697 432.782 555.167 440.552 550.567 448.449L529.334 436.262C529.642 435.647 529.895 435.046 530.217 434.501C534.158 427.68 538.183 420.888 542.04 414.026C542.95 412.241 544.365 410.761 546.11 409.767C547.854 408.774 549.852 408.311 551.857 408.436C560.188 408.491 568.514 408.491 576.836 408.436C579.087 408.292 581.331 408.814 583.287 409.935C585.243 411.056 586.823 412.727 587.831 414.739C589.107 417.157 590.538 419.463 592.039 422.048ZM549.291 444.522C549.571 444.326 549.726 444.27 549.782 444.172C553.98 437.016 558.15 429.851 562.292 422.677C562.399 422.442 562.455 422.187 562.455 421.929C562.455 421.671 562.399 421.416 562.292 421.182C561.236 419.064 560.017 417.032 558.645 415.102C554.256 409.512 547.552 410.099 544.06 416.122C541.1 421.252 538.113 426.367 535.154 431.496C534.467 432.684 533.751 433.886 533.05 435.214L549.291 444.522Z" fill="white"/>
<path d="M519.587 452.711L508.368 446.212C509.223 446.212 509.644 446.072 510.065 446.072C518.732 446.072 527.399 446.072 536.081 446.072C536.529 446.081 536.971 446.184 537.377 446.375C537.782 446.565 538.144 446.838 538.437 447.176C543.051 454.891 547.553 462.676 552.083 470.432C552.195 470.642 552.265 470.894 552.56 471.592L541.34 465.219L535.604 475.198H563.135V499.642C562.447 499.642 561.732 499.768 561.115 499.768C553.289 499.768 545.449 499.768 537.623 499.768C535.618 499.892 533.62 499.429 531.875 498.436C530.131 497.443 528.716 495.962 527.806 494.177C523.598 486.714 519.237 479.335 514.945 471.928C513.899 470.221 513.346 468.26 513.346 466.261C513.346 464.261 513.899 462.3 514.945 460.593C516.446 457.966 517.947 455.478 519.587 452.711ZM547.918 497.098C551.55 497.098 555.182 497.098 558.829 497.098C560.063 497.098 560.596 496.707 560.582 495.421C560.582 490.194 560.582 484.967 560.582 479.74C560.582 478.496 560.161 478.035 558.885 478.049C551.045 478.049 543.219 478.049 535.379 478.049C535.053 478.047 534.729 478.113 534.43 478.243C534.13 478.373 533.861 478.564 533.64 478.804C532.303 480.756 531.152 482.829 530.204 484.995C527.638 491.536 531.495 497.015 538.479 497.015L547.918 497.098Z" fill="white"/>
<path d="M582.294 462.159V474.388H593.682L580.008 450.741L601.297 438.4C601.718 439.071 602.111 439.616 602.448 440.203C606.374 446.954 610.245 453.746 614.228 460.454C615.321 462.086 615.911 464.001 615.926 465.962C615.941 467.924 615.38 469.847 614.313 471.495C609.955 478.875 605.645 486.287 601.382 493.731C600.446 495.538 599.011 497.042 597.247 498.064C595.483 499.087 593.463 499.586 591.424 499.503C588.493 499.503 585.562 499.503 582.448 499.503V512.613C581.803 511.732 581.48 511.369 581.242 510.949C576.936 503.542 572.659 496.107 568.311 488.714C567.974 488.251 567.792 487.693 567.792 487.12C567.792 486.548 567.974 485.99 568.311 485.527C572.883 477.715 577.385 469.846 581.901 462.006L582.294 462.159ZM583.851 451.747L593.906 469.106C597.174 474.696 597.174 474.696 603.724 474.57H604.341C611.451 474.081 615.042 467.582 611.536 461.447C608.226 455.717 604.907 449.991 601.578 444.27C601.213 443.641 600.779 443.04 600.316 442.328L583.851 451.747Z" fill="white"/>
<path d="M313.002 389.401L293.508 389.177C293.508 389.177 293.508 389.037 293.508 388.772C293.396 384.579 292.554 350.785 293.508 320.513C293.501 320.406 293.501 320.299 293.508 320.192C294.069 301.842 295.317 284.847 297.715 276.601C297.898 275.986 298.094 275.413 298.304 274.896C298.304 274.896 305.85 269.026 306.369 272.101C306.916 274.882 309.118 369.289 313.002 389.401Z" fill="url(#paint7_linear)"/>
<path d="M379.269 390.434L398.763 390.225C398.763 390.225 398.763 390.085 398.763 389.805C398.875 385.613 402.143 284.231 399.689 275.985C399.689 275.985 396.309 272.869 393.7 285.852C393.125 288.662 383.154 370.337 379.269 390.434Z" fill="url(#paint8_linear)"/>
<path opacity="0.18" d="M518.817 202.556L544.623 190.02L545.015 195.54L551.158 198.545L559.04 211.082L529.616 226.036L520.808 209.838L522.575 204.513L518.817 202.556Z" fill="#336B68"/>
<defs>
<linearGradient id="paint0_linear" x1="346.494" y1="556.609" x2="346.494" y2="695.236" gradientUnits="userSpaceOnUse">
<stop offset="0.01"/>
<stop offset="0.13" stop-opacity="0.69"/>
<stop offset="1" stop-opacity="0"/>
</linearGradient>
<linearGradient id="paint1_linear" x1="343.94" y1="213.024" x2="362.481" y2="213.024" gradientUnits="userSpaceOnUse">
<stop stop-color="#ECC4D7"/>
<stop offset="0.42" stop-color="#EFD4D1"/>
<stop offset="0.6" stop-color="#F0DCCE"/>
<stop offset="1" stop-color="#F2EAC9"/>
</linearGradient>
<linearGradient id="paint2_linear" x1="11339.3" y1="7257.36" x2="12558.8" y2="7257.36" gradientUnits="userSpaceOnUse">
<stop stop-color="#ECC4D7"/>
<stop offset="0.42" stop-color="#EFD4D1"/>
<stop offset="0.6" stop-color="#F0DCCE"/>
<stop offset="1" stop-color="#F2EAC9"/>
</linearGradient>
<linearGradient id="paint3_linear" x1="4570.01" y1="1273.7" x2="4737" y2="1273.7" gradientUnits="userSpaceOnUse">
<stop stop-color="#ECC4D7"/>
<stop offset="0.42" stop-color="#EFD4D1"/>
<stop offset="0.6" stop-color="#F0DCCE"/>
<stop offset="1" stop-color="#F2EAC9"/>
</linearGradient>
<linearGradient id="paint4_linear" x1="251173" y1="6404.72" x2="249339" y2="6404.72" gradientUnits="userSpaceOnUse">
<stop stop-color="#ECC4D7"/>
<stop offset="0.42" stop-color="#EFD4D1"/>
<stop offset="0.6" stop-color="#F0DCCE"/>
<stop offset="1" stop-color="#F2EAC9"/>
</linearGradient>
<linearGradient id="paint5_linear" x1="250908" y1="6403.87" x2="249074" y2="6403.87" gradientUnits="userSpaceOnUse">
<stop stop-color="#ECC4D7"/>
<stop offset="0.42" stop-color="#EFD4D1"/>
<stop offset="0.6" stop-color="#F0DCCE"/>
<stop offset="1" stop-color="#F2EAC9"/>
</linearGradient>
<linearGradient id="paint6_linear" x1="82344.4" y1="65370" x2="82344.4" y2="96161.6" gradientUnits="userSpaceOnUse">
<stop offset="0.01"/>
<stop offset="0.13" stop-opacity="0.69"/>
<stop offset="1" stop-opacity="0"/>
</linearGradient>
<linearGradient id="paint7_linear" x1="3588.67" y1="39412.6" x2="10230.5" y2="38143.1" gradientUnits="userSpaceOnUse">
<stop offset="0.01"/>
<stop offset="0.13" stop-opacity="0.69"/>
<stop offset="1" stop-opacity="0"/>
</linearGradient>
<linearGradient id="paint8_linear" x1="96585.5" y1="37463.4" x2="90284" y2="36136.8" gradientUnits="userSpaceOnUse">
<stop offset="0.01"/>
<stop offset="0.13" stop-opacity="0.69"/>
<stop offset="1" stop-opacity="0"/>
</linearGradient>
</defs>
</svg>
