<svg width="283" height="259" viewBox="0 0 283 259" fill="none" xmlns="http://www.w3.org/2000/svg">
<path opacity="0.18" d="M226.045 97.6054C225.507 91.0349 224.905 84.3303 222.28 78.3118C217.617 67.6628 207.108 60.5402 196.1 56.719C188.828 54.1948 181.229 52.871 173.603 51.6866C164.385 50.2503 155.608 56.3975 154.107 65.5673C154.107 65.6262 154.107 65.6852 154.081 65.7495C152.392 76.4682 156.409 88.4088 151.026 97.868C145.728 107.172 133.219 109.953 122.635 108.174C117.461 107.3 112.148 105.387 108.883 101.293C105.958 97.6269 105.07 92.7177 102.43 88.8483C99.9825 85.2896 96.2232 82.8833 92.5553 80.5949C89.2586 78.5369 85.8811 76.4628 82.1111 75.5196C78.3411 74.5763 74.044 74.9247 71.0054 77.3525C65.0411 82.133 66.8481 91.4154 65.0895 98.8327C62.0455 111.561 47.444 120.511 48.2023 133.567C48.6164 140.743 53.7041 146.659 58.2808 152.212C65.3745 160.819 72.081 170.551 72.9576 181.656C73.3341 186.426 72.6027 191.271 73.4578 195.981C74.4043 201.18 78.0399 206.534 83.6439 206.432C84.3952 206.414 85.1422 206.551 85.8381 206.834C88.753 208.04 87.8603 210.484 87.8011 212.622C87.7043 215.913 89.8179 218.962 92.5231 220.854C95.2283 222.746 98.482 223.679 101.666 224.525C118.193 228.925 135.397 231.991 152.376 229.885C169.354 227.778 186.215 220.013 196.218 206.186C202.871 196.989 206.108 185.82 209.222 174.935L214.799 155.25C216.16 150.497 217.558 145.716 219.526 141.166C221.559 136.471 225.405 132.854 227.47 128.395C229.126 124.815 228.008 120.951 227.669 117.14C227.12 110.596 226.582 104.101 226.045 97.6054Z" fill="#737373"/>
<path d="M157.329 256.151C188.861 255.77 221.667 255.079 249.794 240.887C257.109 237.189 264.057 232.559 269.521 226.46C279.557 215.253 283.859 199.631 282.859 184.657C282.302 175.577 279.8 166.722 275.523 158.686C271.844 151.89 266.838 145.823 263.756 138.738C252.596 113.142 269.069 82.0632 258.803 56.1025C253.08 41.6323 239.662 31.2513 225.055 25.8116C210.448 20.3718 194.615 19.2732 179.03 18.7801C165.751 18.3567 151.951 18.212 140.033 12.3489C134.596 9.66923 129.745 5.9177 124.211 3.44168C103.5 -5.77102 79.8417 5.25314 59.9159 16.0576C55.409 18.4961 50.8377 20.9882 47.1967 24.5896C43.3675 28.3787 40.743 33.2021 37.742 37.6557C24.5388 57.1208 1.76267 72.4646 0.0954697 95.901C-1.38888 116.706 14.8744 134.638 18.3809 155.197C22.2532 177.835 10.3837 199.781 5.11322 222.113C2.42418 233.491 1.94015 250.684 14.6163 256.697C24.4098 261.338 42.0069 257.549 52.3865 257.426L157.329 256.151Z" fill="white" fill-opacity="0.05"/>
<path d="M9.70612 240.104C6.47927 240.983 2.25748 243.738 4.11829 246.508C4.80131 247.521 6.09205 247.913 7.29136 248.116C12.0563 248.942 16.9235 248.02 21.6992 247.27C52.322 242.473 83.5472 244.954 114.525 246.321C151.15 247.947 187.798 247.995 224.469 246.466C231.175 246.187 237.957 245.844 244.368 243.893C251.116 241.827 257.216 238.061 262.078 232.96C254.995 229.359 246.718 229.209 238.769 229.117L184.015 228.555C183.246 231.352 186.65 233.335 189.474 234.032C192.297 234.729 195.793 235.929 195.885 238.802C183.795 239.263 171.538 239.713 159.738 237.044C155.097 235.972 150.547 234.471 145.831 233.866C140.872 233.228 135.849 233.625 130.869 234.021L91.1518 237.178C91.4136 235.686 92.0478 234.283 92.9961 233.1C93.9444 231.916 95.1762 230.989 96.5783 230.404C80.6484 229.964 64.7131 229.973 48.7725 230.43C42.0929 230.623 34.4722 229.948 28.2551 232.247C21.9251 234.568 16.3803 238.282 9.70612 240.104Z" fill="url(#paint0_linear)"/>
<path d="M153.032 149.693L120.027 149.324L112.551 149.238C112.551 149.238 112.551 149.184 112.551 149.082C112.47 147.593 111.911 135.845 112.551 122.907C112.548 122.866 112.548 122.825 112.551 122.784C112.784 117.187 113.322 111.607 114.164 106.068C115.444 98.2224 117.51 91.4964 120.801 88.2808C121.457 87.643 127.47 80.2418 137.134 82.0961C146.799 83.9504 151.945 83.8486 153.462 106.851C153.844 112.167 153.032 149.693 153.032 149.693Z" fill="#336B68"/>
<path d="M133.504 83.8113C133.722 84.0419 133.986 84.2244 134.279 84.3472C134.586 84.4449 134.908 84.4866 135.23 84.4705C135.896 84.5008 136.56 84.3799 137.172 84.1168C137.864 83.7441 138.396 83.1323 138.667 82.3964C138.934 81.6664 139.046 80.8888 138.995 80.1134C139.005 79.9526 138.967 79.7926 138.888 79.6525C138.801 79.5574 138.696 79.4815 138.578 79.4298C138.46 79.3781 138.333 79.3517 138.205 79.3523C137.129 79.213 136.034 79.1112 134.918 79.0469C134.257 79.004 132.719 78.6449 132.229 79.1969C131.235 80.3224 132.692 83.0074 133.504 83.8113Z" fill="url(#paint1_linear)"/>
<path d="M128.271 71.3178C128.359 72.6586 128.714 73.9685 129.315 75.1712C130.428 77.1059 132.703 78.1671 134.94 78.3011C136.695 78.4494 138.443 77.9433 139.845 76.8808C140.604 76.2115 141.258 75.4329 141.786 74.571C142.22 73.9554 142.581 73.2917 142.862 72.5934C143.138 71.7751 143.308 70.925 143.368 70.0638C143.572 68.0915 143.685 66.1032 143.701 64.1203C143.732 63.292 143.681 62.4627 143.55 61.6442C143.292 60.2384 142.616 58.9425 141.609 57.9249C141.258 57.5442 140.821 57.2521 140.334 57.0727C139.846 56.9486 139.339 56.9177 138.839 56.9816C137.968 57.0352 137.102 57.1156 136.236 57.2228C135.615 57.2795 135.003 57.4017 134.408 57.5872C133.512 57.9214 132.692 58.4318 131.998 59.0878C130.384 60.5445 129.173 62.39 128.481 64.4472C128.132 65.3645 127.925 66.3296 127.868 67.3091C127.923 68.6521 128.057 69.9907 128.271 71.3178Z" fill="url(#paint2_linear)"/>
<path d="M125.733 64.4582C125.463 63.5831 125.269 62.6866 125.152 61.7786C125.039 59.9263 125.378 58.0744 126.141 56.3817C126.311 55.9424 126.533 55.525 126.803 55.1383C127.192 54.6632 127.664 54.2619 128.196 53.9539C131.783 51.703 136.387 51.4458 140.485 52.5444C142.851 53.1715 145.325 54.2326 147.654 53.5466C147.526 53.9958 147.306 54.4137 147.008 54.7739C147.747 54.7499 148.463 54.5074 149.063 54.0772C148.996 54.5858 148.812 55.072 148.525 55.4974L149.278 55.267C148.5 56.6014 147.625 57.8768 146.659 59.0828C146.393 59.3863 146.169 59.7232 145.992 60.085C145.818 60.6587 145.728 61.2543 145.723 61.8536C145.582 62.7751 145.325 63.6754 144.959 64.5333L143.964 67.1647C143.566 64.9781 144.142 62.5182 142.921 60.6585C142.701 60.2995 142.389 60.0054 142.018 59.8063C141.211 59.4097 140.264 59.7099 139.388 59.8974C137.091 60.3798 134.719 60.0421 132.396 59.9564C131.973 59.9126 131.545 59.9696 131.148 60.1225C130.861 60.2839 130.609 60.5007 130.406 60.7603C129.844 61.3806 129.385 62.0861 129.046 62.8504C128.738 63.6291 128.52 64.44 128.395 65.2675C128.293 65.8034 128.266 67.4112 127.857 67.7596C126.873 68.5528 125.894 65.037 125.733 64.4582Z" fill="#B6A257"/>
<path d="M143.427 72.133C143.292 74.2338 143.088 76.5008 141.684 78.0711C140.612 79.1709 139.178 79.85 137.645 79.9844C136.124 80.1119 134.593 80.0597 133.085 79.829C132.466 79.7967 131.858 79.6495 131.294 79.3949C130.584 79.0208 129.958 78.5067 129.454 77.8838C128.95 77.261 128.579 76.5424 128.363 75.7719L127.706 72.6153C127.378 71.0343 127.922 69.2764 127.879 67.6633C128.202 68.746 128.698 69.7701 129.347 70.6966C129.627 71.1422 129.992 71.5283 130.422 71.8328C131.083 72.1912 131.821 72.3843 132.574 72.3956C133.739 72.4973 134.91 72.5349 136.08 72.5081C137.162 72.5221 138.24 72.3777 139.28 72.0794C140.327 71.7736 141.236 71.119 141.856 70.225C142.163 69.7481 143.045 66.8111 143.604 67.1595C144.163 67.5078 143.47 71.4684 143.427 72.133Z" fill="#B6A257"/>
<path d="M138.517 74.2452C138.601 74.2455 138.685 74.2599 138.764 74.288C138.848 74.3343 138.92 74.4006 138.972 74.481C139.025 74.5613 139.057 74.6534 139.065 74.7489C139.105 75.1722 139.008 75.5971 138.788 75.9615C138.569 76.326 138.238 76.6109 137.844 76.7748C137.049 77.081 136.188 77.1788 135.344 77.0588C135.027 77.0483 134.714 76.9848 134.418 76.8712C134.102 76.71 133.82 76.4878 133.59 76.2174C133.46 76.0882 133.353 75.9378 133.273 75.7726C133.217 75.6216 133.201 75.4586 133.228 75.2998C133.254 75.141 133.322 74.9918 133.424 74.8668C133.929 74.2291 134.784 74.2505 135.516 74.2237C136.516 74.1862 137.516 74.1969 138.517 74.2452Z" fill="url(#paint3_linear)"/>
<path d="M112.567 149.238L116.87 220.217L116.563 231.22C116.563 231.22 107.958 235.808 107.668 238.252C107.377 240.695 121.468 239.473 121.468 239.473L128.524 175.906C128.524 175.906 133.735 168.875 136.5 175.29C139.264 181.705 136.806 240.084 136.806 240.084C136.806 240.084 148.686 241.156 149.606 239.779C150.526 238.402 144.551 232.903 144.551 232.903C144.551 232.903 152.139 174.224 152.139 169.663C152.139 165.102 153.059 149.721 153.059 149.721L112.567 149.238Z" fill="#3F3D56"/>
<path d="M150.327 86.5221L164.262 98.6127C164.262 98.6127 183.085 86.3881 186.462 87.3045C189.84 88.221 194.131 97.0853 183.397 101.973C180.17 103.436 175.131 106.679 170.532 109.299C168.071 110.698 165.22 111.264 162.408 110.912C159.596 110.561 156.975 109.31 154.936 107.348L147.407 100.092C145.132 97.4122 142.029 96.0135 141.942 92.4924L141.641 90.7024C141.55 86.4042 140.587 80.8465 150.327 86.5221Z" fill="#336B68"/>
<path d="M113.245 90.1893C111.094 91.2022 108.942 92.2258 106.598 92.6117C104.253 92.9976 101.881 92.735 99.5416 92.3866C94.4212 91.6238 89.3697 90.4572 84.4346 88.8977C82.6168 88.3242 80.7613 87.6865 78.8521 87.7454C76.9429 87.8044 74.9261 88.7316 74.1678 90.4733C72.8394 93.5174 75.8511 96.6473 78.7123 98.3408C85.2466 102.21 92.6576 104.306 99.9718 106.38C102.349 107.018 104.737 107.693 107.189 107.554C109.717 107.409 112.105 106.401 114.428 105.41C118.338 103.716 122.463 101.787 124.706 98.1747C126.109 95.9131 128.599 87.2524 125.781 85.3123C123.533 83.7259 115.552 89.096 113.245 90.1893Z" fill="#336B68"/>
<path d="M191.808 85.6219C193.077 84.1964 194.093 82.5457 195.529 81.2862C197.087 79.9318 199.045 79.1192 201.106 78.971C201.729 78.9048 202.359 78.9668 202.957 79.1532C204.57 79.7159 205.393 81.506 205.597 83.1888C205.756 84.2579 205.624 85.3497 205.215 86.3508C204.441 88.0551 202.655 89.0841 200.875 89.679C199.095 90.2738 197.197 90.5632 195.497 91.3618C193.706 92.2032 192.066 93.6288 190.087 93.6449C188.5 93.6449 185.478 91.8816 186.376 89.9362C186.79 89.0466 188.264 88.5964 189.033 88.0658C190.05 87.362 190.982 86.5418 191.808 85.6219Z" fill="url(#paint4_linear)"/>
<path d="M74.9207 85.2842C73.6514 83.8586 72.635 82.2079 71.199 80.9485C69.6457 79.5874 67.6899 78.7672 65.6273 78.6118C65.0064 78.5453 64.3784 78.6073 63.7826 78.794C62.1692 79.3568 61.341 81.1468 61.142 82.8296C60.979 83.8982 61.1091 84.9908 61.5185 85.9916C62.2929 87.6959 64.0784 88.7249 65.864 89.3198C67.6495 89.9147 69.5372 90.2041 71.2421 91.0026C73.033 91.844 74.6733 93.2643 76.6578 93.2857C78.2389 93.2857 81.2668 91.5225 80.3633 89.577C79.9545 88.6874 78.4756 88.2372 77.7065 87.7066C76.6862 87.0102 75.7513 86.1972 74.9207 85.2842Z" fill="url(#paint5_linear)"/>
<path d="M76.1308 105.869C76.1461 105.964 76.1416 106.06 76.1175 106.152C76.0935 106.244 76.0504 106.331 75.9909 106.405C74.754 108.496 71.5271 108.356 69.4835 107.032C68.3095 106.241 67.3436 105.179 66.667 103.938C65.9903 102.697 65.6227 101.312 65.5951 99.8992C65.5841 99.4529 65.6111 99.0065 65.6758 98.5647C65.6758 98.4307 65.7188 98.3021 65.7403 98.1735L65.6758 98.5057C65.4445 99.7009 65.2187 100.901 64.9981 102.091C64.5787 104.235 64.1538 106.459 63.1427 108.431C62.1316 110.403 60.4537 112.118 58.3024 112.638C57.1462 112.917 55.7694 112.751 55.0487 111.818C54.7914 111.464 54.6252 111.051 54.5647 110.618C54.2743 108.774 55.4521 107.049 56.3502 105.403C57.8734 102.616 58.7414 99.5213 58.8887 96.3513C58.2156 97.3396 57.3416 98.1759 56.3233 98.8059C53.317 100.687 49.1812 100.875 46.191 98.9077C45.0339 98.1913 44.1398 97.1218 43.6418 95.8582C43.4067 95.2305 43.3445 94.5516 43.4618 93.8918C43.579 93.2321 43.8715 92.6157 44.3087 92.1067C44.7663 91.6111 45.3894 91.2986 46.0615 91.2276C46.7336 91.1565 47.4086 91.3319 47.9604 91.7208C48.4229 92.1067 48.7241 92.648 49.1597 93.0714C50.3052 94.1915 52.2037 94.2236 53.6343 93.4948C55.0199 92.6838 56.1405 91.4907 56.8611 90.0594C57.5011 88.9554 58.0497 87.7549 58.9639 86.8438C59.2973 86.4929 59.6981 86.2124 60.1425 86.019C60.587 85.8257 61.0659 85.7234 61.5508 85.7184C62.4328 85.7612 63.3471 86.7902 64.1645 86.5759C65.778 86.1257 64.8798 83.2048 66.5201 82.7386C67.3753 82.5028 68.2089 83.4246 68.2358 84.3089C68.2626 85.1932 67.7356 86.0131 67.2462 86.7527C69.3974 87.5834 70.3171 90.1505 70.3924 92.4497C70.4677 94.7489 69.9729 97.0748 70.43 99.3257C70.7169 100.669 71.3282 101.923 72.211 102.979C73.0938 104.034 74.2214 104.859 75.4962 105.382C75.6991 105.449 75.8833 105.563 76.034 105.714C76.0749 105.76 76.1077 105.813 76.1308 105.869Z" fill="#F9D04F"/>
<path d="M61.5401 85.6875C59.0016 85.9394 58.8511 96.3311 58.8511 96.3311L56.2857 98.7857C53.2794 100.667 49.1436 100.854 46.1534 98.8875C44.9963 98.1712 44.1022 97.1016 43.6042 95.8381C43.3691 95.2104 43.3069 94.5314 43.4242 93.8717C43.5414 93.2119 43.8339 92.5956 44.2711 92.0865C44.7287 91.591 45.3518 91.2784 46.0239 91.2074C46.696 91.1364 47.371 91.3117 47.9228 91.7007C48.3853 92.0865 48.6865 92.6278 49.1221 93.0512C50.2676 94.1713 52.1661 94.2035 53.5967 93.4746C54.9823 92.6636 56.1029 91.4706 56.8235 90.0393C57.4635 88.9353 58.0121 87.7348 58.9263 86.8237C59.2619 86.4676 59.6667 86.1832 60.116 85.9878C60.5654 85.7925 61.0499 85.6903 61.5401 85.6875Z" fill="#F5C24A"/>
<path d="M76.1306 105.869C76.146 105.964 76.1415 106.06 76.1174 106.152C76.0933 106.244 76.0502 106.331 75.9908 106.405C74.7538 108.496 71.527 108.356 69.4833 107.032C68.3094 106.241 67.3435 105.179 66.6668 103.938C65.9902 102.697 65.6226 101.312 65.595 99.8992C65.5894 99.8099 65.5894 99.7205 65.595 99.6312C65.595 99.2721 65.6434 98.9238 65.6595 98.5594V98.5004C65.676 96.9714 65.8727 95.4496 66.2457 93.9664C66.3951 93.4458 66.5876 92.9385 66.8212 92.4497C66.9556 92.1603 67.6386 91.4046 67.6386 91.1152C67.701 93.329 67.8932 95.5372 68.2141 97.7287C68.3216 98.5915 68.4292 99.4436 68.6067 100.29C68.7041 101.041 68.953 101.764 69.3385 102.416C69.7239 103.068 70.2378 103.636 70.8493 104.085C71.4093 104.582 72.0616 104.964 72.7693 105.21C73.6997 105.494 74.7108 105.403 75.6681 105.602C75.7909 105.623 75.9114 105.655 76.0284 105.698C76.073 105.748 76.1076 105.806 76.1306 105.869Z" fill="#F5C24A"/>
<path opacity="0.54" d="M217.628 98.4105L214.821 99.8361C213.493 100.512 211.953 100.64 210.531 100.194C209.109 99.7481 207.921 98.7629 207.221 97.4511L198.616 81.3731C198.56 81.2662 198.529 81.1483 198.524 81.0278C198.52 80.9073 198.542 80.7873 198.59 80.6764L199.063 79.6046C199.118 79.4798 199.14 79.343 199.128 79.2072C199.115 79.0714 199.067 78.9412 198.99 78.8289C198.912 78.7166 198.807 78.6259 198.684 78.5656C198.561 78.5054 198.425 78.4774 198.288 78.4845H197.675C197.524 78.4927 197.373 78.4584 197.24 78.3855C197.106 78.3125 196.997 78.2039 196.922 78.0718L193.238 71.2922C193.18 71.1875 193.146 71.071 193.138 70.9514C193.131 70.8318 193.15 70.712 193.195 70.6009L194.809 66.7368C194.819 66.7079 194.833 66.6807 194.852 66.6564L192.631 63.1675L196.508 60.7129L198.988 64.5931L203.903 64.9628C204.038 64.9735 204.168 65.0179 204.28 65.0919C204.393 65.1659 204.485 65.2672 204.548 65.3862L208.926 73.4735C208.991 73.5922 209.026 73.7245 209.028 73.8594C209.026 74.0355 208.968 74.2064 208.862 74.347C208.782 74.4532 208.731 74.5772 208.711 74.7081C208.692 74.839 208.705 74.9726 208.749 75.0972C208.794 75.2218 208.869 75.3334 208.967 75.4223C209.066 75.5111 209.185 75.5744 209.313 75.6065L211.373 76.1424C211.584 76.2043 211.764 76.3418 211.879 76.5283L219.989 90.543C220.371 91.2096 220.614 91.9468 220.702 92.7096C220.789 93.4725 220.721 94.2452 220.5 94.9809C220.279 95.7165 219.911 96.3999 219.417 96.9894C218.924 97.5789 218.315 98.0624 217.628 98.4105Z" fill="white"/>
<path opacity="0.54" d="M218.704 97.494L215.891 98.9196C214.564 99.5951 213.025 99.7236 211.604 99.2774C210.183 98.8312 208.995 97.846 208.297 96.5347L199.692 80.4567C199.64 80.3478 199.614 80.2288 199.614 80.1083C199.614 79.9878 199.64 79.8689 199.692 79.76L200.165 78.6881C200.221 78.5633 200.243 78.4265 200.23 78.2908C200.217 78.155 200.17 78.0247 200.092 77.9124C200.015 77.8001 199.909 77.7095 199.787 77.6492C199.664 77.5889 199.528 77.5609 199.391 77.568H198.778C198.626 77.5769 198.475 77.5429 198.342 77.4699C198.208 77.3969 198.099 77.2878 198.025 77.1553L194.314 70.3758C194.256 70.2706 194.223 70.1539 194.217 70.0343C194.21 69.9147 194.231 69.7952 194.276 69.6844L195.89 65.8203C195.9 65.796 195.913 65.7727 195.927 65.7506L193.701 62.2671L197.584 59.8125L200.058 63.6927L204.979 64.0571C205.113 64.0705 205.241 64.116 205.354 64.1898C205.466 64.2635 205.559 64.3632 205.624 64.4805L210.002 72.5731C210.075 72.7099 210.108 72.8646 210.097 73.0192C210.085 73.1738 210.03 73.322 209.937 73.4467C209.857 73.5521 209.804 73.6758 209.783 73.8067C209.763 73.9376 209.775 74.0716 209.819 74.1965C209.864 74.3215 209.938 74.4335 210.037 74.5224C210.135 74.6114 210.255 74.6745 210.384 74.7061L212.444 75.242C212.656 75.3005 212.837 75.4388 212.949 75.6279L221.065 89.6426C221.443 90.309 221.682 91.0446 221.768 91.8054C221.853 92.5662 221.784 93.3364 221.563 94.0697C221.343 94.803 220.976 95.4844 220.484 96.0728C219.993 96.6613 219.387 97.1447 218.704 97.494Z" fill="white"/>
<path d="M169.326 200.169C169.29 199.441 168.668 198.877 167.939 198.913L162.655 199.173C162.317 199.19 162.003 199.332 161.768 199.575C161.512 199.841 161.38 200.19 161.398 200.559C161.421 201.018 161.674 201.426 162.077 201.651C162.401 201.832 166.495 204.078 168.208 205.017C168.815 203.935 169.378 201.226 169.326 200.169Z" fill="#404040"/>
<path d="M167.809 196.271L162.525 196.531C161.513 196.581 160.569 197.009 159.865 197.737C159.107 198.523 158.702 199.599 158.756 200.69C158.824 202.066 159.583 203.289 160.788 203.961C161.205 204.194 167.417 207.601 167.681 207.746L168.009 207.926L168.382 207.907C168.764 207.889 169.334 207.746 169.885 207.176C170.548 206.49 171.095 205.262 171.512 203.528C171.824 202.233 172.007 200.831 171.968 200.04C171.861 197.854 169.995 196.163 167.809 196.271ZM161.398 200.56C161.38 200.191 161.512 199.841 161.768 199.575C162.003 199.333 162.317 199.19 162.655 199.173L167.939 198.913C168.668 198.877 169.29 199.441 169.326 200.169C169.378 201.227 168.815 203.935 168.208 205.017C166.495 204.078 162.401 201.832 162.077 201.651C161.675 201.427 161.421 201.019 161.398 200.56Z" fill="#737373"/>
<path d="M177.641 183.741C177.271 183.736 176.927 183.879 176.67 184.145C176.436 184.388 176.304 184.707 176.299 185.045L176.224 190.335C176.213 191.065 176.798 191.667 177.528 191.677C178.586 191.692 181.273 191.035 182.334 190.391C181.335 188.711 178.948 184.699 178.756 184.381C178.517 183.987 178.1 183.747 177.641 183.741Z" fill="#404040"/>
<path d="M177.679 181.096C176.587 181.08 175.526 181.522 174.767 182.307C174.064 183.036 173.668 183.994 173.654 185.007L173.579 190.298C173.547 192.486 175.302 194.291 177.49 194.322C178.282 194.334 179.677 194.102 180.96 193.745C182.679 193.268 183.886 192.678 184.549 191.992C184.549 191.992 184.549 191.992 184.549 191.992C185.1 191.421 185.223 190.846 185.228 190.464L185.233 190.091L185.042 189.769C184.888 189.51 181.267 183.421 181.019 183.012C180.305 181.832 179.057 181.115 177.679 181.096ZM177.528 191.677C176.798 191.667 176.213 191.065 176.224 190.335L176.299 185.045C176.304 184.707 176.436 184.388 176.67 184.145C176.927 183.879 177.271 183.736 177.641 183.741C178.1 183.747 178.517 183.987 178.755 184.381C178.948 184.699 181.335 188.711 182.333 190.391C181.273 191.035 178.586 191.692 177.528 191.677Z" fill="#737373"/>
<path d="M186.998 209.029L170.242 216.754L169.591 216.125C168.215 214.797 167.155 212.942 166.44 210.612C165.812 208.564 165.48 206.201 165.48 203.778C165.48 198.75 166.893 194.164 169.167 191.809C171.44 189.455 175.974 187.883 181 187.707C183.421 187.623 185.794 187.872 187.862 188.428C190.216 189.061 192.106 190.056 193.483 191.385L194.133 192.014L186.998 209.029Z" fill="#D9D9D9"/>
<path d="M169.167 191.809C171.44 189.454 175.974 187.883 181 187.707C183.421 187.622 185.794 187.871 187.862 188.427C190.216 189.061 192.106 190.055 193.483 191.384L194.133 192.013L186.998 209.029" fill="#CDCDD0"/>
<path d="M176.833 202.278C174.56 200.082 170.924 200.146 168.728 202.419L165.551 205.709C165.68 207.445 165.98 209.113 166.44 210.611C167.155 212.941 168.215 214.796 169.591 216.125L170.242 216.754L171.289 216.271L176.975 210.383C179.17 208.109 179.107 204.473 176.833 202.278Z" fill="#737373"/>
<path d="M193.482 191.386C192.106 190.057 190.215 189.062 187.862 188.429C186.348 188.022 184.671 187.78 182.931 187.712L179.755 191.002C177.559 193.275 177.622 196.911 179.896 199.107C182.17 201.303 185.806 201.239 188.001 198.965L193.687 193.078L194.133 192.014L193.482 191.386Z" fill="#737373"/>
<path d="M174.843 195.453L170.163 190.934C169.796 191.212 169.462 191.504 169.166 191.81C168.871 192.116 168.591 192.46 168.326 192.837L173.005 197.356L174.843 195.453Z" fill="#737373"/>
<path d="M175.522 208.367C176.03 207.841 176.015 207.004 175.49 206.496C174.964 205.989 174.127 206.003 173.619 206.529C173.112 207.054 173.126 207.892 173.652 208.399C174.177 208.907 175.015 208.892 175.522 208.367Z" fill="#404040"/>
<path d="M183.561 204.484L182.949 205.118L182.336 205.752C181.998 206.103 182.007 206.661 182.358 206.999C182.992 207.612 184.852 206.956 184.852 206.956C184.852 206.956 185.442 205.074 184.808 204.462C184.458 204.123 183.9 204.133 183.561 204.484Z" fill="#404040"/>
<path d="M185.936 197.582C186.443 197.056 186.429 196.219 185.903 195.711C185.378 195.204 184.54 195.218 184.033 195.744C183.525 196.269 183.54 197.107 184.065 197.614C184.591 198.122 185.428 198.107 185.936 197.582Z" fill="#404040"/>
<path d="M178.777 133.561L184.505 231.663H251.177L256.383 134.08L178.777 133.561Z" fill="#3F3D56"/>
<path d="M178.777 133.561L184.505 231.663H251.177L256.383 134.08L178.777 133.561Z" fill="url(#paint6_linear)"/>
<path d="M260.158 123.18H175.647V134.338H260.158V123.18Z" fill="#3F3D56"/>
<path d="M24.1355 133.561L29.8632 231.663H96.5352L101.747 134.08L24.1355 133.561Z" fill="#4A9575"/>
<path d="M105.522 123.18H21.0107V134.338H105.522V123.18Z" fill="#3B7F59"/>
<path d="M75.3884 161.842L79.5672 159.474C79.5606 159.579 79.5426 159.683 79.5134 159.785C77.7709 162.791 76.0338 165.803 74.2752 168.804C74.2174 168.901 74.1396 168.985 74.0469 169.05C73.9541 169.114 73.8486 169.159 73.7374 169.179C70.1233 169.179 66.5092 169.179 62.8521 169.045L66.9986 166.655L64.7828 162.855L59.4747 171.966L51.3376 167.293C51.4506 167.057 51.5474 166.827 51.6711 166.618C53.1877 164.002 54.7258 161.398 56.2102 158.766C56.5587 158.081 57.1011 157.513 57.7702 157.132C58.4393 156.751 59.2058 156.574 59.9748 156.623C63.1623 156.644 66.355 156.644 69.5532 156.623C70.4161 156.567 71.2763 156.766 72.0256 157.196C72.775 157.626 73.3799 158.268 73.7642 159.04C74.2644 159.967 74.8076 160.851 75.3884 161.842ZM58.9907 170.46C59.0982 170.385 59.1628 170.364 59.1843 170.326C60.7977 167.582 62.4111 164.838 63.9815 162.084C64.0227 161.994 64.044 161.896 64.044 161.797C64.044 161.698 64.0227 161.6 63.9815 161.51C63.5769 160.697 63.1075 159.917 62.5778 159.179C60.8999 157.035 58.3238 157.26 56.99 159.57L53.5696 165.465C53.306 165.921 53.0317 166.382 52.7682 166.891L58.9907 170.46Z" fill="white"/>
<path d="M47.6052 173.6L43.3027 171.108C43.6254 171.108 43.7868 171.055 43.9481 171.055C47.2771 171.055 50.6008 171.055 53.9244 171.055C54.0973 171.058 54.2675 171.097 54.4241 171.17C54.5807 171.243 54.7201 171.348 54.8333 171.478C56.6027 174.436 58.3291 177.422 60.0608 180.396C60.1302 180.541 60.1913 180.689 60.2437 180.841L55.9412 178.397L53.7416 182.224H64.3257V191.597C64.0675 191.597 63.7878 191.645 63.5566 191.645C60.5502 191.645 57.5493 191.645 54.5429 191.645C53.7739 191.693 53.0077 191.516 52.3388 191.135C51.6698 190.754 51.1274 190.186 50.7783 189.502C49.1648 186.64 47.4923 183.81 45.8466 180.969C45.4455 180.315 45.2333 179.563 45.2333 178.796C45.2333 178.029 45.4455 177.277 45.8466 176.623C46.4166 175.615 46.9921 174.662 47.6052 173.6ZM58.4635 190.622C59.8618 190.622 61.2548 190.622 62.6477 190.622C63.121 190.622 63.3307 190.472 63.3253 189.979C63.3253 187.974 63.3253 185.97 63.3253 183.965C63.3253 183.488 63.164 183.311 62.6746 183.317C59.6682 183.317 56.6673 183.317 53.6609 183.317C53.5357 183.316 53.4116 183.341 53.2968 183.391C53.1819 183.441 53.0788 183.514 52.994 183.606C52.4796 184.355 52.0366 185.15 51.671 185.98C50.6922 188.489 52.1658 190.589 54.8441 190.589L58.4635 190.622Z" fill="white"/>
<path d="M71.6505 177.224V181.914H76.0336L70.79 172.846L78.9378 168.113C79.0991 168.371 79.2497 168.58 79.3788 168.805C80.8846 171.393 82.369 173.998 83.8964 176.57C84.3146 177.196 84.5405 177.93 84.5462 178.682C84.552 179.435 84.3373 180.172 83.9286 180.804C82.2507 183.634 80.6104 186.48 78.9647 189.331C78.6068 190.025 78.057 190.602 77.3803 190.994C76.7037 191.386 75.9284 191.577 75.1462 191.544C74.0276 191.544 72.9036 191.544 71.7096 191.544V196.571C71.4622 196.234 71.3386 196.094 71.2471 195.934C69.5961 193.093 67.9557 190.242 66.2832 187.407C66.1582 187.227 66.0913 187.014 66.0913 186.796C66.0913 186.578 66.1582 186.364 66.2832 186.185C68.0418 183.189 69.7628 180.172 71.4999 177.165L71.6505 177.224ZM72.2474 173.231L76.1035 179.888C77.3512 182.031 77.3566 182.031 79.8682 181.983H80.1102C82.8315 181.796 84.2083 179.304 82.8638 176.951C81.5981 174.753 80.3271 172.558 79.0507 170.364C78.9055 170.123 78.7442 169.893 78.5667 169.619L72.2474 173.231Z" fill="white"/>
<path d="M227.029 161.842L231.208 159.473C231.204 159.579 231.186 159.683 231.154 159.784C229.415 162.793 227.671 165.799 225.921 168.804C225.864 168.901 225.786 168.985 225.693 169.05C225.6 169.115 225.495 169.159 225.383 169.179C221.769 169.179 218.161 169.179 214.498 169.045L218.645 166.655L216.434 162.855C214.627 165.958 212.89 168.938 211.126 171.966L202.984 167.293C203.102 167.057 203.199 166.826 203.322 166.617C204.834 164.002 206.377 161.397 207.856 158.766C208.205 158.081 208.748 157.514 209.417 157.133C210.086 156.752 210.852 156.574 211.621 156.622C214.815 156.644 218.008 156.644 221.199 156.622C222.063 156.567 222.923 156.767 223.673 157.197C224.423 157.627 225.029 158.268 225.416 159.039C225.905 159.966 226.454 160.851 227.029 161.842ZM210.637 170.46C210.744 170.385 210.803 170.364 210.825 170.326C212.435 167.582 214.034 164.834 215.622 162.083C215.663 161.993 215.685 161.896 215.685 161.797C215.685 161.698 215.663 161.6 215.622 161.51C215.217 160.698 214.75 159.918 214.224 159.179C212.54 157.035 209.97 157.26 208.631 159.57C207.496 161.537 206.35 163.498 205.216 165.465C204.952 165.921 204.678 166.382 204.409 166.891L210.637 170.46Z" fill="white"/>
<path d="M199.246 173.6L194.943 171.108C195.271 171.108 195.433 171.055 195.594 171.055C198.918 171.055 202.241 171.055 205.57 171.055C205.742 171.058 205.912 171.098 206.067 171.171C206.223 171.244 206.362 171.348 206.474 171.478C208.243 174.436 209.97 177.422 211.707 180.396C211.75 180.476 211.777 180.573 211.89 180.841L207.587 178.397L205.388 182.224H215.945V191.597C215.681 191.597 215.407 191.645 215.17 191.645C212.169 191.645 209.163 191.645 206.162 191.645C205.393 191.693 204.627 191.516 203.958 191.135C203.289 190.754 202.746 190.186 202.397 189.502C200.784 186.64 199.111 183.81 197.466 180.969C197.065 180.315 196.852 179.563 196.852 178.796C196.852 178.029 197.065 177.277 197.466 176.623C198.041 175.615 198.617 174.662 199.246 173.6ZM210.11 190.622C211.502 190.622 212.895 190.622 214.294 190.622C214.767 190.622 214.971 190.472 214.966 189.979C214.966 187.974 214.966 185.97 214.966 183.965C214.966 183.488 214.805 183.311 214.315 183.317C211.309 183.317 208.308 183.317 205.302 183.317C205.176 183.316 205.052 183.341 204.937 183.391C204.823 183.441 204.719 183.514 204.635 183.606C204.122 184.355 203.681 185.15 203.317 185.98C202.333 188.489 203.812 190.589 206.49 190.589L210.11 190.622Z" fill="white"/>
<path d="M223.291 177.224V181.914H227.658L222.414 172.846L230.578 168.113C230.74 168.371 230.89 168.58 231.019 168.805C232.525 171.393 234.01 173.998 235.537 176.57C235.956 177.196 236.182 177.93 236.188 178.682C236.194 179.435 235.979 180.172 235.569 180.804C233.898 183.634 232.246 186.476 230.611 189.331C230.252 190.024 229.702 190.6 229.025 190.992C228.349 191.385 227.574 191.576 226.792 191.544C225.668 191.544 224.544 191.544 223.35 191.544V196.571C223.103 196.234 222.979 196.094 222.888 195.934C221.237 193.093 219.596 190.242 217.929 187.407C217.8 187.229 217.73 187.015 217.73 186.796C217.73 186.576 217.8 186.363 217.929 186.185C219.682 183.189 221.409 180.172 223.14 177.165L223.291 177.224ZM223.888 173.231L227.744 179.888C228.997 182.031 228.997 182.031 231.509 181.983H231.745C234.472 181.796 235.849 179.304 234.504 176.951C233.235 174.753 231.962 172.558 230.686 170.364C230.546 170.123 230.379 169.893 230.202 169.619L223.888 173.231Z" fill="white"/>
<path d="M120.027 149.323L112.551 149.237C112.551 149.237 112.551 149.183 112.551 149.081C112.508 147.474 112.185 134.515 112.551 122.906C112.549 122.865 112.549 122.824 112.551 122.783C112.766 115.746 113.245 109.229 114.165 106.067C114.235 105.832 114.31 105.612 114.39 105.414C114.39 105.414 117.284 103.163 117.483 104.342C117.693 105.408 118.537 141.611 120.027 149.323Z" fill="url(#paint7_linear)"/>
<path d="M145.438 149.72L152.914 149.64C152.914 149.64 152.914 149.586 152.914 149.479C152.957 147.871 154.21 108.995 153.268 105.833C153.268 105.833 151.972 104.638 150.972 109.616C150.752 110.694 146.928 142.014 145.438 149.72Z" fill="url(#paint8_linear)"/>
<path opacity="0.18" d="M198.95 77.6745L208.846 72.8672L208.996 74.9841L211.352 76.1364L214.374 80.9437L203.091 86.6782L199.714 80.4667L200.391 78.4248L198.95 77.6745Z" fill="#336B68"/>
<defs>
<linearGradient id="paint0_linear" x1="132.87" y1="213.441" x2="132.87" y2="266.601" gradientUnits="userSpaceOnUse">
<stop offset="0.01"/>
<stop offset="0.13" stop-opacity="0.69"/>
<stop offset="1" stop-opacity="0"/>
</linearGradient>
<linearGradient id="paint1_linear" x1="131.891" y1="81.689" x2="139" y2="81.689" gradientUnits="userSpaceOnUse">
<stop stop-color="#ECC4D7"/>
<stop offset="0.42" stop-color="#EFD4D1"/>
<stop offset="0.6" stop-color="#F0DCCE"/>
<stop offset="1" stop-color="#F2EAC9"/>
</linearGradient>
<linearGradient id="paint2_linear" x1="4348.27" y1="2782.97" x2="4815.91" y2="2782.97" gradientUnits="userSpaceOnUse">
<stop stop-color="#ECC4D7"/>
<stop offset="0.42" stop-color="#EFD4D1"/>
<stop offset="0.6" stop-color="#F0DCCE"/>
<stop offset="1" stop-color="#F2EAC9"/>
</linearGradient>
<linearGradient id="paint3_linear" x1="1752.46" y1="488.424" x2="1816.49" y2="488.424" gradientUnits="userSpaceOnUse">
<stop stop-color="#ECC4D7"/>
<stop offset="0.42" stop-color="#EFD4D1"/>
<stop offset="0.6" stop-color="#F0DCCE"/>
<stop offset="1" stop-color="#F2EAC9"/>
</linearGradient>
<linearGradient id="paint4_linear" x1="96317" y1="2456.01" x2="95613.9" y2="2456.01" gradientUnits="userSpaceOnUse">
<stop stop-color="#ECC4D7"/>
<stop offset="0.42" stop-color="#EFD4D1"/>
<stop offset="0.6" stop-color="#F0DCCE"/>
<stop offset="1" stop-color="#F2EAC9"/>
</linearGradient>
<linearGradient id="paint5_linear" x1="96215.3" y1="2455.68" x2="95512.1" y2="2455.68" gradientUnits="userSpaceOnUse">
<stop stop-color="#ECC4D7"/>
<stop offset="0.42" stop-color="#EFD4D1"/>
<stop offset="0.6" stop-color="#F0DCCE"/>
<stop offset="1" stop-color="#F2EAC9"/>
</linearGradient>
<linearGradient id="paint6_linear" x1="31576.5" y1="25067.3" x2="31576.5" y2="36875" gradientUnits="userSpaceOnUse">
<stop offset="0.01"/>
<stop offset="0.13" stop-opacity="0.69"/>
<stop offset="1" stop-opacity="0"/>
</linearGradient>
<linearGradient id="paint7_linear" x1="1376.14" y1="15113.5" x2="3923.07" y2="14626.7" gradientUnits="userSpaceOnUse">
<stop offset="0.01"/>
<stop offset="0.13" stop-opacity="0.69"/>
<stop offset="1" stop-opacity="0"/>
</linearGradient>
<linearGradient id="paint8_linear" x1="37037.5" y1="14366" x2="34621.1" y2="13857.3" gradientUnits="userSpaceOnUse">
<stop offset="0.01"/>
<stop offset="0.13" stop-opacity="0.69"/>
<stop offset="1" stop-opacity="0"/>
</linearGradient>
</defs>
</svg>
