<svg width="234" height="237" viewBox="0 0 234 237" fill="none" xmlns="http://www.w3.org/2000/svg">
<path d="M0 227.325C4.39675 230.118 10.7321 227.293 15.1581 230.043C16.3011 230.751 17.2233 231.794 18.4053 232.437C19.8243 233.213 21.4934 233.352 23.1073 233.411C36.6222 233.933 50.3645 230.163 63.5417 233.209C67.2273 234.06 70.8318 235.443 74.6083 235.645C81.132 235.999 87.3829 232.816 93.9131 232.641C103.817 232.375 113.549 239.002 123.106 236.388C126.249 235.528 129.133 233.693 132.376 233.385C135.991 233.06 139.465 234.635 142.979 235.554C155.438 238.801 168.414 233.541 181.296 233.148C189.697 232.891 198.016 234.723 206.41 235.145C212.378 235.443 218.36 235.025 224.322 234.609C226.595 234.45 228.975 234.255 230.878 233.008C232.781 231.761 233.95 229.082 232.774 227.134L0 227.325Z" fill="#D9D9D9"/>
<path opacity="0.1" d="M0 227.325C4.39675 230.118 10.7321 227.293 15.1581 230.043C16.3011 230.751 17.2233 231.794 18.4053 232.437C19.8243 233.213 21.4934 233.352 23.1073 233.411C36.6222 233.933 50.3645 230.163 63.5417 233.209C67.2273 234.06 70.8318 235.443 74.6083 235.645C81.132 235.999 87.3829 232.816 93.9131 232.641C103.817 232.375 113.549 239.002 123.106 236.388C126.249 235.528 129.133 233.693 132.376 233.385C135.991 233.06 139.465 234.635 142.979 235.554C155.438 238.801 168.414 233.541 181.296 233.148C189.697 232.891 198.016 234.723 206.41 235.145C212.378 235.443 218.36 235.025 224.322 234.609C226.595 234.45 228.975 234.255 230.878 233.008C232.781 231.761 233.95 229.082 232.774 227.134L0 227.325Z" fill="#D9D9D9"/>
<path d="M0 225.702C4.39675 228.494 10.7321 225.669 15.1581 228.42C16.3011 229.128 17.2233 230.17 18.4053 230.813C19.8243 231.589 21.4934 231.729 23.1073 231.787C36.6222 232.31 50.3645 228.54 63.5417 231.586C67.2273 232.437 70.8318 233.82 74.6083 234.021C81.132 234.375 87.3829 231.193 93.9131 231.018C103.817 230.751 113.549 237.379 123.106 234.765C126.249 233.904 129.133 232.07 132.376 231.761C135.991 231.436 139.465 233.011 142.979 233.93C155.438 237.178 168.414 231.917 181.296 231.524C189.697 231.268 198.016 233.099 206.41 233.521C212.378 233.82 218.36 233.401 224.322 232.985C226.595 232.826 228.975 232.631 230.878 231.384C232.781 230.138 233.95 227.459 232.774 225.51L0 225.702Z" fill="#D9D9D9"/>
<path d="M106.724 71.9325C113.135 71.9325 118.333 66.7351 118.333 60.3237C118.333 53.9123 113.135 48.7148 106.724 48.7148C100.313 48.7148 95.1152 53.9123 95.1152 60.3237C95.1152 66.7351 100.313 71.9325 106.724 71.9325Z" fill="#404040"/>
<path d="M99.9876 150.629C101.186 159.036 99.7246 167.609 97.4482 175.788C97.0229 177.311 96.565 178.847 95.7694 180.214C94.9738 181.582 93.8665 182.757 92.9313 184.043C90.983 186.725 89.84 189.888 88.7716 193.018C85.8263 201.68 83.3526 210.495 81.3615 219.425C81.2415 219.791 81.2415 220.185 81.3615 220.552C81.644 221.201 82.5012 221.285 83.2059 221.282L92.3176 221.233C92.6423 220.61 92.0416 219.935 91.6682 219.337C90.3693 217.317 91.6162 214.693 92.7625 212.58C95.5484 207.445 97.705 201.994 99.1855 196.343C99.809 193.963 100.316 191.531 101.329 189.287C102.553 186.566 104.472 184.225 106.031 181.679C107.843 178.721 109.164 175.509 110.476 172.285C112.308 167.81 114.155 163.28 114.876 158.5C115.555 154.013 115.22 149.44 114.779 144.924C114.799 144.789 114.788 144.652 114.745 144.523C114.702 144.394 114.628 144.277 114.531 144.182C114.434 144.087 114.316 144.016 114.186 143.976C114.056 143.935 113.919 143.926 113.785 143.949L101.559 143.319C99.0394 143.19 98.4419 142.638 98.8251 145.112C99.0913 146.96 99.7213 148.759 99.9876 150.629Z" fill="#404040"/>
<path opacity="0.1" d="M99.9876 150.629C101.186 159.036 99.7246 167.609 97.4482 175.788C97.0229 177.311 96.565 178.847 95.7694 180.214C94.9738 181.582 93.8665 182.757 92.9313 184.043C90.983 186.725 89.84 189.888 88.7716 193.018C85.8263 201.68 83.3526 210.495 81.3615 219.425C81.2415 219.791 81.2415 220.185 81.3615 220.552C81.644 221.201 82.5012 221.285 83.2059 221.282L92.3176 221.233C92.6423 220.61 92.0416 219.935 91.6682 219.337C90.3693 217.317 91.6162 214.693 92.7625 212.58C95.5484 207.445 97.705 201.994 99.1855 196.343C99.809 193.963 100.316 191.531 101.329 189.287C102.553 186.566 104.472 184.225 106.031 181.679C107.843 178.721 109.164 175.509 110.476 172.285C112.308 167.81 114.155 163.28 114.876 158.5C115.555 154.013 115.22 149.44 114.779 144.924C114.799 144.789 114.788 144.652 114.745 144.523C114.702 144.394 114.628 144.277 114.531 144.182C114.434 144.087 114.316 144.016 114.186 143.976C114.056 143.935 113.919 143.926 113.785 143.949L101.559 143.319C99.0394 143.19 98.4419 142.638 98.8251 145.112C99.0913 146.96 99.7213 148.759 99.9876 150.629Z" fill="#404040"/>
<path d="M102.392 130.191C99.9078 133.763 97.3035 137.874 98.1283 142.151C98.755 145.398 101.229 147.915 103.564 150.269C112.897 159.64 122.073 170.051 125.249 182.894C126.067 186.212 126.464 189.619 127.168 192.96C128.448 199.033 130.74 204.839 133.013 210.609L139.105 225.985C140.994 226.031 142.852 225.495 144.426 224.449C146.001 223.404 147.215 221.899 147.905 220.14C147.106 220.078 146.064 219.305 145.596 218.656C142.998 215.061 142.466 210.437 141.8 206.053C141.063 201.208 140.079 196.402 139.092 191.6L134.728 170.35C134.224 167.898 133.721 165.443 133.065 163.027C130.526 153.669 125.713 144.843 124.97 135.166C124.859 133.744 124.791 132.182 123.827 131.127C122.814 130.013 121.151 129.828 119.648 129.74C113.566 129.35 108.318 128.756 102.392 130.191Z" fill="#404040"/>
<path d="M85.9826 219.208C85.3203 219.05 84.6434 218.963 83.9629 218.948C83.3107 218.971 82.6728 219.146 82.1001 219.459C81.5274 219.771 81.0355 220.214 80.6637 220.75C80.2843 221.358 79.9863 222.013 79.7772 222.698L78.8972 225.225C78.6374 225.965 78.3841 226.819 78.7705 227.498C79.058 227.919 79.4719 228.239 79.9525 228.41C82.0827 229.358 84.4986 229.41 86.8042 229.638C89.0578 229.858 91.2918 230.255 93.5162 230.67C94.2825 230.816 95.0456 230.962 95.8217 231.04C97.5557 231.216 99.3028 231.04 101.037 230.885L102.826 230.712C103.425 230.687 104.017 230.577 104.586 230.388C104.87 230.291 105.132 230.138 105.355 229.938C105.578 229.738 105.758 229.494 105.885 229.222C106.327 228.128 105.378 226.832 104.219 226.605C103.748 226.514 103.245 226.556 102.784 226.494C102.243 226.402 101.715 226.243 101.212 226.023C98.9391 225.124 96.6108 224.215 94.5975 222.799C94.039 222.406 93.4545 221.857 93.5162 221.175C93.5742 220.883 93.6715 220.6 93.8052 220.334C94.0782 219.638 94.0874 218.865 93.8312 218.162C93.7208 217.863 93.5065 217.548 93.2045 217.512C92.3472 217.409 92.4511 218.659 92.3245 219.136C92.1524 219.786 91.8406 219.844 91.2301 219.786C89.4766 219.626 87.7231 219.539 85.9826 219.208Z" fill="#F2F2F2"/>
<path d="M137.247 227.932C137.263 229.201 137.699 230.429 138.488 231.423C138.729 231.72 139.03 231.962 139.371 232.134C139.885 232.346 140.441 232.434 140.995 232.391C142.541 232.357 144.068 232.048 145.505 231.478C146.011 231.249 146.532 231.053 147.064 230.891C147.733 230.754 148.41 230.656 149.09 230.598C151.776 230.212 154.133 228.627 156.728 227.825C157.503 227.633 158.263 227.384 159.001 227.078C160.027 226.595 160.858 225.78 161.673 224.99C162.154 224.564 162.567 224.069 162.901 223.519C163.378 222.633 163.407 221.571 163.427 220.568C163.444 220.411 163.417 220.252 163.349 220.11C163.275 220.007 163.173 219.928 163.056 219.879C162.267 219.49 161.332 219.684 160.459 219.837C157.302 220.399 154.071 220.295 150.866 220.191C150.562 220.233 150.253 220.173 149.986 220.021C149.72 219.869 149.511 219.633 149.392 219.35L148.174 217.402C147.827 216.843 147.275 216.203 146.645 216.395C146.142 216.548 145.937 217.165 145.957 217.694C145.976 218.223 146.138 218.749 146.038 219.266C145.966 219.55 145.837 219.816 145.658 220.049C145.479 220.281 145.255 220.474 144.999 220.616C144.487 220.895 143.941 221.104 143.375 221.24C141.583 221.746 139.498 222.321 138.111 223.64C137.092 224.575 137.186 226.669 137.247 227.932Z" fill="#F2F2F2"/>
<path d="M136.618 99.102C137.317 98.5677 137.917 97.9148 138.391 97.1731C138.799 96.3363 139.055 95.4336 139.148 94.5072L139.658 91.2859C139.94 89.5097 140.271 87.6295 141.457 86.2755C142.642 84.9214 145.002 84.4375 146.207 85.7754C146.733 86.3566 146.941 87.1554 147.071 87.9315C147.441 90.2458 147.289 92.6136 146.625 94.8613C145.961 97.1089 144.802 99.1793 143.233 100.92C141.775 102.518 139.986 103.788 138.443 105.298C137.099 106.597 135.933 108.087 134.693 109.5C131.693 112.912 128.257 115.914 124.474 118.429C124.519 116.014 124.827 113.422 124.474 111.023C124.211 109.289 123.499 108.353 125.178 107.22C129.075 104.57 133.007 102.174 136.618 99.102Z" fill="#FBBEBE"/>
<path d="M103.873 75.339C103.746 77.0665 103.028 78.833 101.6 79.8299C105.646 81.2457 109.636 82.8065 113.572 84.5124C112.812 83.7818 112.582 82.6615 112.546 81.6094C112.445 78.859 113.397 76.154 114.787 73.7836C115.008 73.4829 115.135 73.1237 115.154 72.7509C115.108 71.9846 114.199 71.6306 113.452 71.452C110.904 70.8339 108.303 70.4567 105.685 70.3253C104.564 70.2895 103.236 69.9356 103.489 71.3611C103.73 72.6925 103.973 73.9914 103.873 75.339Z" fill="#FBBEBE"/>
<path d="M111.699 76.2641C116.941 76.2641 121.19 72.0145 121.19 66.7724C121.19 61.5303 116.941 57.2808 111.699 57.2808C106.457 57.2808 102.207 61.5303 102.207 66.7724C102.207 72.0145 106.457 76.2641 111.699 76.2641Z" fill="#FBBEBE"/>
<path d="M121.094 92.4097C120.763 91.697 120.359 91.0202 119.89 90.39C118.169 87.9188 116.402 85.4509 114.194 83.4052C112.521 81.9135 110.711 80.5838 108.787 79.4338C107.749 78.7223 106.608 78.1747 105.404 77.8102C104.689 77.6518 103.962 77.553 103.231 77.5147L100.767 77.3134C100.551 77.2847 100.331 77.2913 100.117 77.3329C99.4484 77.5017 99.1432 78.333 99.286 79.0052C99.4289 79.6774 99.9355 80.2229 100.384 80.7327C100.494 85.7627 98.2567 90.7244 97.9547 95.7479C97.4254 104.532 102.787 112.702 103.215 121.492C103.259 121.889 103.217 122.291 103.092 122.671C103.02 122.853 102.913 123.018 102.832 123.197C102.579 123.749 102.588 124.375 102.543 124.983C102.366 127.148 101.418 129.179 99.8705 130.704C100.273 131.203 100.79 131.598 101.377 131.854C102.413 132.305 103.65 132.344 104.751 132.659C107.622 133.497 110.564 134.341 113.548 134.163C113.919 133.356 114.148 132.491 114.227 131.607C114.649 131.344 115.136 131.906 115.201 132.399C115.266 132.893 115.171 133.468 115.525 133.825C115.879 134.182 116.327 134.127 116.759 134.072C118.581 133.841 120.331 133.227 122.117 132.815C123.903 132.403 125.813 132.205 127.55 132.796C127.901 132.351 127.751 131.691 127.465 131.204C127.18 130.717 126.774 130.289 126.611 129.746C126.53 129.434 126.495 129.111 126.508 128.788C126.508 126.012 127.079 123.206 126.537 120.482C126.378 119.683 126.124 118.904 125.962 118.102C125.637 116.546 125.686 114.942 125.728 113.354C125.77 111.766 125.579 110.049 125.546 108.438C125.545 107.772 125.502 107.108 125.416 106.448C125.306 105.756 125.092 105.08 125.033 104.382C124.858 102.609 125.572 100.849 125.465 99.0698C125.287 96.3681 122.147 94.9004 121.094 92.4097Z" fill="#404040"/>
<path d="M99.673 91.1369C97.374 97.2352 96.2504 103.704 95.1269 110.127L92.5291 125.213C91.792 129.477 91.0516 133.767 91.0808 138.092C91.0808 139.306 91.1588 140.543 90.8405 141.716C90.4249 143.255 89.3923 144.538 88.6097 145.937C87.0218 148.795 86.4929 152.122 87.116 155.331C87.3822 156.679 88.1096 158.208 89.4767 158.364C90.6002 158.488 91.5712 157.595 92.2271 156.672C93.7338 154.559 94.4807 152.006 95.1496 149.493C97.3031 141.279 98.809 132.909 99.6535 124.46C99.7338 123.39 99.8846 122.327 100.105 121.278C100.392 120.195 100.759 119.136 101.202 118.108C102.196 115.645 103.191 113.181 104.187 110.718C106.482 105.025 108.791 99.3069 111.944 94.0399C108.827 93.1437 105.583 92.0916 102.466 91.2051C101.566 90.9388 100.602 91.098 99.673 91.1369Z" fill="#FBBEBE"/>
<path d="M105.077 95.7703C102.895 95.2995 100.638 95.4456 98.4106 95.3904C98.0942 95.4134 97.7792 95.3312 97.5144 95.1566C97.063 94.7702 97.2546 94.046 97.4819 93.4972L98.56 90.8995C98.7369 90.3625 99.0321 89.872 99.4237 89.4642C99.9725 88.9771 100.745 88.857 101.473 88.7693C103.84 88.4965 106.275 88.4056 108.571 89.0453C110.867 89.685 113.026 91.1398 114.052 93.2927C114.481 94.1889 114.679 95.3189 114.111 96.134C113.267 97.3452 111.374 98.6993 109.961 98.0369C108.269 97.2348 106.974 96.173 105.077 95.7703Z" fill="#404040"/>
<path d="M116.679 52.0303C114.803 52.0102 112.963 52.5408 111.386 53.5565C109.893 52.1417 108.051 51.149 106.048 50.68C104.045 50.211 101.954 50.2825 99.988 50.8872C99.7794 49.69 99.2459 48.5731 98.4458 47.6584C97.6458 46.7437 96.6098 46.0664 95.451 45.7003C94.2922 45.3342 93.0551 45.2934 91.8748 45.5824C90.6944 45.8714 89.616 46.4791 88.7575 47.3391C87.8989 48.1992 87.293 49.2785 87.006 50.4594C86.719 51.6403 86.7619 52.8773 87.1299 54.0354C87.498 55.1936 88.1771 56.2284 89.0932 57.027C90.0092 57.8255 91.127 58.3571 92.3246 58.5637C91.8962 60.0268 91.7602 61.5599 91.9244 63.0755C92.0886 64.5912 92.5496 66.0597 93.2813 67.3971C94.013 68.7346 95.0009 69.9148 96.1887 70.8704C97.3765 71.8261 98.7409 72.5384 100.204 72.9668C101.667 73.3951 103.2 73.5311 104.716 73.3669C106.231 73.2028 107.7 72.7417 109.037 72.01C110.375 71.2784 111.555 70.2904 112.511 69.1026C113.466 67.9148 114.179 66.5505 114.607 65.0874C115.292 65.2276 115.989 65.2983 116.689 65.2984C121.267 65.2984 124.982 62.3272 124.982 58.6644C124.982 55.0015 121.251 52.0303 116.679 52.0303Z" fill="#404040"/>
<path opacity="0.1" d="M118.332 61.9798C117.632 61.9817 116.935 61.9109 116.25 61.7687C115.925 62.9564 115.412 64.0844 114.73 65.1101C115.373 65.2338 116.025 65.2969 116.679 65.2984C120.959 65.2984 124.472 62.7006 124.924 59.3755C123.401 60.9601 121.014 61.9798 118.332 61.9798Z" fill="black"/>
<path opacity="0.1" d="M105.064 70.273C103.248 70.2704 101.457 69.8422 99.8363 69.0227C98.2153 68.2033 96.8089 67.0154 95.7298 65.5543C94.6507 64.0932 93.929 62.3996 93.6226 60.6092C93.3161 58.8189 93.4335 56.9817 93.9652 55.2449C92.4287 54.9745 91.0366 54.1714 90.0336 52.9765C89.0305 51.7816 88.4807 50.2715 88.4806 48.7114C88.4799 48.3128 88.5158 47.915 88.5878 47.5229C87.7778 48.398 87.2187 49.4751 86.9692 50.641C86.7197 51.8069 86.7889 53.0185 87.1698 54.1483C87.5506 55.2782 88.2289 56.2845 89.1333 57.0615C90.0377 57.8385 91.1347 58.3573 92.3091 58.5635C91.4151 61.499 91.7197 64.669 93.1563 67.3805C94.5929 70.092 97.0446 72.1245 99.9755 73.0335C102.906 73.9425 106.078 73.6541 108.797 72.2314C111.516 70.8086 113.56 68.3673 114.484 65.4412C113.411 66.9371 111.997 68.1557 110.358 68.996C108.72 69.8363 106.905 70.2741 105.064 70.273Z" fill="black"/>
<path d="M147.412 89.8456C147.447 89.796 147.436 89.7275 147.387 89.6926C147.338 89.6577 147.27 89.6696 147.235 89.7193L146.318 91.0039C146.283 91.0535 146.294 91.1221 146.342 91.157C146.391 91.1919 146.46 91.1799 146.495 91.1303L147.412 89.8456Z" fill="#3A3768"/>
<path d="M142.279 84.3905C142.299 84.3627 142.293 84.3242 142.265 84.3044C142.237 84.2846 142.199 84.291 142.179 84.3188L141.907 84.6994C141.888 84.7271 141.894 84.7657 141.922 84.7855C141.95 84.8053 141.988 84.7988 142.008 84.7711L142.279 84.3905Z" fill="#3A3768"/>
<path d="M141.65 85.2871C141.671 85.2564 141.664 85.2138 141.634 85.192C141.603 85.1701 141.56 85.1772 141.539 85.2079L141.02 85.9348C140.998 85.9654 141.005 86.008 141.036 86.0299C141.066 86.0518 141.109 86.0446 141.131 86.014L141.65 85.2871Z" fill="#3A3768"/>
<path d="M140.843 86.4144C140.864 86.3852 140.857 86.3447 140.828 86.3239C140.799 86.303 140.759 86.3098 140.738 86.339L140.21 87.0791C140.189 87.1083 140.196 87.1489 140.225 87.1697C140.254 87.1905 140.294 87.1838 140.315 87.1546L140.843 86.4144Z" fill="#3A3768"/>
<path d="M148.985 87.088L144.375 83.7985C144.007 83.536 143.496 83.6215 143.234 83.9893L135.567 94.7343C135.304 95.1022 135.389 95.6132 135.757 95.8757L140.367 99.1651C140.735 99.4277 141.246 99.3422 141.509 98.9744L149.176 88.2294C149.438 87.8615 149.353 87.3505 148.985 87.088Z" fill="#3A3768"/>
<path opacity="0.1" d="M148.985 87.088L144.375 83.7985C144.007 83.536 143.496 83.6215 143.234 83.9893L135.567 94.7343C135.304 95.1022 135.389 95.6132 135.757 95.8757L140.367 99.1651C140.735 99.4277 141.246 99.3422 141.509 98.9744L149.176 88.2294C149.438 87.8615 149.353 87.3505 148.985 87.088Z" fill="black"/>
<path d="M148.684 86.483L144.074 83.1936C143.706 82.9311 143.195 83.0165 142.933 83.3844L135.266 94.1293C135.003 94.4972 135.089 95.0082 135.457 95.2707L140.066 98.5602C140.434 98.8227 140.945 98.7373 141.208 98.3694L148.875 87.6244C149.138 87.2565 149.052 86.7455 148.684 86.483Z" fill="#3A3768"/>
<path d="M148.268 86.6782L147.589 86.1911L147.531 86.2723C147.458 86.3718 147.35 86.4393 147.229 86.4605C147.108 86.4817 146.983 86.4549 146.881 86.3859L144.712 84.837C144.609 84.7633 144.54 84.6518 144.519 84.527C144.498 84.4022 144.528 84.2742 144.602 84.1713L144.66 84.0901L144.011 83.6355C143.949 83.591 143.879 83.5591 143.805 83.5417C143.731 83.5243 143.654 83.5217 143.579 83.534C143.504 83.5464 143.432 83.5735 143.367 83.6138C143.302 83.654 143.246 83.7067 143.202 83.7687L135.707 94.2734C135.618 94.3985 135.582 94.5537 135.607 94.7052C135.632 94.8567 135.716 94.9921 135.841 95.082L140.107 98.1246C140.169 98.169 140.24 98.2007 140.314 98.2179C140.388 98.235 140.465 98.2373 140.54 98.2247C140.615 98.212 140.687 98.1846 140.752 98.144C140.816 98.1034 140.872 98.0505 140.916 97.9883L148.411 87.4867C148.455 87.4244 148.486 87.3539 148.503 87.2794C148.519 87.2049 148.521 87.1278 148.508 87.0527C148.494 86.9775 148.466 86.9057 148.425 86.8414C148.384 86.7771 148.331 86.7217 148.268 86.6782Z" fill="#336B68"/>
<path d="M146.292 85.3244L145.631 84.8528C145.585 84.8195 145.52 84.8304 145.487 84.8771C145.453 84.9238 145.464 84.9887 145.511 85.022L146.172 85.4935C146.218 85.5269 146.283 85.516 146.317 85.4693C146.35 85.4226 146.339 85.3577 146.292 85.3244Z" fill="#E6E8EC"/>
<path d="M146.521 85.7519C146.585 85.7519 146.637 85.6997 146.637 85.6355C146.637 85.5712 146.585 85.519 146.521 85.519C146.456 85.519 146.404 85.5712 146.404 85.6355C146.404 85.6997 146.456 85.7519 146.521 85.7519Z" fill="#E6E8EC"/>
<path d="M146.553 4.52344C140.783 4.52344 135.249 6.81563 131.169 10.8957C127.089 14.9759 124.797 20.5097 124.797 26.2799C124.797 38.2946 147.592 78.0861 147.592 78.0861C147.592 78.0861 168.31 38.3108 168.31 26.2799C168.31 20.5097 166.018 14.9759 161.937 10.8957C157.857 6.81563 152.323 4.52344 146.553 4.52344ZM146.553 40.7885C144.299 40.7885 142.095 40.12 140.221 38.8676C138.347 37.6152 136.886 35.8351 136.023 33.7524C135.16 31.6698 134.935 29.3781 135.375 27.1671C135.814 24.9562 136.9 22.9253 138.494 21.3313C140.088 19.7373 142.119 18.6517 144.33 18.2119C146.541 17.7722 148.832 17.9979 150.915 18.8605C152.998 19.7232 154.778 21.1841 156.03 23.0584C157.283 24.9328 157.951 27.1364 157.951 29.3907C157.953 30.8884 157.659 32.3718 157.087 33.7559C156.515 35.1401 155.676 36.3979 154.617 37.4574C153.559 38.5169 152.301 39.3573 150.918 39.9305C149.534 40.5038 148.051 40.7986 146.553 40.7982V40.7885Z" fill="#68A78D" fill-opacity="0.2"/>
<path opacity="0.1" d="M146.553 4.52344C140.783 4.52344 135.249 6.81563 131.169 10.8957C127.089 14.9759 124.797 20.5097 124.797 26.2799C124.797 38.2946 147.592 78.0861 147.592 78.0861C147.592 78.0861 168.31 38.3108 168.31 26.2799C168.31 20.5097 166.018 14.9759 161.937 10.8957C157.857 6.81563 152.323 4.52344 146.553 4.52344ZM146.553 40.7885C144.299 40.7885 142.095 40.12 140.221 38.8676C138.347 37.6152 136.886 35.8351 136.023 33.7524C135.16 31.6698 134.935 29.3781 135.375 27.1671C135.814 24.9562 136.9 22.9253 138.494 21.3313C140.088 19.7373 142.119 18.6517 144.33 18.2119C146.541 17.7722 148.832 17.9979 150.915 18.8605C152.998 19.7232 154.778 21.1841 156.03 23.0584C157.283 24.9328 157.951 27.1364 157.951 29.3907C157.953 30.8884 157.659 32.3718 157.087 33.7559C156.515 35.1401 155.676 36.3979 154.617 37.4574C153.559 38.5169 152.301 39.3573 150.918 39.9305C149.534 40.5038 148.051 40.7986 146.553 40.7982V40.7885Z" fill="#336B68"/>
<path d="M146.553 0C140.783 0 135.249 2.29219 131.169 6.37231C127.089 10.4524 124.797 15.9863 124.797 21.7564C124.797 33.7712 147.592 78.0958 147.592 78.0958C147.592 78.0958 168.31 33.7777 168.31 21.7597C168.31 18.9023 167.748 16.0728 166.655 13.4328C165.561 10.7929 163.959 8.39407 161.939 6.37346C159.918 4.35284 157.52 2.74999 154.88 1.65642C152.24 0.562854 149.411 -3.18263e-08 146.553 0ZM146.553 36.265C144.299 36.265 142.095 35.5966 140.221 34.3442C138.347 33.0918 136.886 31.3117 136.023 29.229C135.16 27.1463 134.935 24.8546 135.375 22.6437C135.814 20.4327 136.9 18.4018 138.494 16.8078C140.088 15.2138 142.119 14.1283 144.33 13.6885C146.541 13.2487 148.832 13.4744 150.915 14.3371C152.998 15.1998 154.778 16.6607 156.03 18.535C157.283 20.4094 157.951 22.613 157.951 24.8673C157.951 26.364 157.656 27.8462 157.083 29.229C156.511 30.6118 155.671 31.8683 154.613 32.9267C153.554 33.9851 152.298 34.8246 150.915 35.3974C149.532 35.9702 148.05 36.265 146.553 36.265Z" fill="#336B68"/>
</svg>
