<svg width="234" height="237" viewBox="0 0 234 237" fill="none" xmlns="http://www.w3.org/2000/svg">
<path d="M0 227.326C4.39675 230.118 10.7321 227.293 15.1581 230.043C16.3011 230.751 17.2233 231.794 18.4053 232.437C19.8243 233.213 21.4934 233.352 23.1073 233.411C36.6222 233.934 50.3645 230.164 63.5417 233.209C67.2273 234.06 70.8318 235.444 74.6083 235.645C81.132 235.999 87.3829 232.817 93.9131 232.641C103.817 232.375 113.549 239.003 123.106 236.389C126.249 235.528 129.133 233.693 132.376 233.385C135.991 233.06 139.465 234.635 142.979 235.554C155.438 238.801 168.414 233.541 181.296 233.148C189.697 232.891 198.016 234.723 206.41 235.145C212.378 235.444 218.36 235.025 224.322 234.609C226.595 234.45 228.975 234.255 230.878 233.008C232.781 231.761 233.95 229.082 232.774 227.134L0 227.326Z" fill="#D9D9D9"/>
<path opacity="0.1" d="M0 227.326C4.39675 230.118 10.7321 227.293 15.1581 230.043C16.3011 230.751 17.2233 231.794 18.4053 232.437C19.8243 233.213 21.4934 233.352 23.1073 233.411C36.6222 233.934 50.3645 230.164 63.5417 233.209C67.2273 234.06 70.8318 235.444 74.6083 235.645C81.132 235.999 87.3829 232.817 93.9131 232.641C103.817 232.375 113.549 239.003 123.106 236.389C126.249 235.528 129.133 233.693 132.376 233.385C135.991 233.06 139.465 234.635 142.979 235.554C155.438 238.801 168.414 233.541 181.296 233.148C189.697 232.891 198.016 234.723 206.41 235.145C212.378 235.444 218.36 235.025 224.322 234.609C226.595 234.45 228.975 234.255 230.878 233.008C232.781 231.761 233.95 229.082 232.774 227.134L0 227.326Z" fill="#D9D9D9"/>
<path d="M0 225.702C4.39675 228.494 10.7321 225.669 15.1581 228.42C16.3011 229.128 17.2233 230.17 18.4053 230.813C19.8243 231.589 21.4934 231.729 23.1073 231.787C36.6222 232.31 50.3645 228.54 63.5417 231.586C67.2273 232.437 70.8318 233.82 74.6083 234.021C81.132 234.375 87.3829 231.193 93.9131 231.018C103.817 230.751 113.549 237.379 123.106 234.765C126.249 233.904 129.133 232.07 132.376 231.761C135.991 231.436 139.465 233.011 142.979 233.93C155.438 237.178 168.414 231.917 181.296 231.524C189.697 231.268 198.016 233.099 206.41 233.521C212.378 233.82 218.36 233.401 224.322 232.985C226.595 232.826 228.975 232.631 230.878 231.384C232.781 230.138 233.95 227.459 232.774 225.51L0 225.702Z" fill="#737373"/>
<path d="M106.724 71.9325C113.135 71.9325 118.332 66.7351 118.332 60.3237C118.332 53.9123 113.135 48.7148 106.724 48.7148C100.312 48.7148 95.1147 53.9123 95.1147 60.3237C95.1147 66.7351 100.312 71.9325 106.724 71.9325Z" fill="#5A442B"/>
<path d="M99.9884 150.629C101.187 159.036 99.7254 167.609 97.4491 175.789C97.0237 177.312 96.5658 178.847 95.7703 180.215C94.9747 181.582 93.8674 182.757 92.9322 184.043C90.9839 186.725 89.8408 189.888 88.7725 193.018C85.8271 201.68 83.3534 210.495 81.3623 219.425C81.2423 219.791 81.2423 220.186 81.3623 220.552C81.6448 221.201 82.5021 221.286 83.2067 221.282L92.3185 221.234C92.6432 220.61 92.0425 219.935 91.669 219.337C90.3701 217.317 91.6171 214.694 92.7633 212.58C95.5492 207.446 97.7058 201.994 99.1864 196.344C99.8098 193.963 100.316 191.531 101.33 189.287C102.554 186.566 104.473 184.225 106.032 181.679C107.843 178.721 109.165 175.509 110.477 172.285C112.308 167.81 114.156 163.28 114.877 158.5C115.556 154.013 115.221 149.441 114.78 144.924C114.8 144.789 114.788 144.652 114.745 144.523C114.702 144.394 114.629 144.277 114.532 144.182C114.435 144.087 114.317 144.016 114.187 143.976C114.057 143.935 113.92 143.926 113.786 143.95L101.56 143.32C99.0402 143.19 98.4427 142.638 98.8259 145.112C99.0922 146.96 99.7221 148.759 99.9884 150.629Z" fill="#404040"/>
<path opacity="0.1" d="M99.9884 150.629C101.187 159.036 99.7254 167.609 97.4491 175.789C97.0237 177.312 96.5658 178.847 95.7703 180.215C94.9747 181.582 93.8674 182.757 92.9322 184.043C90.9839 186.725 89.8408 189.888 88.7725 193.018C85.8271 201.68 83.3534 210.495 81.3623 219.425C81.2423 219.791 81.2423 220.186 81.3623 220.552C81.6448 221.201 82.5021 221.286 83.2067 221.282L92.3185 221.234C92.6432 220.61 92.0425 219.935 91.669 219.337C90.3701 217.317 91.6171 214.694 92.7633 212.58C95.5492 207.446 97.7058 201.994 99.1864 196.344C99.8098 193.963 100.316 191.531 101.33 189.287C102.554 186.566 104.473 184.225 106.032 181.679C107.843 178.721 109.165 175.509 110.477 172.285C112.308 167.81 114.156 163.28 114.877 158.5C115.556 154.013 115.221 149.441 114.78 144.924C114.8 144.789 114.788 144.652 114.745 144.523C114.702 144.394 114.629 144.277 114.532 144.182C114.435 144.087 114.317 144.016 114.187 143.976C114.057 143.935 113.92 143.926 113.786 143.95L101.56 143.32C99.0402 143.19 98.4427 142.638 98.8259 145.112C99.0922 146.96 99.7221 148.759 99.9884 150.629Z" fill="#737373"/>
<path d="M102.392 130.191C99.9075 133.763 97.3032 137.874 98.128 142.151C98.7548 145.398 101.229 147.915 103.564 150.269C112.896 159.64 122.073 170.051 125.249 182.894C126.067 186.212 126.463 189.619 127.168 192.96C128.447 199.032 130.74 204.838 133.013 210.609L139.105 225.984C140.994 226.031 142.852 225.495 144.426 224.449C146.001 223.404 147.215 221.899 147.905 220.139C147.106 220.078 146.064 219.305 145.596 218.655C142.998 215.061 142.466 210.437 141.8 206.053C141.063 201.208 140.079 196.402 139.092 191.6L134.728 170.35C134.224 167.898 133.721 165.443 133.065 163.027C130.526 153.669 125.713 144.843 124.97 135.166C124.859 133.744 124.791 132.182 123.827 131.126C122.813 130.013 121.151 129.828 119.647 129.74C113.565 129.35 108.318 128.756 102.392 130.191Z" fill="#737373"/>
<path d="M85.983 219.207C85.3207 219.05 84.6437 218.963 83.9632 218.947C83.311 218.971 82.6732 219.146 82.1005 219.458C81.5277 219.771 81.0359 220.213 80.664 220.75C80.2847 221.358 79.9866 222.013 79.7775 222.698L78.8976 225.224C78.6378 225.965 78.3845 226.819 78.7709 227.497C79.0583 227.919 79.4722 228.239 79.9529 228.41C82.0831 229.358 84.499 229.41 86.8045 229.637C89.0581 229.858 91.2922 230.254 93.5166 230.67C94.2829 230.816 95.046 230.962 95.8221 231.04C97.5561 231.216 99.3031 231.04 101.037 230.884L102.826 230.712C103.425 230.686 104.018 230.577 104.586 230.387C104.87 230.291 105.132 230.138 105.355 229.938C105.579 229.737 105.759 229.494 105.885 229.222C106.327 228.127 105.379 226.832 104.219 226.604C103.749 226.514 103.245 226.556 102.784 226.494C102.243 226.401 101.715 226.243 101.212 226.023C98.9394 225.124 96.6112 224.214 94.5979 222.799C94.0394 222.406 93.4549 221.857 93.5166 221.175C93.5746 220.883 93.6718 220.6 93.8056 220.334C94.0785 219.637 94.0878 218.865 93.8315 218.162C93.7211 217.863 93.5068 217.548 93.2048 217.512C92.3476 217.408 92.4515 218.658 92.3248 219.136C92.1527 219.785 91.841 219.844 91.2305 219.785C89.477 219.626 87.7235 219.538 85.983 219.207Z" fill="#F2F2F2"/>
<path d="M137.247 227.933C137.263 229.201 137.699 230.429 138.488 231.423C138.729 231.72 139.03 231.962 139.371 232.135C139.885 232.346 140.441 232.434 140.995 232.391C142.54 232.357 144.068 232.048 145.505 231.479C146.011 231.249 146.532 231.053 147.064 230.891C147.733 230.754 148.409 230.656 149.09 230.599C151.775 230.212 154.133 228.628 156.727 227.826C157.503 227.633 158.262 227.384 159 227.079C160.027 226.595 160.858 225.78 161.673 224.991C162.153 224.565 162.567 224.069 162.9 223.52C163.378 222.633 163.407 221.571 163.426 220.568C163.444 220.411 163.417 220.252 163.348 220.11C163.274 220.008 163.173 219.928 163.056 219.88C162.267 219.49 161.332 219.685 160.458 219.837C157.302 220.399 154.071 220.295 150.866 220.191C150.562 220.233 150.253 220.173 149.986 220.021C149.719 219.869 149.511 219.633 149.392 219.35L148.174 217.402C147.827 216.843 147.275 216.204 146.645 216.395C146.141 216.548 145.937 217.165 145.956 217.694C145.976 218.223 146.138 218.75 146.037 219.266C145.966 219.55 145.836 219.816 145.658 220.049C145.479 220.281 145.255 220.474 144.998 220.617C144.487 220.895 143.941 221.104 143.375 221.24C141.582 221.747 139.498 222.321 138.111 223.64C137.091 224.575 137.186 226.669 137.247 227.933Z" fill="#F2F2F2"/>
<path d="M136.617 99.1021C137.317 98.5678 137.917 97.915 138.39 97.1733C138.798 96.3364 139.055 95.4337 139.147 94.5073L139.657 91.286C139.939 89.5098 140.271 87.6297 141.456 86.2756C142.641 84.9215 145.002 84.4376 146.206 85.7755C146.733 86.3568 146.94 87.1556 147.07 87.9317C147.441 90.2459 147.288 92.6137 146.624 94.8614C145.96 97.109 144.801 99.1794 143.232 100.921C141.774 102.518 139.985 103.788 138.442 105.298C137.098 106.597 135.932 108.087 134.692 109.5C131.692 112.912 128.256 115.914 124.473 118.43C124.518 116.014 124.827 113.422 124.473 111.023C124.21 109.289 123.499 108.353 125.177 107.22C129.074 104.57 133.007 102.174 136.617 99.1021Z" fill="#FBBEBE"/>
<path d="M103.872 75.3387C103.745 77.0663 103.028 78.8328 101.599 79.8296C105.645 81.2454 109.636 82.8063 113.571 84.5121C112.812 83.7815 112.581 82.6612 112.545 81.6091C112.445 78.8587 113.396 76.1538 114.786 73.7833C115.007 73.4826 115.135 73.1235 115.153 72.7507C115.107 71.9843 114.198 71.6304 113.451 71.4518C110.903 70.8337 108.303 70.4564 105.684 70.325C104.564 70.2893 103.235 69.9353 103.489 71.3609C103.729 72.6922 103.973 73.9911 103.872 75.3387Z" fill="#FBBEBE"/>
<path d="M111.698 76.2643C116.94 76.2643 121.19 72.0147 121.19 66.7727C121.19 61.5306 116.94 57.281 111.698 57.281C106.456 57.281 102.206 61.5306 102.206 66.7727C102.206 72.0147 106.456 76.2643 111.698 76.2643Z" fill="#FBBEBE"/>
<path d="M121.095 92.4097C120.764 91.697 120.36 91.0202 119.891 90.39C118.17 87.9188 116.403 85.4509 114.195 83.4052C112.522 81.9135 110.712 80.5838 108.788 79.4338C107.75 78.7223 106.609 78.1747 105.405 77.8102C104.69 77.6518 103.963 77.553 103.232 77.5147L100.768 77.3134C100.552 77.2847 100.332 77.2913 100.118 77.3329C99.4494 77.5017 99.1441 78.333 99.287 79.0052C99.4299 79.6774 99.9365 80.2229 100.385 80.7327C100.495 85.7627 98.2577 90.7244 97.9557 95.7479C97.4264 104.532 102.788 112.702 103.216 121.492C103.26 121.889 103.218 122.291 103.093 122.671C103.021 122.853 102.914 123.018 102.833 123.197C102.58 123.749 102.589 124.375 102.544 124.983C102.367 127.148 101.419 129.179 99.8715 130.704C100.274 131.203 100.791 131.598 101.378 131.854C102.414 132.305 103.651 132.344 104.752 132.659C107.623 133.497 110.565 134.341 113.549 134.163C113.92 133.356 114.149 132.491 114.228 131.607C114.65 131.344 115.137 131.906 115.202 132.399C115.267 132.893 115.172 133.468 115.526 133.825C115.88 134.182 116.328 134.127 116.76 134.072C118.582 133.841 120.332 133.227 122.118 132.815C123.904 132.403 125.814 132.205 127.551 132.796C127.902 132.351 127.752 131.691 127.466 131.204C127.181 130.717 126.775 130.289 126.612 129.746C126.531 129.434 126.496 129.111 126.509 128.788C126.509 126.012 127.08 123.206 126.538 120.482C126.379 119.683 126.125 118.904 125.963 118.102C125.638 116.546 125.687 114.942 125.729 113.354C125.771 111.766 125.58 110.049 125.547 108.438C125.546 107.772 125.503 107.108 125.417 106.448C125.307 105.756 125.093 105.08 125.034 104.382C124.859 102.609 125.573 100.849 125.466 99.0698C125.288 96.3681 122.147 94.9004 121.095 92.4097Z" fill="#A9AA9D"/>
<path d="M99.6737 91.1368C97.3747 97.2351 96.2512 103.704 95.1276 110.127L92.5298 125.213C91.7927 129.477 91.0523 133.766 91.0816 138.092C91.0816 139.306 91.1595 140.543 90.8413 141.716C90.4256 143.255 89.393 144.537 88.6104 145.937C87.0225 148.795 86.4936 152.122 87.1167 155.331C87.383 156.679 88.1103 158.208 89.4774 158.364C90.601 158.488 91.5719 157.595 92.2278 156.672C93.7346 154.558 94.4814 152.006 95.1503 149.493C97.3038 141.279 98.8097 132.909 99.6542 124.46C99.7345 123.39 99.8853 122.327 100.106 121.278C100.392 120.195 100.759 119.136 101.203 118.108C102.197 115.645 103.192 113.181 104.187 110.718C106.483 105.025 108.792 99.3068 111.945 94.0398C108.828 93.1436 105.584 92.0915 102.466 91.205C101.567 90.9387 100.602 91.0978 99.6737 91.1368Z" fill="#FBBEBE"/>
<path d="M105.077 95.7706C102.894 95.2997 100.638 95.4458 98.41 95.3906C98.0936 95.4136 97.7785 95.3314 97.5137 95.1568C97.0624 94.7704 97.254 94.0463 97.4813 93.4975L98.5594 90.8997C98.7363 90.3627 99.0315 89.8722 99.4231 89.4644C99.9719 88.9773 100.745 88.8572 101.472 88.7695C103.839 88.4968 106.275 88.4058 108.571 89.0455C110.866 89.6853 113.026 91.14 114.052 93.2929C114.481 94.1892 114.679 95.3192 114.11 96.1342C113.266 97.3455 111.373 98.6996 109.96 98.0371C108.269 97.2351 106.973 96.1732 105.077 95.7706Z" fill="#AAAA9D"/>
<path d="M116.68 52.0304C114.804 52.0103 112.964 52.5409 111.387 53.5566C109.894 52.1418 108.051 51.1491 106.049 50.6801C104.046 50.2111 101.955 50.2827 99.9888 50.8874C99.7801 49.6902 99.2467 48.5733 98.4466 47.6586C97.6465 46.7439 96.6105 46.0665 95.4517 45.7004C94.2929 45.3343 93.0559 45.2935 91.8755 45.5825C90.6951 45.8716 89.6168 46.4792 88.7582 47.3393C87.8996 48.1993 87.2938 49.2786 87.0068 50.4595C86.7198 51.6404 86.7626 52.8774 87.1307 54.0356C87.4987 55.1937 88.1778 56.2285 89.0939 57.0271C90.01 57.8256 91.1278 58.3572 92.3253 58.5638C91.897 60.0269 91.761 61.56 91.9251 63.0757C92.0893 64.5913 92.5504 66.0598 93.282 67.3972C94.0137 68.7347 95.0016 69.9149 96.1894 70.8706C97.3772 71.8262 98.7416 72.5385 100.205 72.9669C101.668 73.3952 103.201 73.5312 104.717 73.3671C106.232 73.2029 107.701 72.7418 109.038 72.0102C110.376 71.2785 111.556 70.2906 112.511 69.1028C113.467 67.915 114.179 66.5506 114.608 65.0875C115.293 65.2277 115.99 65.2984 116.689 65.2986C121.268 65.2986 124.983 62.3273 124.983 58.6645C124.983 55.0016 121.252 52.0304 116.68 52.0304Z" fill="#725636"/>
<path opacity="0.1" d="M118.333 61.9798C117.633 61.9817 116.936 61.9109 116.251 61.7687C115.926 62.9564 115.413 64.0844 114.731 65.1101C115.374 65.2338 116.026 65.2969 116.68 65.2984C120.96 65.2984 124.473 62.7006 124.924 59.3755C123.402 60.9601 121.015 61.9798 118.333 61.9798Z" fill="black"/>
<path opacity="0.1" d="M105.064 70.2733C103.247 70.2706 101.457 69.8424 99.8358 69.023C98.2148 68.2035 96.8084 67.0156 95.7293 65.5545C94.6502 64.0934 93.9285 62.3998 93.6221 60.6095C93.3156 58.8191 93.433 56.9819 93.9647 55.2451C92.4282 54.9748 91.0362 54.1716 90.0331 52.9768C89.0301 51.7819 88.4802 50.2717 88.4801 48.7117C88.4794 48.3131 88.5153 47.9152 88.5873 47.5232C87.7774 48.3982 87.2182 49.4753 86.9687 50.6412C86.7192 51.8071 86.7884 53.0187 87.1693 54.1486C87.5501 55.2784 88.2284 56.2848 89.1328 57.0617C90.0372 57.8387 91.1343 58.3576 92.3086 58.5638C91.4146 61.4992 91.7192 64.6692 93.1558 67.3808C94.5924 70.0923 97.0441 72.1247 99.975 73.0337C102.906 73.9427 106.077 73.6543 108.796 72.2316C111.515 70.8089 113.56 68.3676 114.484 65.4414C113.411 66.9373 111.996 68.156 110.358 68.9962C108.72 69.8365 106.905 70.2743 105.064 70.2733Z" fill="black"/>
<path d="M147.412 89.8456C147.447 89.796 147.436 89.7275 147.387 89.6926C147.338 89.6577 147.27 89.6696 147.235 89.7193L146.318 91.0039C146.282 91.0535 146.293 91.1221 146.342 91.157C146.391 91.1919 146.46 91.1799 146.495 91.1303L147.412 89.8456Z" fill="#3A3768"/>
<path d="M142.28 84.3906C142.3 84.3628 142.293 84.3243 142.266 84.3045C142.238 84.2847 142.199 84.2912 142.179 84.3189L141.908 84.6995C141.888 84.7273 141.895 84.7658 141.922 84.7856C141.95 84.8054 141.989 84.7989 142.008 84.7712L142.28 84.3906Z" fill="#3A3768"/>
<path d="M141.649 85.2872C141.671 85.2565 141.663 85.214 141.633 85.1921C141.602 85.1702 141.56 85.1773 141.538 85.208L141.019 85.9349C140.997 85.9655 141.004 86.0081 141.035 86.03C141.066 86.0519 141.108 86.0448 141.13 86.0141L141.649 85.2872Z" fill="#3A3768"/>
<path d="M140.843 86.4147C140.864 86.3855 140.857 86.3449 140.828 86.3241C140.799 86.3033 140.758 86.31 140.737 86.3392L140.209 87.0794C140.188 87.1086 140.195 87.1491 140.224 87.1699C140.254 87.1908 140.294 87.184 140.315 87.1548L140.843 86.4147Z" fill="#3A3768"/>
<path d="M148.985 87.0881L144.375 83.7987C144.007 83.5362 143.496 83.6216 143.234 83.9895L135.567 94.7344C135.304 95.1023 135.39 95.6133 135.757 95.8759L140.367 99.1653C140.735 99.4278 141.246 99.3424 141.509 98.9745L149.176 88.2295C149.438 87.8616 149.353 87.3506 148.985 87.0881Z" fill="#3A3768"/>
<path opacity="0.1" d="M148.985 87.0881L144.375 83.7987C144.007 83.5362 143.496 83.6216 143.234 83.9895L135.567 94.7344C135.304 95.1023 135.39 95.6133 135.757 95.8759L140.367 99.1653C140.735 99.4278 141.246 99.3424 141.509 98.9745L149.176 88.2295C149.438 87.8616 149.353 87.3506 148.985 87.0881Z" fill="black"/>
<path d="M148.685 86.4827L144.075 83.1933C143.707 82.9308 143.196 83.0162 142.934 83.3841L135.266 94.1291C135.004 94.497 135.089 95.008 135.457 95.2705L140.067 98.5599C140.435 98.8224 140.946 98.737 141.209 98.3691L148.876 87.6242C149.138 87.2563 149.053 86.7452 148.685 86.4827Z" fill="#3A3768"/>
<path d="M148.269 86.6782L147.59 86.1911L147.531 86.2723C147.459 86.3718 147.351 86.4393 147.23 86.4605C147.108 86.4817 146.984 86.4549 146.882 86.3859L144.713 84.837C144.61 84.7633 144.541 84.6518 144.52 84.527C144.499 84.4022 144.529 84.2742 144.602 84.1713L144.661 84.0901L144.011 83.6355C143.95 83.591 143.88 83.5591 143.806 83.5417C143.731 83.5243 143.655 83.5217 143.579 83.534C143.504 83.5464 143.432 83.5735 143.368 83.6138C143.303 83.654 143.247 83.7067 143.203 83.7687L135.708 94.2734C135.619 94.3985 135.583 94.5537 135.608 94.7052C135.633 94.8567 135.717 94.9921 135.841 95.082L140.108 98.1246C140.17 98.169 140.24 98.2007 140.315 98.2179C140.389 98.235 140.466 98.2373 140.541 98.2247C140.616 98.212 140.688 98.1846 140.752 98.144C140.817 98.1034 140.873 98.0505 140.917 97.9883L148.411 87.4867C148.455 87.4244 148.487 87.3539 148.503 87.2794C148.52 87.2049 148.522 87.1278 148.508 87.0527C148.495 86.9775 148.467 86.9057 148.426 86.8414C148.385 86.7771 148.331 86.7217 148.269 86.6782Z" fill="#336B68"/>
<path d="M146.292 85.3243L145.631 84.8527C145.585 84.8194 145.52 84.8302 145.487 84.8769C145.453 84.9237 145.464 84.9885 145.511 85.0219L146.172 85.4934C146.218 85.5268 146.283 85.5159 146.317 85.4692C146.35 85.4225 146.339 85.3576 146.292 85.3243Z" fill="#E6E8EC"/>
<path d="M146.521 85.7517C146.585 85.7517 146.637 85.6996 146.637 85.6353C146.637 85.571 146.585 85.5189 146.521 85.5189C146.457 85.5189 146.404 85.571 146.404 85.6353C146.404 85.6996 146.457 85.7517 146.521 85.7517Z" fill="#E6E8EC"/>
<path d="M146.554 4.52344C140.784 4.52344 135.25 6.81563 131.17 10.8957C127.089 14.9759 124.797 20.5097 124.797 26.2799C124.797 38.2946 147.593 78.0861 147.593 78.0861C147.593 78.0861 168.31 38.3108 168.31 26.2799C168.31 20.5097 166.018 14.9759 161.938 10.8957C157.858 6.81563 152.324 4.52344 146.554 4.52344ZM146.554 40.7885C144.299 40.7885 142.096 40.12 140.221 38.8676C138.347 37.6152 136.886 35.8351 136.024 33.7524C135.161 31.6698 134.935 29.3781 135.375 27.1671C135.815 24.9562 136.9 22.9253 138.494 21.3313C140.088 19.7373 142.119 18.6517 144.33 18.2119C146.541 17.7722 148.833 17.9979 150.915 18.8605C152.998 19.7232 154.778 21.1841 156.031 23.0584C157.283 24.9328 157.951 27.1364 157.951 29.3907C157.953 30.8884 157.66 32.3718 157.087 33.7559C156.515 35.1401 155.676 36.3979 154.618 37.4574C153.559 38.5169 152.302 39.3573 150.918 39.9305C149.534 40.5038 148.051 40.7986 146.554 40.7982V40.7885Z" fill="#68A78D" fill-opacity="0.2"/>
<path opacity="0.1" d="M146.554 4.52344C140.784 4.52344 135.25 6.81563 131.17 10.8957C127.089 14.9759 124.797 20.5097 124.797 26.2799C124.797 38.2946 147.593 78.0861 147.593 78.0861C147.593 78.0861 168.31 38.3108 168.31 26.2799C168.31 20.5097 166.018 14.9759 161.938 10.8957C157.858 6.81563 152.324 4.52344 146.554 4.52344ZM146.554 40.7885C144.299 40.7885 142.096 40.12 140.221 38.8676C138.347 37.6152 136.886 35.8351 136.024 33.7524C135.161 31.6698 134.935 29.3781 135.375 27.1671C135.815 24.9562 136.9 22.9253 138.494 21.3313C140.088 19.7373 142.119 18.6517 144.33 18.2119C146.541 17.7722 148.833 17.9979 150.915 18.8605C152.998 19.7232 154.778 21.1841 156.031 23.0584C157.283 24.9328 157.951 27.1364 157.951 29.3907C157.953 30.8884 157.66 32.3718 157.087 33.7559C156.515 35.1401 155.676 36.3979 154.618 37.4574C153.559 38.5169 152.302 39.3573 150.918 39.9305C149.534 40.5038 148.051 40.7986 146.554 40.7982V40.7885Z" fill="#336B68"/>
<path d="M146.554 0C140.784 0 135.25 2.29219 131.17 6.37231C127.089 10.4524 124.797 15.9863 124.797 21.7564C124.797 33.7712 147.593 78.0958 147.593 78.0958C147.593 78.0958 168.31 33.7777 168.31 21.7597C168.311 18.9023 167.748 16.0728 166.655 13.4328C165.562 10.7929 163.959 8.39407 161.939 6.37346C159.919 4.35284 157.52 2.74999 154.88 1.65642C152.24 0.562854 149.411 -3.18263e-08 146.554 0ZM146.554 36.265C144.299 36.265 142.096 35.5966 140.221 34.3442C138.347 33.0918 136.886 31.3117 136.024 29.229C135.161 27.1463 134.935 24.8546 135.375 22.6437C135.815 20.4327 136.9 18.4018 138.494 16.8078C140.088 15.2138 142.119 14.1283 144.33 13.6885C146.541 13.2487 148.833 13.4744 150.915 14.3371C152.998 15.1998 154.778 16.6607 156.031 18.535C157.283 20.4094 157.951 22.613 157.951 24.8673C157.951 26.364 157.657 27.8462 157.084 29.229C156.511 30.6118 155.671 31.8683 154.613 32.9267C153.555 33.9851 152.298 34.8246 150.915 35.3974C149.533 35.9702 148.05 36.265 146.554 36.265Z" fill="#336B68"/>
</svg>
