<svg xmlns="http://www.w3.org/2000/svg" width="234" height="237" fill="none"><path fill="#D9D9D9" d="M0 227.3c4.4 2.8 10.7 0 15.2 2.7 1.1.8 2 1.8 3.2 2.4 1.4.8 3 1 4.7 1 13.5.5 27.3-3.2 40.4-.2 3.7.9 7.3 2.2 11.1 2.4 6.5.4 12.8-2.8 19.3-3 10-.2 19.6 6.4 29.2 3.8 3.1-.9 6-2.7 9.3-3 3.6-.3 7 1.2 10.6 2.2 12.4 3.2 25.4-2 38.3-2.5 8.4-.2 16.7 1.6 25.1 2 6 .3 12 0 18-.5 2.2-.2 4.6-.3 6.5-1.6 1.9-1.2 3-4 1.9-5.9L0 227.3z"/><path fill="#D9D9D9" d="M0 227.3c4.4 2.8 10.7 0 15.2 2.7 1.1.8 2 1.8 3.2 2.4 1.4.8 3 1 4.7 1 13.5.5 27.3-3.2 40.4-.2 3.7.9 7.3 2.2 11.1 2.4 6.5.4 12.8-2.8 19.3-3 10-.2 19.6 6.4 29.2 3.8 3.1-.9 6-2.7 9.3-3 3.6-.3 7 1.2 10.6 2.2 12.4 3.2 25.4-2 38.3-2.5 8.4-.2 16.7 1.6 25.1 2 6 .3 12 0 18-.5 2.2-.2 4.6-.3 6.5-1.6 1.9-1.2 3-4 1.9-5.9L0 227.3z" opacity=".1"/><path fill="#D9D9D9" d="M0 225.7c4.4 2.8 10.7 0 15.2 2.7 1.1.7 2 1.8 3.2 2.4 1.4.8 3 1 4.7 1 13.5.5 27.3-3.3 40.4-.2 3.7.8 7.3 2.2 11.1 2.4 6.5.4 12.8-2.8 19.3-3 10-.2 19.6 6.4 29.2 3.8 3.1-.9 6-2.7 9.3-3 3.6-.4 7 1.2 10.6 2.1 12.4 3.3 25.4-2 38.3-2.4 8.4-.2 16.7 1.6 25.1 2 6 .3 12-.1 18-.5 2.2-.2 4.6-.4 6.5-1.6 1.9-1.3 3-4 1.9-5.9L0 225.7z"/><path fill="#404040" d="M106.7 72a11.6 11.6 0 100-23.3 11.6 11.6 0 000 23.2zM100 150.6a61.9 61.9 0 01-4.2 29.6c-.8 1.4-2 2.6-2.9 3.8-2 2.7-3 5.9-4.1 9a253.2 253.2 0 00-7.4 27.6c.2.6 1.1.7 1.8.7h9.1c.3-.7-.3-1.4-.6-2-1.3-2 0-4.6 1-6.7 2.8-5.2 5-10.6 6.5-16.3.6-2.3 1.1-4.8 2.1-7 1.3-2.7 3.2-5 4.7-7.6 1.8-3 3.2-6.2 4.5-9.4 1.8-4.5 3.7-9 4.4-13.8a55 55 0 00-.4-14.3.9.9 0 00-.7-.3l-12.2-.6c-2.6-.1-3.2-.7-2.8 1.8.3 1.9 1 3.7 1.2 5.5z"/><path fill="#404040" d="M100 150.6a61.9 61.9 0 01-4.2 29.6c-.8 1.4-2 2.6-2.9 3.8-2 2.7-3 5.9-4.1 9a253.2 253.2 0 00-7.4 27.6c.2.6 1.1.7 1.8.7h9.1c.3-.7-.3-1.4-.6-2-1.3-2 0-4.6 1-6.7 2.8-5.2 5-10.6 6.5-16.3.6-2.3 1.1-4.8 2.1-7 1.3-2.7 3.2-5 4.7-7.6 1.8-3 3.2-6.2 4.5-9.4 1.8-4.5 3.7-9 4.4-13.8a55 55 0 00-.4-14.3.9.9 0 00-.7-.3l-12.2-.6c-2.6-.1-3.2-.7-2.8 1.8.3 1.9 1 3.7 1.2 5.5z" opacity=".1"/><path fill="#404040" d="M102.4 130.2c-2.5 3.6-5.1 7.7-4.3 12 .7 3.2 3.1 5.7 5.5 8 9.3 9.4 18.5 19.9 21.6 32.7.9 3.3 1.3 6.7 2 10 1.2 6.1 3.5 12 5.8 17.7l6.1 15.4a9.2 9.2 0 008.8-5.9c-.8 0-1.8-.8-2.3-1.4-2.6-3.6-3.1-8.3-3.8-12.6-.7-4.9-1.7-9.7-2.7-14.5l-4.4-21.3-1.6-7.3c-2.6-9.3-7.4-18.2-8.1-27.8-.1-1.5-.2-3-1.2-4-1-1.2-2.6-1.4-4.2-1.5-6-.3-11.3-1-17.2.5z"/><path fill="#F2F2F2" d="M86 219.2l-2-.3a4.2 4.2 0 00-3.3 1.8l-1 2-.8 2.5c-.3.8-.5 1.6-.1 2.3.3.4.7.7 1.2 1 2 .9 4.5 1 6.8 1.1l6.7 1c.8.2 1.5.4 2.3.4 1.8.2 3.5 0 5.2-.1l1.8-.2 1.8-.3a2.2 2.2 0 001.3-1.2c.4-1-.5-2.4-1.7-2.6l-1.4-.1-1.6-.5c-2.3-.9-4.6-1.8-6.6-3.2-.6-.4-1.1-1-1-1.6 0-.3 0-.6.2-.9a3 3 0 000-2.1c0-.3-.3-.7-.6-.7-.9 0-.7 1.2-.9 1.6-.1.7-.5.7-1 .7-1.8-.2-3.6-.3-5.3-.6zM137.2 228c0 1.2.5 2.4 1.3 3.4.2.3.5.6.9.7.5.2 1 .3 1.6.3 1.5 0 3-.4 4.5-1l1.6-.5 2-.3c2.7-.4 5-2 7.6-2.8a16 16 0 002.3-.7c1-.5 1.9-1.3 2.7-2.1.5-.4.9-1 1.2-1.5.5-.9.5-2 .5-3v-.4l-.3-.2c-.8-.4-1.8-.2-2.6 0a46.2 46.2 0 01-10.5.1c-.3-.1-.5-.4-.6-.7l-1.2-1.9c-.4-.6-1-1.2-1.6-1-.5.1-.7.8-.6 1.3 0 .5.1 1 0 1.6a2.2 2.2 0 01-1 1.3c-.5.3-1 .5-1.6.6-1.8.5-3.9 1.1-5.3 2.4-1 1-1 3-.9 4.3z"/><path fill="#FBBEBE" d="M136.6 99.1c.7-.5 1.3-1.2 1.8-2 .4-.8.7-1.7.7-2.6l.6-3.2c.2-1.8.6-3.7 1.8-5 1.1-1.4 3.5-1.9 4.7-.5.5.6.7 1.4.9 2.1a15.7 15.7 0 01-3.9 13c-1.4 1.6-3.2 2.9-4.8 4.4-1.3 1.3-2.5 2.8-3.7 4.2-3 3.4-6.4 6.4-10.2 9 0-2.5.3-5 0-7.5-.3-1.7-1-2.6.7-3.8 3.9-2.6 7.8-5 11.4-8.1zM103.9 75.3a6 6 0 01-2.3 4.5c4 1.4 8 3 12 4.7-.8-.7-1-1.8-1-2.9-.2-2.7.8-5.4 2.2-7.8l.4-1c0-.8-1-1.2-1.7-1.3-2.6-.7-5.2-1-7.8-1.2-1.1 0-2.5-.4-2.2 1 .2 1.4.5 2.7.4 4z"/><path fill="#FBBEBE" d="M111.7 76.3a9.5 9.5 0 100-19 9.5 9.5 0 000 19z"/><path fill="#404040" d="M121 92.4a42 42 0 00-6.9-9 35.5 35.5 0 00-8.7-5.6l-2.2-.3-2.4-.2a2 2 0 00-.7 0c-.7.2-1 1-.8 1.7.1.7.6 1.2 1 1.7.2 5-2 10-2.3 15-.6 8.8 4.8 17 5.2 25.8l-.1 1.2c0 .2-.2.3-.3.5-.2.5-.2 1.2-.3 1.8a9 9 0 01-2.6 5.7c.4.5.9.9 1.5 1.2 1 .4 2.3.4 3.4.8 2.8.8 5.8 1.6 8.7 1.5.4-.8.6-1.7.7-2.6.4-.3 1 .3 1 .8s0 1 .3 1.4c.4.4.8.3 1.3.3 1.8-.3 3.5-.9 5.3-1.3a10 10 0 015.5 0c.3-.4.2-1.1-.1-1.6l-.9-1.5v-1c0-2.7.5-5.5 0-8.2l-.6-2.4c-.4-1.6-.3-3.2-.3-4.7l-.2-5v-2l-.5-2c-.1-1.8.6-3.6.5-5.3-.2-2.7-3.4-4.2-4.4-6.7z"/><path fill="#FBBEBE" d="M99.7 91.1c-2.3 6.1-3.4 12.6-4.6 19l-2.6 15.1a73 73 0 00-1.4 12.9c0 1.2 0 2.4-.3 3.6-.4 1.6-1.4 2.8-2.2 4.2a13.9 13.9 0 00-1.5 9.4c.3 1.4 1 3 2.4 3 1.1.2 2-.7 2.7-1.6 1.5-2.1 2.3-4.7 3-7.2a162.4 162.4 0 005-28.2c.2-1.1.6-2.2 1-3.2l3-7.4a118 118 0 017.7-16.7c-3-.9-6.3-2-9.4-2.8-1-.3-1.9-.1-2.8 0z"/><path fill="#404040" d="M105 95.8c-2.1-.5-4.4-.4-6.6-.4-.3 0-.6 0-.9-.2-.4-.4-.2-1.2 0-1.7l1-2.6c.2-.5.5-1 1-1.4.5-.5 1.2-.6 2-.7 2.3-.3 4.8-.4 7 .2 2.4.7 4.5 2.1 5.6 4.3.4.9.6 2 0 2.8-.8 1.2-2.7 2.6-4.1 2-1.7-.9-3-2-5-2.3zM116.7 52c-1.9 0-3.7.5-5.3 1.6a11.6 11.6 0 00-11.4-2.7 6.6 6.6 0 10-7.7 7.7 11.6 11.6 0 1022.3 6.5l2 .2c4.7 0 8.4-3 8.4-6.6 0-3.7-3.7-6.7-8.3-6.7z"/><path fill="#000" d="M118.3 62c-.7 0-1.4 0-2-.2-.4 1.2-.9 2.3-1.6 3.3l2 .2c4.3 0 7.8-2.6 8.2-6a9.1 9.1 0 01-6.6 2.7zM105 70.3a11.6 11.6 0 01-11-15 6.6 6.6 0 01-5.4-7.8 6.6 6.6 0 003.7 11 11.6 11.6 0 0022.2 7 11.6 11.6 0 01-9.4 4.8z" opacity=".1"/><path fill="#3A3768" d="M147.4 89.8v-.1h-.2l-.9 1.3v.2h.2l1-1.4zM142.3 84.4v-.1h-.1l-.3.4c0 .1 0 .1.1 0l.3-.3zM141.7 85.3v-.1h-.2l-.5.7v.1h.1l.6-.7zM140.8 86.4c0-.1 0 0 0 0l-.6.7h.1l.5-.7z"/><path fill="#3A3768" d="M149 87l-4.6-3.2a.8.8 0 00-1.2.2l-7.6 10.7c-.3.4-.2 1 .2 1.2l4.6 3.3c.3.2.8.1 1.1-.2l7.7-10.8c.2-.3.2-.8-.2-1.1z"/><path fill="#000" d="M149 87l-4.6-3.2a.8.8 0 00-1.2.2l-7.6 10.7c-.3.4-.2 1 .2 1.2l4.6 3.3c.3.2.8.1 1.1-.2l7.7-10.8c.2-.3.2-.8-.2-1.1z" opacity=".1"/><path fill="#3A3768" d="M148.7 86.5l-4.6-3.3a.8.8 0 00-1.2.2L135.3 94c-.3.4-.2 1 .2 1.2l4.6 3.3c.3.2.8.1 1.1-.2l7.7-10.8c.2-.3.2-.9-.2-1.1z"/><path fill="#336B68" d="M148.3 86.7l-.7-.5a.5.5 0 01-.7.2l-2.2-1.6a.5.5 0 01-.1-.6V84l-.6-.5a.6.6 0 00-.8.2l-7.5 10.5a.6.6 0 00.1.8l4.3 3a.6.6 0 00.7 0l.1-.1 7.5-10.5a.6.6 0 00.1-.4.6.6 0 00-.2-.4z"/><path fill="#E6E8EC" d="M146.3 85.3l-.7-.4h-.1v.1l.7.5h.1v-.2zM146.5 85.8a.1.1 0 100-.3.1.1 0 000 .3z"/><path fill="#68A78D" fill-opacity=".2" d="M146.6 4.5a21.8 21.8 0 00-21.8 21.8c0 12 22.8 51.8 22.8 51.8s20.7-39.8 20.7-51.8a21.8 21.8 0 00-21.7-21.8zm0 36.3a11.4 11.4 0 110-22.8 11.4 11.4 0 010 22.8z"/><path fill="#336B68" d="M146.6 4.5a21.8 21.8 0 00-21.8 21.8c0 12 22.8 51.8 22.8 51.8s20.7-39.8 20.7-51.8a21.8 21.8 0 00-21.7-21.8zm0 36.3a11.4 11.4 0 110-22.8 11.4 11.4 0 010 22.8z" opacity=".1"/><path fill="#336B68" d="M146.6 0a21.8 21.8 0 00-21.8 21.8c0 12 22.8 56.3 22.8 56.3s20.7-44.3 20.7-56.3A21.8 21.8 0 00146.6 0zm0 36.3a11.4 11.4 0 110-22.8 11.4 11.4 0 010 22.8z"/></svg>